<svg width="127" height="77" viewBox="0 0 127 77" fill="none" xmlns="http://www.w3.org/2000/svg">
<path d="M53.4978 13.6685C52.9654 13.6999 52.4518 13.8857 52.0148 14.2051C51.5777 14.5245 51.2344 14.9648 51.0234 15.4767C50.4047 17.0399 51.2013 18.8761 52.3973 20.0159C53.5932 21.1558 55.1294 21.8074 56.5252 22.6638C58.4001 23.8141 60.0847 25.4109 61.0228 27.4607C61.9609 29.5104 62.0606 32.0495 60.958 34.0077C59.9345 35.8253 58.0735 36.9131 56.2986 37.9163" stroke="#2B2B2B" stroke-width="0.427525" stroke-miterlimit="10"/>
<path d="M58.4941 4.13818C57.9616 4.16962 57.4481 4.35545 57.011 4.67483C56.574 4.99422 56.2307 5.43454 56.0196 5.94642C55.4009 7.50959 56.1976 9.34578 57.3935 10.4857C58.5894 11.6255 60.1257 12.2771 61.5215 13.1335C63.3963 14.2838 65.081 15.8806 66.019 17.9304C66.9571 19.9802 67.0569 22.5192 65.9542 24.4774C64.9308 26.295 63.0698 27.3828 61.2949 28.386" stroke="#2B2B2B" stroke-width="0.427525" stroke-miterlimit="10"/>
<path d="M74.9206 6.33034C74.4812 6.01452 73.9663 5.83288 73.4337 5.80579C72.901 5.7787 72.3716 5.90723 71.905 6.17695C70.5001 7.01711 70.0546 8.97874 70.3326 10.6453C70.6106 12.3118 71.4437 13.8099 72.0458 15.3802C72.8545 17.4893 73.2513 19.8298 72.7924 22.0508C72.3336 24.2718 70.9253 26.3433 68.9064 27.1862C67.0326 27.9686 64.9239 27.638 62.9329 27.2957" stroke="#2B2B2B" stroke-width="0.427525" stroke-miterlimit="10"/>
<path d="M60.445 26.0315C62.1006 26.0315 63.4427 25.3501 63.4427 24.5096C63.4427 23.6691 62.1006 22.9878 60.445 22.9878C58.7893 22.9878 57.4472 23.6691 57.4472 24.5096C57.4472 25.3501 58.7893 26.0315 60.445 26.0315Z" fill="#45A582"/>
<path d="M60.0693 25.7702C61.7249 25.7702 63.0671 25.0889 63.0671 24.2484C63.0671 23.4079 61.7249 22.7266 60.0693 22.7266C58.4137 22.7266 57.0715 23.4079 57.0715 24.2484C57.0715 25.0889 58.4137 25.7702 60.0693 25.7702Z" stroke="#2B2B2B" stroke-width="0.427525" stroke-miterlimit="10"/>
<path d="M66.9397 24.7263C68.5953 24.7263 69.9375 24.0449 69.9375 23.2045C69.9375 22.364 68.5953 21.6826 66.9397 21.6826C65.2841 21.6826 63.9419 22.364 63.9419 23.2045C63.9419 24.0449 65.2841 24.7263 66.9397 24.7263Z" fill="#45A582"/>
<path d="M66.5647 24.4651C68.2203 24.4651 69.5624 23.7837 69.5624 22.9432C69.5624 22.1027 68.2203 21.4214 66.5647 21.4214C64.909 21.4214 63.5669 22.1027 63.5669 22.9432C63.5669 23.7837 64.909 24.4651 66.5647 24.4651Z" stroke="#2B2B2B" stroke-width="0.427525" stroke-miterlimit="10"/>
<path d="M67.9393 30.4699C69.5949 30.4699 70.9371 29.7886 70.9371 28.9481C70.9371 28.1076 69.5949 27.4263 67.9393 27.4263C66.2837 27.4263 64.9415 28.1076 64.9415 28.9481C64.9415 29.7886 66.2837 30.4699 67.9393 30.4699Z" fill="#45A582"/>
<path d="M67.5636 30.2087C69.2193 30.2087 70.5614 29.5274 70.5614 28.6869C70.5614 27.8464 69.2193 27.165 67.5636 27.165C65.908 27.165 64.5659 27.8464 64.5659 28.6869C64.5659 29.5274 65.908 30.2087 67.5636 30.2087Z" stroke="#2B2B2B" stroke-width="0.427525" stroke-miterlimit="10"/>
<path d="M67.3136 16.1096C68.9692 16.1096 70.3114 15.4282 70.3114 14.5878C70.3114 13.7473 68.9692 13.0659 67.3136 13.0659C65.658 13.0659 64.3158 13.7473 64.3158 14.5878C64.3158 15.4282 65.658 16.1096 67.3136 16.1096Z" fill="#45A582"/>
<path d="M66.9397 15.8488C68.5953 15.8488 69.9375 15.1675 69.9375 14.327C69.9375 13.4865 68.5953 12.8052 66.9397 12.8052C65.2841 12.8052 63.9419 13.4865 63.9419 14.327C63.9419 15.1675 65.2841 15.8488 66.9397 15.8488Z" stroke="#2B2B2B" stroke-width="0.427525" stroke-miterlimit="10"/>
<path d="M59.8193 15.196C61.4749 15.196 62.817 14.5147 62.817 13.6742C62.817 12.8337 61.4749 12.1523 59.8193 12.1523C58.1636 12.1523 56.8215 12.8337 56.8215 13.6742C56.8215 14.5147 58.1636 15.196 59.8193 15.196Z" fill="#45A582"/>
<path d="M59.4454 14.9348C61.101 14.9348 62.4431 14.2534 62.4431 13.4129C62.4431 12.5725 61.101 11.8911 59.4454 11.8911C57.7897 11.8911 56.4476 12.5725 56.4476 13.4129C56.4476 14.2534 57.7897 14.9348 59.4454 14.9348Z" stroke="#2B2B2B" stroke-width="0.427525" stroke-miterlimit="10"/>
<path d="M63.1926 11.9323C64.8482 11.9323 66.1903 11.251 66.1903 10.4105C66.1903 9.57002 64.8482 8.88867 63.1926 8.88867C61.5369 8.88867 60.1948 9.57002 60.1948 10.4105C60.1948 11.251 61.5369 11.9323 63.1926 11.9323Z" fill="#45A582"/>
<path d="M62.8175 11.6711C64.4731 11.6711 65.8152 10.9898 65.8152 10.1493C65.8152 9.30879 64.4731 8.62744 62.8175 8.62744C61.1618 8.62744 59.8197 9.30879 59.8197 10.1493C59.8197 10.9898 61.1618 11.6711 62.8175 11.6711Z" stroke="#2B2B2B" stroke-width="0.427525" stroke-miterlimit="10"/>
<path d="M70.5613 12.5847C72.2169 12.5847 73.559 11.9033 73.559 11.0628C73.559 10.2224 72.2169 9.54102 70.5613 9.54102C68.9056 9.54102 67.5635 10.2224 67.5635 11.0628C67.5635 11.9033 68.9056 12.5847 70.5613 12.5847Z" fill="#45A582"/>
<path d="M70.1874 12.3244C71.843 12.3244 73.1852 11.6431 73.1852 10.8026C73.1852 9.96211 71.843 9.28076 70.1874 9.28076C68.5318 9.28076 67.1896 9.96211 67.1896 10.8026C67.1896 11.6431 68.5318 12.3244 70.1874 12.3244Z" stroke="#2B2B2B" stroke-width="0.427525" stroke-miterlimit="10"/>
<path d="M76.057 16.8928C77.7127 16.8928 79.0548 16.2114 79.0548 15.371C79.0548 14.5305 77.7127 13.8491 76.057 13.8491C74.4014 13.8491 73.0592 14.5305 73.0592 15.371C73.0592 16.2114 74.4014 16.8928 76.057 16.8928Z" fill="#45A582"/>
<path d="M75.6831 16.6316C77.3387 16.6316 78.6809 15.9502 78.6809 15.1097C78.6809 14.2692 77.3387 13.5879 75.6831 13.5879C74.0275 13.5879 72.6853 14.2692 72.6853 15.1097C72.6853 15.9502 74.0275 16.6316 75.6831 16.6316Z" stroke="#2B2B2B" stroke-width="0.427525" stroke-miterlimit="10"/>
<path d="M56.6978 9.3215C58.3534 9.3215 59.6956 8.64015 59.6956 7.79967C59.6956 6.95918 58.3534 6.27783 56.6978 6.27783C55.0422 6.27783 53.7 6.95918 53.7 7.79967C53.7 8.64015 55.0422 9.3215 56.6978 9.3215Z" fill="#45A582"/>
<path d="M56.3221 9.05978C57.9778 9.05978 59.3199 8.37843 59.3199 7.53795C59.3199 6.69746 57.9778 6.01611 56.3221 6.01611C54.6665 6.01611 53.3243 6.69746 53.3243 7.53795C53.3243 8.37843 54.6665 9.05978 56.3221 9.05978Z" stroke="#2B2B2B" stroke-width="0.427525" stroke-miterlimit="10"/>
<path d="M58.5702 4.36007C60.2258 4.36007 61.568 3.67873 61.568 2.83824C61.568 1.99775 60.2258 1.31641 58.5702 1.31641C56.9146 1.31641 55.5724 1.99775 55.5724 2.83824C55.5724 3.67873 56.9146 4.36007 58.5702 4.36007Z" fill="#45A582"/>
<path d="M58.1963 4.09933C59.8519 4.09933 61.1941 3.41798 61.1941 2.5775C61.1941 1.73701 59.8519 1.05566 58.1963 1.05566C56.5407 1.05566 55.1985 1.73701 55.1985 2.5775C55.1985 3.41798 56.5407 4.09933 58.1963 4.09933Z" stroke="#2B2B2B" stroke-width="0.427525" stroke-miterlimit="10"/>
<path d="M75.9332 8.01535C77.5888 8.01535 78.931 7.334 78.931 6.49351C78.931 5.65303 77.5888 4.97168 75.9332 4.97168C74.2776 4.97168 72.9354 5.65303 72.9354 6.49351C72.9354 7.334 74.2776 8.01535 75.9332 8.01535Z" fill="#45A582"/>
<path d="M75.5575 7.75412C77.2131 7.75412 78.5553 7.07277 78.5553 6.23228C78.5553 5.3918 77.2131 4.71045 75.5575 4.71045C73.9019 4.71045 72.5597 5.3918 72.5597 6.23228C72.5597 7.07277 73.9019 7.75412 75.5575 7.75412Z" stroke="#2B2B2B" stroke-width="0.427525" stroke-miterlimit="10"/>
<path d="M48.3283 20.0261C49.9839 20.0261 51.326 19.3447 51.326 18.5043C51.326 17.6638 49.9839 16.9824 48.3283 16.9824C46.6726 16.9824 45.3305 17.6638 45.3305 18.5043C45.3305 19.3447 46.6726 20.0261 48.3283 20.0261Z" fill="#45A582"/>
<path d="M47.9544 19.7653C49.61 19.7653 50.9522 19.084 50.9522 18.2435C50.9522 17.403 49.61 16.7217 47.9544 16.7217C46.2988 16.7217 44.9566 17.403 44.9566 18.2435C44.9566 19.084 46.2988 19.7653 47.9544 19.7653Z" stroke="#2B2B2B" stroke-width="0.427525" stroke-miterlimit="10"/>
<path d="M58.6964 19.2429C60.352 19.2429 61.6942 18.5615 61.6942 17.7211C61.6942 16.8806 60.352 16.1992 58.6964 16.1992C57.0408 16.1992 55.6986 16.8806 55.6986 17.7211C55.6986 18.5615 57.0408 19.2429 58.6964 19.2429Z" fill="#45A582"/>
<path d="M58.3207 18.9821C59.9764 18.9821 61.3185 18.3008 61.3185 17.4603C61.3185 16.6198 59.9764 15.9385 58.3207 15.9385C56.6651 15.9385 55.3229 16.6198 55.3229 17.4603C55.3229 18.3008 56.6651 18.9821 58.3207 18.9821Z" stroke="#2B2B2B" stroke-width="0.427525" stroke-miterlimit="10"/>
<path d="M72.3098 20.4177C73.9655 20.4177 75.3076 19.7363 75.3076 18.8959C75.3076 18.0554 73.9655 17.374 72.3098 17.374C70.6542 17.374 69.312 18.0554 69.312 18.8959C69.312 19.7363 70.6542 20.4177 72.3098 20.4177Z" fill="#45A582"/>
<path d="M71.936 20.1569C73.5916 20.1569 74.9337 19.4756 74.9337 18.6351C74.9337 17.7946 73.5916 17.1133 71.936 17.1133C70.2803 17.1133 68.9382 17.7946 68.9382 18.6351C68.9382 19.4756 70.2803 20.1569 71.936 20.1569Z" stroke="#2B2B2B" stroke-width="0.427525" stroke-miterlimit="10"/>
<path d="M65.0655 20.9397C66.7212 20.9397 68.0633 20.2583 68.0633 19.4178C68.0633 18.5773 66.7212 17.896 65.0655 17.896C63.4099 17.896 62.0677 18.5773 62.0677 19.4178C62.0677 20.2583 63.4099 20.9397 65.0655 20.9397Z" fill="#45A582"/>
<path d="M64.6916 20.6789C66.3473 20.6789 67.6894 19.9976 67.6894 19.1571C67.6894 18.3166 66.3473 17.6353 64.6916 17.6353C63.036 17.6353 61.6938 18.3166 61.6938 19.1571C61.6938 19.9976 63.036 20.6789 64.6916 20.6789Z" stroke="#2B2B2B" stroke-width="0.427525" stroke-miterlimit="10"/>
<path d="M65.565 7.88449C67.2207 7.88449 68.5628 7.20314 68.5628 6.36265C68.5628 5.52217 67.2207 4.84082 65.565 4.84082C63.9094 4.84082 62.5673 5.52217 62.5673 6.36265C62.5673 7.20314 63.9094 7.88449 65.565 7.88449Z" fill="#45A582"/>
<path d="M65.1911 7.62375C66.8468 7.62375 68.1889 6.9424 68.1889 6.10191C68.1889 5.26143 66.8468 4.58008 65.1911 4.58008C63.5355 4.58008 62.1934 5.26143 62.1934 6.10191C62.1934 6.9424 63.5355 7.62375 65.1911 7.62375Z" stroke="#2B2B2B" stroke-width="0.427525" stroke-miterlimit="10"/>
<path d="M52.7006 15.9792C54.3562 15.9792 55.6984 15.2979 55.6984 14.4574C55.6984 13.6169 54.3562 12.9355 52.7006 12.9355C51.0449 12.9355 49.7028 13.6169 49.7028 14.4574C49.7028 15.2979 51.0449 15.9792 52.7006 15.9792Z" fill="#45A582"/>
<path d="M52.3249 15.7185C53.9805 15.7185 55.3227 15.0371 55.3227 14.1966C55.3227 13.3562 53.9805 12.6748 52.3249 12.6748C50.6693 12.6748 49.3271 13.3562 49.3271 14.1966C49.3271 15.0371 50.6693 15.7185 52.3249 15.7185Z" stroke="#2B2B2B" stroke-width="0.427525" stroke-miterlimit="10"/>
<path d="M54.4491 21.8537C56.1048 21.8537 57.4469 21.1724 57.4469 20.3319C57.4469 19.4914 56.1048 18.8101 54.4491 18.8101C52.7935 18.8101 51.4514 19.4914 51.4514 20.3319C51.4514 21.1724 52.7935 21.8537 54.4491 21.8537Z" fill="#45A582"/>
<path d="M54.074 21.5925C55.7297 21.5925 57.0718 20.9111 57.0718 20.0707C57.0718 19.2302 55.7297 18.5488 54.074 18.5488C52.4184 18.5488 51.0763 19.2302 51.0763 20.0707C51.0763 20.9111 52.4184 21.5925 54.074 21.5925Z" stroke="#2B2B2B" stroke-width="0.427525" stroke-miterlimit="10"/>
<g opacity="0.3">
<path d="M54.518 30.7236C54.9412 29.9323 55.0184 29.1355 54.6905 28.944C54.3626 28.7525 53.7538 29.2387 53.3306 30.03C52.9075 30.8214 52.8302 31.6182 53.1581 31.8097C53.486 32.0012 54.0949 31.515 54.518 30.7236Z" fill="#45A582"/>
<path d="M54.3207 30.8428C54.7439 30.0514 54.8211 29.2547 54.4932 29.0631C54.1653 28.8716 53.5565 29.3578 53.1333 30.1492C52.7101 30.9405 52.6329 31.7373 52.9608 31.9288C53.2887 32.1204 53.8975 31.6341 54.3207 30.8428Z" stroke="#2B2B2B" stroke-width="0.427525" stroke-miterlimit="10"/>
</g>
<g opacity="0.3">
<path d="M70.1444 34.5166C70.3949 34.224 70.0741 33.4968 69.4277 32.8922C68.7814 32.2876 68.0544 32.0347 67.8039 32.3272C67.5534 32.6198 67.8743 33.347 68.5206 33.9516C69.1669 34.5562 69.8939 34.8091 70.1444 34.5166Z" fill="#45A582"/>
<path d="M70.0757 34.289C70.3262 33.9965 70.0053 33.2692 69.359 32.6647C68.7127 32.0601 67.9857 31.8072 67.7352 32.0997C67.4847 32.3922 67.8055 33.1195 68.4519 33.7241C69.0982 34.3286 69.8252 34.5816 70.0757 34.289Z" stroke="#2B2B2B" stroke-width="0.427525" stroke-miterlimit="10"/>
</g>
<g opacity="0.3">
<path d="M56.1548 26.292C56.4053 25.9994 56.0845 25.2722 55.4381 24.6676C54.7918 24.063 54.0648 23.8101 53.8143 24.1026C53.5638 24.3952 53.8847 25.1224 54.531 25.727C55.1773 26.3316 55.9043 26.5845 56.1548 26.292Z" fill="#45A582"/>
<path d="M56.0861 26.0639C56.3366 25.7714 56.0157 25.0441 55.3694 24.4396C54.7231 23.835 53.9961 23.5821 53.7456 23.8746C53.4951 24.1671 53.8159 24.8944 54.4623 25.499C55.1086 26.1035 55.8356 26.3565 56.0861 26.0639Z" stroke="#2B2B2B" stroke-width="0.427525" stroke-miterlimit="10"/>
</g>
<path d="M30.933 49.3565C30.933 49.7823 30.9037 50.1998 30.8453 50.609C30.7952 51.0181 30.7576 51.4356 30.7326 51.8615C30.6741 51.803 30.6073 51.7571 30.5322 51.7237C30.4654 51.682 30.3944 51.6611 30.3192 51.6611C30.2274 51.6611 30.1397 51.6903 30.0562 51.7488C29.9727 51.8072 29.931 51.8824 29.931 51.9742C29.931 52.0744 29.9769 52.1412 30.0687 52.1746C30.1689 52.208 30.2691 52.2247 30.3693 52.2247C30.4528 52.2247 30.5113 52.2205 30.5447 52.2122C30.5447 52.3124 30.5155 52.4168 30.457 52.5253C30.4069 52.6255 30.3401 52.7257 30.2566 52.8259C30.1815 52.9261 30.098 53.0222 30.0061 53.114C29.9226 53.1975 29.8475 53.2727 29.7807 53.3395C29.7306 53.3896 29.6763 53.4605 29.6178 53.5524C29.5594 53.6442 29.4926 53.7361 29.4174 53.8279C29.3506 53.9114 29.2797 53.9866 29.2045 54.0534C29.1293 54.1118 29.0542 54.1411 28.979 54.1411C28.8955 54.1411 28.8287 54.1202 28.7786 54.0784C28.7285 54.0283 28.6701 54.0033 28.6033 54.0033C28.5114 54.0033 28.453 54.0534 28.4279 54.1536C28.4112 54.2454 28.4029 54.3373 28.4029 54.4291V54.5795C28.4029 54.6212 28.3152 54.6755 28.1399 54.7423C27.9645 54.8091 27.7516 54.8842 27.5011 54.9677C27.2589 55.0429 27.0042 55.1222 26.737 55.2057C26.4782 55.2809 26.2611 55.356 26.0857 55.4312C25.7434 55.5731 25.3969 55.69 25.0462 55.7819C24.6954 55.8737 24.3322 55.9196 23.9565 55.9196C23.6809 55.9196 23.4137 55.8821 23.1549 55.8069C22.9044 55.7401 22.6497 55.665 22.3908 55.5815C22.1403 55.4896 21.8856 55.4103 21.6268 55.3435C21.3763 55.2683 21.1133 55.2308 20.8377 55.2308C20.7291 55.2308 20.5872 55.2475 20.4118 55.2809C20.2365 55.3143 20.1029 55.3644 20.011 55.4312C19.9693 55.4646 19.9275 55.523 19.8858 55.6065C19.844 55.6984 19.7939 55.7443 19.7355 55.7443C19.6937 55.7443 19.6353 55.7276 19.5601 55.6942C19.485 55.6608 19.4307 55.6357 19.3973 55.619C19.2053 55.5188 19.0424 55.3894 18.9088 55.2308C18.7752 55.0638 18.6625 54.8842 18.5706 54.6922C18.4788 54.5001 18.412 54.2997 18.3702 54.091C18.3285 53.8739 18.3076 53.6651 18.3076 53.4647C18.3076 53.3228 18.3201 53.185 18.3452 53.0514C18.3786 52.9094 18.3953 52.7675 18.3953 52.6255C18.3953 52.4251 18.3702 52.2289 18.3201 52.0368C18.2784 51.8448 18.2575 51.6486 18.2575 51.4482C18.2575 51.3062 18.2784 51.1643 18.3201 51.0223C18.3702 50.8804 18.3953 50.7384 18.3953 50.5965C18.3953 50.4879 18.3702 50.3877 18.3201 50.2958C18.27 50.1956 18.245 50.0913 18.245 49.9827C18.245 49.9076 18.27 49.8449 18.3201 49.7948C18.3786 49.7447 18.4078 49.6863 18.4078 49.6195C18.4078 49.5193 18.4036 49.4191 18.3953 49.3189C18.3869 49.2187 18.3828 49.1185 18.3828 49.0183C18.3828 48.9682 18.3828 48.8972 18.3828 48.8054C18.3911 48.7052 18.4036 48.6091 18.4203 48.5173C18.437 48.4254 18.4663 48.3461 18.508 48.2793C18.5498 48.2125 18.6082 48.1791 18.6834 48.1791C18.8337 48.1791 18.984 48.2751 19.1343 48.4672C19.2929 48.6509 19.4349 48.868 19.5601 49.1185C19.6937 49.369 19.8023 49.6195 19.8858 49.87C19.9693 50.1205 20.011 50.3084 20.011 50.4336C20.011 50.4754 19.9943 50.5171 19.9609 50.5589C19.9275 50.5923 19.8858 50.609 19.8357 50.609C19.8691 50.6674 19.9067 50.7551 19.9484 50.872C19.9902 50.9889 20.011 51.0808 20.011 51.1476C20.011 51.2478 19.9943 51.3438 19.9609 51.4356C19.9359 51.5275 19.9234 51.6235 19.9234 51.7237C19.9234 51.8072 19.9401 51.8865 19.9735 51.9617C20.0152 52.0368 20.057 52.1078 20.0987 52.1746C20.1655 52.2748 20.224 52.35 20.2741 52.4001C20.3242 52.4502 20.3784 52.4877 20.4369 52.5128C20.4953 52.5295 20.558 52.542 20.6248 52.5504C20.6999 52.5587 20.796 52.5671 20.9129 52.5754C21.0799 52.8176 21.2677 53.043 21.4765 53.2518C21.6852 53.4605 21.9107 53.6484 22.1528 53.8154C22.5286 53.8989 22.9002 53.9657 23.2676 54.0158C23.635 54.0659 24.0066 54.091 24.3823 54.091C24.6913 54.091 24.9585 54.0576 25.1839 53.9908C25.4177 53.924 25.6307 53.8363 25.8227 53.7277C26.0231 53.6192 26.2152 53.4981 26.3989 53.3645C26.5826 53.2226 26.7746 53.0764 26.975 52.9261C27.117 52.8259 27.2673 52.7299 27.4259 52.6381C27.5846 52.5462 27.7391 52.4502 27.8894 52.35C28.0397 52.2498 28.1816 52.1412 28.3152 52.0243C28.4488 51.8991 28.5615 51.7571 28.6534 51.5985C28.7118 51.4983 28.7953 51.3981 28.9039 51.2979C29.0208 51.1893 29.0792 51.0724 29.0792 50.9472C29.0792 50.8971 29.0751 50.8595 29.0667 50.8344C29.0333 50.5672 29.0083 50.3084 28.9916 50.0579C28.9832 49.799 28.9707 49.536 28.954 49.2688C28.9373 49.0183 28.883 48.8304 28.7912 48.7052C28.6993 48.5716 28.5824 48.463 28.4405 48.3795C28.3069 48.2877 28.1607 48.2 28.0021 48.1165C27.8434 48.033 27.689 47.9161 27.5387 47.7658C27.38 47.6071 27.2005 47.5069 27.0001 47.4652C26.808 47.4234 26.6076 47.3984 26.3989 47.39C26.1901 47.3817 25.9814 47.3691 25.7726 47.3524C25.5722 47.3274 25.3843 47.2481 25.209 47.1145C25.1589 47.0811 25.1171 47.0644 25.0837 47.0644C25.0086 47.0644 24.9334 47.0894 24.8583 47.1395C24.7915 47.1813 24.7163 47.2021 24.6328 47.2021C24.5076 47.2021 24.3781 47.1854 24.2445 47.152C24.1193 47.1186 23.994 47.0811 23.8688 47.0393C23.7435 46.9976 23.6183 46.9558 23.493 46.9141C23.3678 46.8723 23.2425 46.8431 23.1173 46.8264C22.9503 46.8013 22.8125 46.7846 22.7039 46.7763C22.6037 46.7679 22.5077 46.7554 22.4159 46.7387C22.3324 46.7137 22.2405 46.6803 22.1403 46.6385C22.0401 46.5884 21.9149 46.5133 21.7646 46.4131C21.3304 46.1291 20.8669 45.9204 20.3743 45.7868C20.2824 45.553 20.1613 45.315 20.011 45.0729C19.9192 45.0144 19.8273 44.9601 19.7355 44.91C19.652 44.8516 19.5685 44.789 19.485 44.7222C19.4349 44.6387 19.3681 44.4925 19.2846 44.2838C19.2094 44.075 19.1343 43.8537 19.0591 43.6199C18.984 43.3778 18.9172 43.1523 18.8587 42.9436C18.8086 42.7348 18.7836 42.5845 18.7836 42.4927C18.7836 42.3006 18.8045 42.1169 18.8462 41.9416C18.888 41.7662 18.984 41.6076 19.1343 41.4656C19.1593 41.4489 19.1886 41.428 19.222 41.403C19.2637 41.3696 19.2846 41.332 19.2846 41.2903C19.2846 41.2485 19.2512 41.2193 19.1844 41.2026C19.1259 41.1775 19.0967 41.1316 19.0967 41.0648C19.0967 41.0565 19.1009 41.0439 19.1092 41.0272C19.1176 41.0022 19.1218 40.9813 19.1218 40.9646C19.1802 40.7809 19.2679 40.6056 19.3848 40.4386C19.5017 40.2716 19.6353 40.1129 19.7856 39.9626C19.9359 39.8123 20.0904 39.6745 20.249 39.5493C20.416 39.4157 20.5747 39.2946 20.725 39.186C20.8335 39.1109 20.9254 39.0149 21.0005 38.898C21.084 38.7811 21.1717 38.6976 21.2636 38.6475C21.322 38.6475 21.3805 38.6475 21.4389 38.6475C21.4974 38.6391 21.5558 38.6349 21.6143 38.6349C21.6811 38.6349 21.7395 38.6391 21.7896 38.6475C21.8481 38.6475 21.9107 38.6475 21.9775 38.6475C22.0693 38.6141 22.132 38.5765 22.1654 38.5347C22.1988 38.4846 22.2322 38.4387 22.2656 38.397C22.299 38.3552 22.3407 38.3218 22.3908 38.2968C22.4493 38.2717 22.5495 38.2592 22.6914 38.2592C22.7833 38.2592 22.8751 38.2634 22.967 38.2717C23.0588 38.2717 23.1507 38.2717 23.2425 38.2717C23.5598 38.2717 23.873 38.2675 24.1819 38.2592C24.4992 38.2508 24.8165 38.2467 25.1338 38.2467C25.3593 38.2467 25.5806 38.2508 25.7977 38.2592C26.0231 38.2592 26.2486 38.2759 26.474 38.3093C26.6243 38.326 26.7704 38.3594 26.9124 38.4095C27.0543 38.4512 27.2047 38.4721 27.3633 38.4721C27.5136 38.4721 27.618 38.4429 27.6764 38.3844C27.7432 38.326 27.7933 38.2634 27.8267 38.1966C27.8685 38.1298 27.9144 38.0671 27.9645 38.0087C28.0146 37.9502 28.1023 37.921 28.2275 37.921C28.4029 37.921 28.5824 37.9669 28.7661 38.0588C28.9582 38.1506 29.1377 38.2258 29.3047 38.2842L29.2922 38.3343C29.2671 38.4095 29.2546 38.493 29.2546 38.5848C29.2546 38.7268 29.2755 38.8687 29.3172 39.0107C29.3673 39.1443 29.4174 39.2779 29.4675 39.4115C29.5176 39.5451 29.5636 39.6787 29.6053 39.8123C29.6554 39.9459 29.6805 40.0879 29.6805 40.2382C29.6805 40.33 29.6721 40.4177 29.6554 40.5012C29.6387 40.5763 29.6304 40.6598 29.6304 40.7517C29.6304 40.9187 29.6638 41.0398 29.7306 41.1149C29.7974 41.1817 29.8308 41.2443 29.8308 41.3028C29.8308 41.3696 29.8015 41.428 29.7431 41.4781C29.6846 41.5199 29.6554 41.5867 29.6554 41.6785C29.6554 41.8956 29.6679 42.1128 29.693 42.3299C29.718 42.5386 29.7306 42.7515 29.7306 42.9686C29.7306 43.0438 29.7264 43.1565 29.718 43.3068C29.718 43.4571 29.7013 43.6074 29.6679 43.7577C29.6429 43.8997 29.597 44.0249 29.5302 44.1335C29.4717 44.242 29.384 44.2963 29.2671 44.2963C29.1419 44.2963 29.0208 44.2504 28.9039 44.1585C28.787 44.0583 28.691 43.9623 28.6158 43.8704C28.5073 43.7535 28.4279 43.6283 28.3778 43.4947C28.3277 43.3527 28.286 43.2066 28.2526 43.0563C28.2192 42.906 28.1816 42.7599 28.1399 42.6179C28.0981 42.4676 28.0355 42.3299 27.952 42.2046C27.8184 42.0126 27.689 41.8205 27.5637 41.6284C27.4468 41.428 27.3299 41.2276 27.213 41.0272C27.1212 40.8769 27.0418 40.7726 26.975 40.7141C26.9082 40.6557 26.8372 40.6181 26.7621 40.6014C26.6869 40.5763 26.5993 40.5638 26.4991 40.5638C26.4072 40.5638 26.2903 40.5513 26.1484 40.5262C25.9981 40.5012 25.8478 40.4636 25.6975 40.4135C25.5555 40.3634 25.4094 40.3175 25.2591 40.2757C25.1171 40.2256 24.971 40.1839 24.8207 40.1505C24.6704 40.1087 24.5201 40.0879 24.3698 40.0879C24.1276 40.0879 23.8813 40.1254 23.6308 40.2006C23.3803 40.2757 23.1298 40.3718 22.8793 40.4887C22.6288 40.5972 22.3825 40.7141 22.1403 40.8394C21.8982 40.9563 21.6644 41.0565 21.4389 41.14C21.2302 41.5825 21.1258 42.0585 21.1258 42.5678C21.1258 42.9352 21.1675 43.2358 21.251 43.4696C21.3345 43.7034 21.4473 43.9038 21.5892 44.0708C21.7395 44.2295 21.9065 44.3715 22.0902 44.4967C22.2823 44.622 22.4827 44.7556 22.6914 44.8975C22.9085 45.0395 23.1215 45.1355 23.3302 45.1856C23.5473 45.2273 23.7811 45.2482 24.0316 45.2482C24.1736 45.2482 24.3113 45.244 24.4449 45.2357C24.5869 45.2273 24.7288 45.2232 24.8708 45.2232C25.0295 45.2232 25.1798 45.244 25.3217 45.2858C25.4637 45.3275 25.6014 45.3776 25.735 45.4361C25.877 45.4862 26.0189 45.5321 26.1609 45.5739C26.3028 45.6156 26.449 45.6365 26.5993 45.6365C26.7412 45.6365 26.8748 45.6281 27.0001 45.6114C27.1337 45.5947 27.2673 45.5864 27.4009 45.5864C27.5178 45.5864 27.6222 45.6156 27.714 45.6741C27.8059 45.7242 27.8977 45.7868 27.9896 45.8619C28.0814 45.9287 28.1733 45.9914 28.2651 46.0498C28.3653 46.1083 28.4739 46.1417 28.5908 46.15C28.7578 46.2335 28.8955 46.3087 29.0041 46.3755C29.1126 46.4423 29.2087 46.5133 29.2922 46.5884C29.384 46.6636 29.4675 46.7554 29.5427 46.864C29.6262 46.9725 29.718 47.1061 29.8182 47.2648C29.9101 47.4234 30.0312 47.5612 30.1815 47.6781C30.3318 47.795 30.4528 47.9369 30.5447 48.1039C30.5781 48.1624 30.599 48.2334 30.6073 48.3169C30.6157 48.392 30.6282 48.4672 30.6449 48.5423C30.6616 48.6091 30.6866 48.6718 30.72 48.7302C30.7618 48.7803 30.8244 48.8095 30.9079 48.8179C30.9163 48.9097 30.9204 49.0016 30.9204 49.0934C30.9288 49.1769 30.933 49.2646 30.933 49.3565Z" fill="#2B2B2B"/>
<path d="M46.0383 49.5068C46.0383 49.8658 46.0007 50.2165 45.9256 50.5589C45.8504 50.9012 45.7878 51.2478 45.7377 51.5985C45.721 51.7154 45.7085 51.8239 45.7001 51.9241C45.7001 52.016 45.6918 52.1078 45.6751 52.1997C45.6584 52.2832 45.6291 52.3708 45.5874 52.4627C45.5456 52.5462 45.483 52.6339 45.3995 52.7257C45.291 52.8426 45.2158 52.9679 45.1741 53.1015C45.1323 53.2267 45.0906 53.3603 45.0488 53.5023C44.9987 53.6442 44.9403 53.7528 44.8735 53.8279C44.815 53.8947 44.7482 53.9532 44.6731 54.0033C44.6063 54.0534 44.5311 54.1035 44.4476 54.1536C44.3725 54.1953 44.2931 54.2621 44.2096 54.354C44.1595 54.4124 44.1261 54.4709 44.1094 54.5293C44.1011 54.5878 44.0927 54.6462 44.0844 54.7047C44.076 54.7548 44.0552 54.8049 44.0218 54.855C43.9967 54.9051 43.9424 54.9469 43.8589 54.9803C43.7253 55.0387 43.6293 55.1055 43.5708 55.1807C43.5124 55.2475 43.4372 55.3268 43.3454 55.4186C43.2535 55.5105 43.1325 55.5982 42.9822 55.6817C42.8402 55.7735 42.6857 55.8528 42.5187 55.9196C42.3601 55.9864 42.1973 56.0407 42.0303 56.0825C41.8633 56.1242 41.7171 56.1451 41.5919 56.1451C41.4332 56.1451 41.2746 56.1284 41.1159 56.095C40.9656 56.0616 40.8111 56.0449 40.6525 56.0449C40.5606 56.0449 40.4897 56.0574 40.4396 56.0825C40.3978 56.1159 40.3602 56.1493 40.3268 56.1827C40.2934 56.2161 40.2559 56.2453 40.2141 56.2703C40.1807 56.3037 40.1264 56.3204 40.0513 56.3204C39.9093 56.3204 39.7006 56.262 39.425 56.1451C39.1495 56.0365 38.8572 55.9113 38.5483 55.7693C38.2477 55.6357 37.9554 55.5147 37.6715 55.4061C37.3876 55.2892 37.1705 55.2308 37.0202 55.2308C36.8866 55.2308 36.778 55.2809 36.6945 55.3811C36.6194 55.4729 36.5568 55.5898 36.5067 55.7318C36.4566 55.8821 36.419 56.0407 36.3939 56.2077C36.3772 56.3831 36.3647 56.5459 36.3564 56.6962C36.3564 56.8465 36.3564 56.9718 36.3564 57.072C36.3647 57.1722 36.3689 57.2223 36.3689 57.2223C36.3689 57.3058 36.3522 57.36 36.3188 57.3851C36.2937 57.4101 36.2562 57.4227 36.2061 57.4227C36.1727 57.4227 36.1393 57.4185 36.1059 57.4101C36.0725 57.4101 36.0349 57.406 35.9931 57.3976C35.9931 57.4978 36.0098 57.6064 36.0432 57.7233C36.085 57.8402 36.1309 57.9612 36.181 58.0865C36.2395 58.2201 36.2937 58.3495 36.3438 58.4748C36.3939 58.6 36.4315 58.7169 36.4566 58.8255C36.515 59.0927 36.5735 59.2847 36.6319 59.4016C36.6987 59.5185 36.7822 59.5979 36.8824 59.6396C36.9826 59.6814 37.1079 59.6981 37.2582 59.6897C37.4085 59.6897 37.6005 59.7022 37.8343 59.7273C37.9429 59.744 38.0598 59.7649 38.185 59.7899C38.3103 59.8233 38.423 59.8692 38.5232 59.9277C38.6234 59.9945 38.7069 60.0738 38.7737 60.1657C38.8405 60.2575 38.8739 60.3702 38.8739 60.5038C38.8739 60.7794 38.7904 60.9756 38.6234 61.0925C38.4648 61.2094 38.2602 61.2679 38.0097 61.2679C37.6673 61.2679 37.325 61.2428 36.9826 61.1927C36.6486 61.1426 36.3063 61.1176 35.9556 61.1176C35.5882 61.1176 35.2207 61.1385 34.8533 61.1802C34.4943 61.222 34.1352 61.2428 33.7762 61.2428C33.6843 61.2428 33.5549 61.2261 33.3879 61.1927C33.2292 61.1593 33.0664 61.1092 32.8994 61.0424C32.7408 60.984 32.5988 60.9088 32.4736 60.817C32.3567 60.7335 32.2982 60.6374 32.2982 60.5289C32.2982 60.4537 32.34 60.3786 32.4235 60.3034C32.5153 60.2366 32.6155 60.1782 32.7241 60.1281C32.841 60.078 32.9579 60.0362 33.0748 60.0028C33.1917 59.9778 33.2835 59.9653 33.3503 59.9653C33.5006 59.9653 33.6384 59.9402 33.7637 59.8901C33.8973 59.8484 34.0267 59.8024 34.1519 59.7523C34.2772 59.7022 34.4024 59.6521 34.5277 59.602C34.6529 59.5603 34.7865 59.5394 34.9285 59.5394C35.0036 59.2221 35.0496 58.9048 35.0663 58.5875C35.0913 58.2702 35.1038 57.9529 35.1038 57.6356C35.1038 57.4101 35.0997 57.1847 35.0913 56.9592C35.0913 56.7338 35.0913 56.5083 35.0913 56.2829C35.0913 55.8403 35.1205 55.4019 35.179 54.9677C35.2458 54.5335 35.2792 54.091 35.2792 53.6401C35.2792 53.3645 35.2667 53.089 35.2416 52.8134C35.2249 52.5379 35.2082 52.2623 35.1915 51.9867C35.1665 51.9533 35.1372 51.8448 35.1038 51.6611C35.0704 51.469 35.037 51.2603 35.0036 51.0348C34.9786 50.8094 34.9577 50.5965 34.941 50.3961C34.9243 50.1873 34.916 50.0495 34.916 49.9827C34.916 49.8909 34.9285 49.8115 34.9535 49.7447C34.9869 49.6696 35.0203 49.607 35.0537 49.5569C35.0871 49.4984 35.1164 49.4483 35.1414 49.4066C35.1748 49.3648 35.1915 49.3272 35.1915 49.2938C35.1915 49.2855 35.179 49.2563 35.1539 49.2062C35.1289 49.1561 35.0997 49.0934 35.0663 49.0183C35.0412 48.9431 35.0162 48.8596 34.9911 48.7678C34.9661 48.6759 34.9535 48.5841 34.9535 48.4922C34.9535 48.225 34.9828 47.9578 35.0412 47.6906C35.108 47.4234 35.1414 47.1562 35.1414 46.889C35.1414 46.53 35.012 46.2168 34.7531 45.9496C34.6279 45.8244 34.5277 45.7283 34.4525 45.6615C34.3774 45.5947 34.3022 45.5488 34.2271 45.5238C34.1519 45.4904 34.0643 45.4695 33.9641 45.4611C33.8639 45.4444 33.7261 45.4236 33.5507 45.3985C33.4589 45.3902 33.3294 45.3651 33.1624 45.3234C33.0038 45.2733 32.8451 45.2148 32.6865 45.148C32.5278 45.0812 32.3859 45.0019 32.2606 44.91C32.1437 44.8182 32.0853 44.718 32.0853 44.6094C32.0853 44.4675 32.1521 44.3464 32.2857 44.2462C32.4193 44.1377 32.5738 44.0542 32.7491 43.9957C32.9328 43.9289 33.1165 43.883 33.3002 43.8579C33.4839 43.8245 33.6301 43.8078 33.7386 43.8078C33.8555 43.8078 33.9724 43.8203 34.0893 43.8454C34.2062 43.8621 34.3064 43.9122 34.3899 43.9957C34.4818 43.9038 34.5945 43.8454 34.7281 43.8203C34.8617 43.7869 34.9911 43.7702 35.1164 43.7702C35.4754 43.7702 35.751 43.8245 35.943 43.9331C36.1351 44.0416 36.2854 44.1627 36.3939 44.2963C36.5108 44.4216 36.6027 44.5385 36.6695 44.647C36.7446 44.7556 36.8365 44.8098 36.945 44.8098C37.0118 44.8098 37.0745 44.7973 37.1329 44.7723C37.1997 44.7472 37.2665 44.718 37.3333 44.6846C37.5087 44.6011 37.7717 44.5009 38.1224 44.384C38.4731 44.2587 38.8447 44.1418 39.2371 44.0333C39.6296 43.9164 40.0054 43.8203 40.3644 43.7452C40.7235 43.67 40.9948 43.6325 41.1785 43.6325C41.2704 43.6325 41.3998 43.6575 41.5668 43.7076C41.7422 43.7494 41.9342 43.8078 42.143 43.883C42.3517 43.9498 42.5688 44.0333 42.7943 44.1335C43.0197 44.2253 43.2285 44.3214 43.4205 44.4216C43.6126 44.5218 43.7796 44.622 43.9216 44.7222C44.0635 44.814 44.1595 44.8975 44.2096 44.9727C44.3015 45.123 44.3975 45.2524 44.4977 45.3609C44.6063 45.4695 44.7482 45.553 44.9236 45.6114C44.9737 45.6782 45.0029 45.7492 45.0112 45.8244C45.0279 45.8995 45.0363 45.9788 45.0363 46.0623V46.3003C45.0363 46.4673 45.0655 46.5968 45.124 46.6886C45.1824 46.7805 45.245 46.8598 45.3118 46.9266C45.3786 46.985 45.4413 47.0435 45.4997 47.1019C45.5582 47.152 45.5874 47.2272 45.5874 47.3274C45.5874 47.3858 45.5707 47.4401 45.5373 47.4902C45.5039 47.532 45.4872 47.5779 45.4872 47.628C45.4872 47.7532 45.5164 47.8827 45.5749 48.0163C45.6333 48.1415 45.6959 48.2835 45.7627 48.4421C45.8295 48.5924 45.8922 48.7553 45.9506 48.9306C46.0091 49.106 46.0383 49.298 46.0383 49.5068ZM40.3018 44.1711C40.3018 44.1293 40.2809 44.0876 40.2392 44.0458C40.1974 44.004 40.1557 43.9832 40.1139 43.9832C40.0304 43.9832 39.9761 44.0291 39.9511 44.121C39.9344 44.2045 39.926 44.2796 39.926 44.3464C39.926 44.3297 39.9302 44.3214 39.9386 44.3214C39.9553 44.3214 39.9678 44.3255 39.9761 44.3339L39.926 44.3589C39.9845 44.3589 40.0596 44.3506 40.1515 44.3339C40.2517 44.3088 40.3018 44.2546 40.3018 44.1711ZM44.5603 49.895C44.5603 49.6445 44.5269 49.4024 44.4601 49.1686C44.3933 48.9264 44.3098 48.6968 44.2096 48.4797C44.1094 48.2542 43.9967 48.0371 43.8715 47.8284C43.7462 47.6196 43.6209 47.4151 43.4957 47.2147C43.4623 47.1646 43.4414 47.1103 43.4331 47.0518C43.4247 46.985 43.4205 46.9224 43.4205 46.864C43.4205 46.7972 43.4122 46.7345 43.3955 46.6761C43.3871 46.6093 43.3621 46.5508 43.3203 46.5007C43.2535 46.4256 43.1909 46.3838 43.1325 46.3755C43.074 46.3588 43.0156 46.3463 42.9571 46.3379C42.907 46.3296 42.8486 46.3087 42.7818 46.2753C42.7233 46.2419 42.6649 46.1667 42.6064 46.0498C42.5647 45.9747 42.4728 45.8912 42.3309 45.7993C42.1973 45.7075 42.047 45.6198 41.88 45.5363C41.7213 45.4528 41.5626 45.386 41.404 45.3359C41.2537 45.2774 41.1368 45.2482 41.0533 45.2482C40.8863 45.2482 40.7193 45.2858 40.5523 45.3609C40.3936 45.4277 40.2308 45.4611 40.0638 45.4611C39.9469 45.4611 39.8384 45.4403 39.7382 45.3985C39.6463 45.3568 39.5544 45.315 39.4626 45.2733C39.3791 45.2232 39.2914 45.1772 39.1996 45.1355C39.1077 45.0937 39.0117 45.0729 38.9115 45.0729H38.8489C38.8656 45.1564 38.8739 45.2232 38.8739 45.2733C38.8739 45.3484 38.8572 45.411 38.8238 45.4611C38.7904 45.5029 38.7445 45.5405 38.686 45.5739C38.6359 45.6073 38.5775 45.6407 38.5107 45.6741C38.4522 45.6991 38.398 45.7283 38.3479 45.7617C38.2727 45.8536 38.231 45.9454 38.2226 46.0373C38.2226 46.1291 38.1809 46.1751 38.0974 46.1751C38.0389 46.1751 37.993 46.1667 37.9596 46.15C37.9596 46.2085 37.9429 46.2502 37.9095 46.2753C37.8761 46.3003 37.8385 46.3212 37.7968 46.3379C37.755 46.3546 37.7133 46.3755 37.6715 46.4005C37.6298 46.4172 37.6047 46.4506 37.5963 46.5007C37.4878 46.5091 37.3876 46.5759 37.2957 46.7011C37.2039 46.818 37.1246 46.9683 37.0578 47.152C36.991 47.3357 36.9325 47.5403 36.8824 47.7658C36.8323 47.9912 36.7906 48.2125 36.7572 48.4296C36.7238 48.6384 36.6987 48.8346 36.682 49.0183C36.6653 49.1936 36.657 49.3272 36.657 49.4191C36.657 49.7197 36.6737 50.0203 36.7071 50.3209C36.7488 50.6132 36.7697 50.9096 36.7697 51.2102C36.7697 51.4356 36.7613 51.6611 36.7446 51.8865C36.7363 52.112 36.7238 52.3416 36.7071 52.5754C36.9158 52.8009 37.1162 53.0263 37.3083 53.2518C37.5003 53.4772 37.7007 53.6818 37.9095 53.8655C38.1266 54.0409 38.3646 54.1912 38.6234 54.3164C38.8823 54.4333 39.1829 54.4959 39.5252 54.5043C39.6588 54.5043 39.7924 54.521 39.926 54.5544C40.0596 54.5878 40.1932 54.6212 40.3268 54.6546C40.4604 54.688 40.5899 54.7214 40.7151 54.7548C40.8487 54.7799 40.9823 54.7924 41.1159 54.7924C41.2412 54.7924 41.3748 54.7673 41.5167 54.7172C41.6587 54.6588 41.7965 54.5878 41.9301 54.5043C42.072 54.4208 42.2056 54.3331 42.3309 54.2413C42.4561 54.1411 42.5605 54.045 42.644 53.9532C42.7108 53.878 42.7901 53.8238 42.882 53.7904C42.9822 53.757 43.0657 53.7069 43.1325 53.6401C43.1826 53.59 43.216 53.5357 43.2327 53.4772C43.2494 53.4188 43.2619 53.3603 43.2702 53.3019C43.2869 53.2434 43.3078 53.1892 43.3329 53.1391C43.3579 53.0806 43.408 53.0305 43.4832 52.9888C43.6418 52.9053 43.742 52.8468 43.7838 52.8134C43.8255 52.7717 43.8464 52.7007 43.8464 52.6005V52.3625C43.8464 52.279 43.8673 52.2205 43.909 52.1871C43.9508 52.1454 43.9967 52.1078 44.0468 52.0744C44.0969 52.0327 44.1428 51.9826 44.1846 51.9241C44.2263 51.8573 44.2472 51.7488 44.2472 51.5985C44.2472 51.4899 44.2389 51.3855 44.2222 51.2853C44.2055 51.1768 44.1971 51.0682 44.1971 50.9597C44.1971 50.8511 44.2138 50.7509 44.2472 50.6591C44.289 50.5672 44.3307 50.4796 44.3725 50.3961C44.4226 50.3125 44.4643 50.2332 44.4977 50.1581C44.5395 50.0746 44.5603 49.9869 44.5603 49.895Z" fill="#2B2B2B"/>
<path d="M61.6071 46.4632C61.6071 46.6302 61.5737 46.7721 61.5069 46.889C61.4401 47.0059 61.3649 47.1186 61.2814 47.2272C61.2063 47.3274 61.1269 47.4318 61.0434 47.5403C60.9683 47.6489 60.9182 47.7783 60.8931 47.9286C60.818 47.8952 60.7386 47.8743 60.6551 47.866C60.58 47.8576 60.5007 47.8534 60.4172 47.8534C60.2168 47.8534 60.0164 47.8701 59.816 47.9035C59.6239 47.9286 59.4319 47.9411 59.2398 47.9411C59.0144 47.9411 58.8265 47.8743 58.6762 47.7407C58.5342 47.5988 58.4173 47.4276 58.3255 47.2272C58.242 47.0268 58.1835 46.8139 58.1501 46.5884C58.1167 46.3546 58.1 46.1458 58.1 45.9621C58.1 45.7283 58.1376 45.4904 58.2127 45.2482C58.1459 45.2232 58.0875 45.2106 58.0374 45.2106C57.9288 45.2106 57.8495 45.244 57.7994 45.3108C57.7577 45.3776 57.695 45.411 57.6115 45.411C57.5364 45.411 57.4696 45.386 57.4111 45.3359C57.3527 45.2774 57.2817 45.2482 57.1982 45.2482C57.073 45.2482 56.9143 45.29 56.7222 45.3735C56.5385 45.4486 56.359 45.5488 56.1837 45.6741C56.0083 45.7993 55.8538 45.9371 55.7202 46.0874C55.595 46.2294 55.5324 46.3671 55.5324 46.5007C55.357 46.5174 55.19 46.5675 55.0314 46.651C54.8811 46.7262 54.7349 46.8097 54.593 46.9015C54.4844 46.9683 54.3926 47.0727 54.3174 47.2147C54.2423 47.3566 54.1713 47.5111 54.1045 47.6781C54.046 47.8367 53.9834 47.9996 53.9166 48.1666C53.8582 48.3336 53.7872 48.4714 53.7037 48.5799C53.5617 48.7636 53.4365 48.9515 53.3279 49.1435C53.2277 49.3272 53.1776 49.536 53.1776 49.7698C53.1776 50.062 53.2236 50.3585 53.3154 50.6591C53.4073 50.9597 53.4532 51.2645 53.4532 51.5734C53.4532 51.7738 53.4365 51.9742 53.4031 52.1746C53.378 52.375 53.3655 52.5713 53.3655 52.7633C53.3655 52.9971 53.4073 53.185 53.4908 53.3269C53.5743 53.4689 53.687 53.5816 53.8289 53.6651C53.9709 53.7403 54.1337 53.7904 54.3174 53.8154C54.5011 53.8405 54.689 53.853 54.8811 53.853C55.0898 53.853 55.2902 53.8488 55.4823 53.8405C55.6827 53.8238 55.8664 53.8154 56.0334 53.8154C56.0918 53.8822 56.1252 53.9448 56.1336 54.0033C56.1419 54.0617 56.1377 54.1244 56.121 54.1912C56.1127 54.2496 56.096 54.3122 56.0709 54.379C56.0542 54.4375 56.0459 54.5085 56.0459 54.592C56.0459 54.6254 56.0542 54.6671 56.0709 54.7172C56.1962 54.7172 56.3047 54.688 56.3966 54.6296C56.4884 54.5711 56.5552 54.4792 56.597 54.354C56.6555 54.3707 56.7055 54.3957 56.7473 54.4291C56.7974 54.4625 56.8225 54.5126 56.8225 54.5795C56.8225 54.6296 56.8099 54.6797 56.7849 54.7298C56.7598 54.7715 56.7306 54.8133 56.6972 54.855C56.6638 54.8968 56.6346 54.9427 56.6095 54.9928C56.5845 55.0345 56.5719 55.0846 56.5719 55.1431C56.5719 55.1765 56.5761 55.2141 56.5845 55.2558C56.5928 55.2892 56.6053 55.3184 56.622 55.3435C56.5803 55.4103 56.5218 55.4562 56.4467 55.4813C56.3715 55.5063 56.2964 55.5188 56.2212 55.5188C56.0876 55.5188 55.9749 55.498 55.8831 55.4562C55.7996 55.4145 55.7202 55.3685 55.6451 55.3184C55.5783 55.2683 55.5157 55.2224 55.4572 55.1807C55.3988 55.1389 55.3278 55.118 55.2443 55.118C55.2109 55.118 55.1608 55.1264 55.094 55.1431C55.0272 55.1598 54.9604 55.1807 54.8936 55.2057C54.8268 55.2308 54.7683 55.2642 54.7182 55.3059C54.6681 55.3393 54.6431 55.3727 54.6431 55.4061C54.6431 55.4729 54.6639 55.5314 54.7057 55.5815C54.7558 55.6316 54.7809 55.69 54.7809 55.7568C54.7809 55.8153 54.76 55.8612 54.7182 55.8946C54.6765 55.928 54.6264 55.9489 54.5679 55.9572C54.5095 55.9739 54.4468 55.9823 54.38 55.9823C54.3216 55.9906 54.2715 55.9948 54.2297 55.9948C53.9041 55.9948 53.5784 55.9572 53.2528 55.8821C52.9355 55.8153 52.614 55.7819 52.2883 55.7819C52.138 55.7819 51.9877 55.8153 51.8374 55.8821C51.6871 55.9489 51.5285 55.9823 51.3615 55.9823C51.2696 55.9823 51.1987 55.9614 51.1486 55.9196C51.1068 55.8862 51.0692 55.8445 51.0358 55.7944C51.0024 55.7443 50.9649 55.6984 50.9231 55.6566C50.8814 55.6232 50.8187 55.6065 50.7352 55.6065C50.5766 55.6065 50.4179 55.6232 50.2593 55.6566C50.109 55.69 49.9545 55.7234 49.7958 55.7568C49.6455 55.7986 49.4911 55.832 49.3324 55.857C49.1821 55.8904 49.0276 55.9071 48.869 55.9071C48.7855 55.9071 48.6853 55.8946 48.5684 55.8695C48.4515 55.8528 48.3388 55.8194 48.2302 55.7693C48.1216 55.7192 48.0298 55.6566 47.9546 55.5815C47.8795 55.5063 47.8419 55.4145 47.8419 55.3059C47.8419 55.2391 47.8795 55.1514 47.9546 55.0429C48.0381 54.9343 48.13 54.83 48.2302 54.7298C48.3304 54.6212 48.4306 54.5293 48.5308 54.4542C48.631 54.379 48.7062 54.3415 48.7563 54.3415C48.8899 54.3415 49.0193 54.3456 49.1445 54.354C49.2781 54.3623 49.4159 54.3665 49.5579 54.3665C49.7833 54.3665 50.0088 54.3331 50.2342 54.2663C50.468 54.1912 50.6768 54.0868 50.8605 53.9532C51.0525 53.8196 51.207 53.6526 51.3239 53.4522C51.4408 53.2518 51.4993 53.0263 51.4993 52.7758C51.4993 52.6673 51.4909 52.5629 51.4742 52.4627C51.4575 52.3541 51.4492 52.2456 51.4492 52.137C51.4492 51.9199 51.4742 51.7028 51.5243 51.4857C51.5744 51.2686 51.5995 51.0515 51.5995 50.8344C51.5995 50.5422 51.5661 50.2457 51.4993 49.9451C51.4408 49.6362 51.4116 49.3272 51.4116 49.0183C51.4116 48.7427 51.4158 48.4714 51.4241 48.2041C51.4408 47.9286 51.4492 47.653 51.4492 47.3775C51.4492 47.2522 51.445 47.0685 51.4366 46.8264C51.4283 46.5842 51.3991 46.3421 51.349 46.0999C51.3072 45.8578 51.2362 45.6448 51.136 45.4611C51.0442 45.2774 50.9148 45.1856 50.7478 45.1856C50.5641 45.1856 50.3804 45.2065 50.1966 45.2482C50.0129 45.29 49.8251 45.3108 49.633 45.3108C49.4911 45.3108 49.3241 45.3025 49.132 45.2858C48.94 45.2607 48.7563 45.219 48.5809 45.1605C48.4056 45.0937 48.2553 45.0019 48.13 44.885C48.0047 44.7681 47.9421 44.6136 47.9421 44.4216C47.9421 44.2128 47.9713 44.0458 48.0298 43.9205C48.0882 43.7869 48.1634 43.6867 48.2553 43.6199C48.3555 43.5531 48.4682 43.5072 48.5934 43.4822C48.727 43.4571 48.869 43.4446 49.0193 43.4446C49.1529 43.4446 49.2907 43.4488 49.4326 43.4571C49.5746 43.4655 49.7123 43.4696 49.8459 43.4696C50.1131 43.4696 50.3762 43.4571 50.635 43.4321C50.9022 43.3987 51.1694 43.382 51.4366 43.382C51.6203 43.382 51.804 43.3903 51.9877 43.407C52.1714 43.4237 52.351 43.4613 52.5263 43.5197C52.685 43.5698 52.8019 43.6659 52.877 43.8078C52.9522 43.9414 53.019 44.0792 53.0774 44.2212C53.1442 44.3631 53.2194 44.4925 53.3029 44.6094C53.3864 44.718 53.52 44.7723 53.7037 44.7723C53.7872 44.7723 53.8623 44.7514 53.9291 44.7096C54.0043 44.6595 54.0753 44.6053 54.1421 44.5468C54.2089 44.4884 54.2757 44.4341 54.3425 44.384C54.4093 44.3339 54.4886 44.3005 54.5804 44.2838C54.7642 44.2587 54.9312 44.2003 55.0815 44.1084C55.2401 44.0166 55.3946 43.9247 55.5449 43.8329C55.6952 43.741 55.8455 43.6575 55.9958 43.5824C56.1544 43.5072 56.3256 43.4696 56.5093 43.4696C56.6179 43.4696 56.7515 43.4571 56.9101 43.4321C57.0771 43.407 57.24 43.3736 57.3986 43.3319C57.5656 43.2818 57.7201 43.2233 57.862 43.1565C58.0123 43.0897 58.1292 43.0146 58.2127 42.9311C58.4382 42.9478 58.7012 43.002 59.0018 43.0939C59.3108 43.1857 59.603 43.311 59.8786 43.4696C60.1625 43.6199 60.4088 43.7995 60.6176 44.0082C60.8263 44.217 60.9474 44.4508 60.9808 44.7096C61.0059 44.8683 61.0518 45.0186 61.1186 45.1605C61.1854 45.3025 61.2522 45.4444 61.319 45.5864C61.3941 45.72 61.4609 45.8619 61.5194 46.0122C61.5778 46.1542 61.6071 46.3045 61.6071 46.4632Z" fill="#2B2B2B"/>
<path d="M75.8857 50.1205C75.8857 50.2374 75.8649 50.3501 75.8231 50.4587C75.7897 50.5589 75.748 50.6466 75.6979 50.7217C75.6561 50.7969 75.6144 50.8595 75.5726 50.9096C75.5392 50.9597 75.5225 50.9889 75.5225 50.9973C75.5225 51.0808 75.5476 51.1684 75.5977 51.2603C75.6561 51.3521 75.6853 51.4523 75.6853 51.5609C75.6853 51.611 75.6645 51.6444 75.6227 51.6611C75.5893 51.6778 75.5517 51.6861 75.51 51.6861C75.4348 51.6861 75.3722 51.6778 75.3221 51.6611C75.3304 51.8197 75.343 51.9742 75.3597 52.1245C75.3847 52.2748 75.3972 52.4293 75.3972 52.588C75.3972 52.8301 75.3722 52.9888 75.3221 53.0639C75.2803 53.1307 75.2344 53.1725 75.1843 53.1892C75.1342 53.2059 75.0841 53.2267 75.034 53.2518C74.9923 53.2685 74.9714 53.3436 74.9714 53.4772C74.9714 53.5524 74.9171 53.6484 74.8086 53.7653C74.7084 53.8822 74.5831 53.9991 74.4328 54.116C74.2909 54.2329 74.1406 54.3331 73.9819 54.4166C73.8316 54.5001 73.7105 54.5419 73.6187 54.5419C73.5936 54.5419 73.5644 54.5335 73.531 54.5168C73.531 54.5836 73.5352 54.6546 73.5435 54.7298C73.5519 54.8049 73.5561 54.8759 73.5561 54.9427C73.5561 55.0512 73.5226 55.1264 73.4558 55.1681C73.389 55.2015 73.3139 55.2349 73.2304 55.2683C73.1051 55.3268 72.9757 55.4145 72.8421 55.5314C72.7085 55.6399 72.5707 55.7526 72.4288 55.8695C72.2868 55.9864 72.1407 56.0866 71.9904 56.1701C71.8485 56.262 71.6982 56.3079 71.5395 56.3079C71.4059 56.3079 71.2807 56.2745 71.1637 56.2077C71.0552 56.1409 70.9258 56.1075 70.7755 56.1075C70.6419 56.1075 70.5291 56.1242 70.4373 56.1576C70.3454 56.1994 70.2578 56.2411 70.1743 56.2829C70.0991 56.333 70.0198 56.3747 69.9363 56.4081C69.8528 56.4499 69.7568 56.4707 69.6482 56.4707C69.4311 56.4707 69.214 56.4123 68.9969 56.2954C68.7798 56.1868 68.571 56.0992 68.3706 56.0324C68.2537 55.9906 68.1285 55.9572 67.9949 55.9322C67.8613 55.9155 67.7319 55.8946 67.6066 55.8695C67.4814 55.8445 67.3603 55.8027 67.2434 55.7443C67.1348 55.6942 67.0388 55.619 66.9553 55.5188C66.7799 55.3017 66.5754 55.1222 66.3416 54.9803C66.1078 54.8383 65.8698 54.7047 65.6276 54.5795C65.3855 54.4542 65.1517 54.3248 64.9262 54.1912C64.7008 54.0492 64.5045 53.8655 64.3375 53.6401C64.2123 53.4647 64.0703 53.2768 63.9117 53.0764C63.753 52.8677 63.6027 52.6506 63.4608 52.4251C63.3272 52.1997 63.2145 51.97 63.1226 51.7362C63.0308 51.5024 62.9848 51.2728 62.9848 51.0474C62.9848 50.8804 63.0015 50.7175 63.0349 50.5589C63.0683 50.4002 63.1017 50.2416 63.1351 50.0829C63.1769 49.9159 63.2145 49.7531 63.2479 49.5944C63.2813 49.4358 63.298 49.273 63.298 49.106V48.9682C63.298 48.9348 63.2854 48.8972 63.2604 48.8555C63.2353 48.8137 63.2061 48.7761 63.1727 48.7427C63.1477 48.701 63.1184 48.6676 63.085 48.6425C63.06 48.6091 63.0433 48.5924 63.0349 48.5924C63.0182 48.5924 63.0099 48.5966 63.0099 48.605C63.0182 48.5298 63.0391 48.4171 63.0725 48.2668C63.1143 48.1081 63.1602 47.9495 63.2103 47.7908C63.2604 47.6238 63.3105 47.4735 63.3606 47.3399C63.4107 47.198 63.4566 47.1061 63.4984 47.0644C63.5485 47.0226 63.5944 46.9809 63.6361 46.9391C63.6862 46.889 63.7113 46.8264 63.7113 46.7512C63.7113 46.6761 63.7071 46.6051 63.6988 46.5383C63.6904 46.4632 63.6862 46.388 63.6862 46.3129C63.6862 46.2127 63.6988 46.1542 63.7238 46.1375C63.7489 46.1124 63.7823 46.0999 63.824 46.0999C63.8658 46.0999 63.9075 46.0957 63.9493 46.0874C63.991 46.0707 64.0328 46.0248 64.0745 45.9496C64.1497 45.7993 64.2206 45.6615 64.2874 45.5363C64.3626 45.4027 64.4419 45.2816 64.5254 45.1731C64.6089 45.0645 64.7049 44.9643 64.8135 44.8725C64.9221 44.7806 65.0557 44.6929 65.2143 44.6094C65.3479 44.5343 65.4773 44.4424 65.6026 44.3339C65.7362 44.2253 65.8698 44.1168 66.0034 44.0082C66.137 43.8997 66.2706 43.8078 66.4042 43.7327C66.5461 43.6575 66.6964 43.6199 66.8551 43.6199C67.0805 43.6199 67.2977 43.5824 67.5064 43.5072C67.7235 43.4237 67.9406 43.3611 68.1577 43.3193C68.5001 43.2692 68.8382 43.2233 69.1722 43.1816C69.5146 43.1315 69.8611 43.1064 70.2118 43.1064C70.4039 43.1064 70.6377 43.1398 70.9132 43.2066C71.1888 43.2651 71.4685 43.3444 71.7524 43.4446C72.0447 43.5448 72.3161 43.6575 72.5666 43.7828C72.8254 43.908 73.03 44.0333 73.1803 44.1585V44.1961C73.1803 44.313 73.1594 44.4341 73.1177 44.5593C73.0759 44.6762 73.055 44.7931 73.055 44.91C73.055 44.9267 73.055 44.9434 73.055 44.9601C73.055 44.9768 73.0634 44.9852 73.0801 44.9852C73.222 44.9852 73.3556 44.9685 73.4809 44.9351C73.6145 44.8933 73.7523 44.8725 73.8942 44.8725C73.9109 45.0144 73.9736 45.1104 74.0821 45.1605C74.1907 45.2106 74.2992 45.2566 74.4078 45.2983C74.508 45.3484 74.5998 45.4403 74.6833 45.5739C74.7752 45.6991 74.8587 45.8452 74.9338 46.0122C75.009 46.1709 75.0799 46.3296 75.1467 46.4882C75.2219 46.6469 75.2929 46.7763 75.3597 46.8765C75.4265 46.9767 75.4849 47.0978 75.535 47.2397C75.5935 47.3733 75.6394 47.5153 75.6728 47.6656C75.7146 47.8159 75.7438 47.9662 75.7605 48.1165C75.7772 48.2584 75.7855 48.392 75.7855 48.5173C75.7855 48.6843 75.7521 48.8262 75.6853 48.9431C75.6269 49.0517 75.5601 49.1519 75.4849 49.2437C75.4098 49.3272 75.3388 49.4107 75.272 49.4942C75.2135 49.5694 75.1843 49.6571 75.1843 49.7573C75.1843 49.8157 75.1968 49.87 75.2219 49.9201C75.2469 49.9702 75.2803 50.0161 75.3221 50.0579C75.3388 50.0495 75.3722 50.0412 75.4223 50.0328C75.4807 50.0245 75.51 49.9994 75.51 49.9577V49.9451C75.51 49.8783 75.4807 49.8157 75.4223 49.7573C75.3722 49.6988 75.3471 49.6278 75.3471 49.5443C75.3471 49.5276 75.3555 49.5026 75.3722 49.4692C75.3889 49.4274 75.4098 49.4066 75.4348 49.4066C75.4849 49.4066 75.535 49.44 75.5851 49.5068C75.6352 49.5652 75.6811 49.632 75.7229 49.7072C75.773 49.774 75.8106 49.8324 75.8356 49.8825C75.8607 49.9326 75.8732 49.9493 75.8732 49.9326L75.8607 49.9201C75.869 49.9618 75.8732 49.9994 75.8732 50.0328C75.8816 50.0579 75.8857 50.0871 75.8857 50.1205ZM74.6332 50.2207C74.6332 50.0871 74.5831 50.0078 74.4829 49.9827C74.3827 49.9493 74.27 49.9284 74.1447 49.9201C74.0195 49.9117 73.8942 49.8992 73.769 49.8825C73.6521 49.8658 73.5728 49.8032 73.531 49.6946V49.5694C73.531 49.3857 73.5059 49.1728 73.4558 48.9306C73.4141 48.6801 73.3598 48.4296 73.293 48.1791C73.2262 47.9202 73.1552 47.6697 73.0801 47.4276C73.0049 47.1771 72.934 46.9558 72.8672 46.7638C72.8004 46.5717 72.7461 46.4172 72.7043 46.3003C72.6626 46.1834 72.6417 46.125 72.6417 46.125C72.5749 46.1417 72.5206 46.15 72.4789 46.15C72.3369 46.15 72.2117 46.1208 72.1031 46.0623C72.0029 46.0039 71.886 45.9413 71.7524 45.8745C71.6272 45.8077 71.4685 45.745 71.2765 45.6866C71.0928 45.6281 70.8464 45.5989 70.5375 45.5989C70.1951 45.5989 69.857 45.578 69.523 45.5363C69.1889 45.4862 68.8508 45.4611 68.5084 45.4611C68.0408 45.4611 67.6024 45.5697 67.1933 45.7868C66.7841 45.9955 66.4251 46.2753 66.1161 46.626C65.8072 46.9683 65.565 47.3566 65.3897 47.7908C65.2143 48.225 65.1266 48.6634 65.1266 49.106C65.1266 49.2897 65.1308 49.5068 65.1392 49.7573C65.1475 49.9994 65.1684 50.2457 65.2018 50.4963C65.2352 50.7384 65.2895 50.968 65.3646 51.1851C65.4398 51.3939 65.5441 51.5525 65.6777 51.6611V52.0118C65.7111 52.0452 65.7529 52.0661 65.803 52.0744C65.8614 52.0744 65.9157 52.0744 65.9658 52.0744C66.0243 52.0744 66.0744 52.0828 66.1161 52.0995C66.1579 52.1078 66.1913 52.1412 66.2163 52.1997C66.3249 52.5086 66.4668 52.7466 66.6422 52.9136C66.8175 53.0723 67.0054 53.21 67.2058 53.3269C67.4062 53.4355 67.6066 53.5482 67.807 53.6651C68.0074 53.7737 68.1911 53.9365 68.3581 54.1536C68.4249 54.1452 68.4959 54.1411 68.571 54.1411C68.6462 54.1327 68.7172 54.1285 68.784 54.1285C69.0512 54.1285 69.31 54.1494 69.5605 54.1912C69.8194 54.2246 70.0782 54.2413 70.3371 54.2413C70.6126 54.2413 70.859 54.1703 71.0761 54.0283C71.3015 53.8864 71.4936 53.7069 71.6522 53.4898C71.7524 53.3478 71.8443 53.2267 71.9278 53.1265C72.0113 53.0263 72.0948 52.9345 72.1783 52.851C72.2701 52.7591 72.3662 52.6756 72.4664 52.6005C72.5749 52.517 72.7002 52.4251 72.8421 52.3249C72.8922 52.2915 72.9507 52.2498 73.0175 52.1997C73.0926 52.1496 73.1636 52.0953 73.2304 52.0368C73.3055 51.97 73.3682 51.9074 73.4183 51.849C73.4684 51.7822 73.4934 51.7195 73.4934 51.6611C73.4934 51.5859 73.4809 51.5108 73.4558 51.4356C73.4391 51.3605 73.4308 51.2853 73.4308 51.2102C73.4308 51.1267 73.4433 51.0265 73.4684 50.9096C73.4934 50.7927 73.531 50.68 73.5811 50.5714C73.6396 50.4629 73.7064 50.3752 73.7815 50.3084C73.865 50.2332 73.9652 50.1956 74.0821 50.1956C74.174 50.1956 74.2658 50.2165 74.3577 50.2583C74.4495 50.3 74.533 50.3501 74.6082 50.4086C74.6249 50.3251 74.6332 50.2624 74.6332 50.2207Z" fill="#2B2B2B"/>
<path d="M92.9325 54.8174C92.9325 54.9677 92.8824 55.1264 92.7822 55.2934C92.6903 55.4604 92.5692 55.6107 92.4189 55.7443C92.277 55.8862 92.1225 56.0031 91.9555 56.095C91.7885 56.1868 91.6298 56.2328 91.4795 56.2328C91.2207 56.2328 90.966 56.2119 90.7155 56.1701C90.465 56.1284 90.2062 56.1075 89.9389 56.1075C89.8137 56.1075 89.6676 56.0992 89.5006 56.0825C89.3419 56.0658 89.2292 56.024 89.1624 55.9572C88.9703 55.9238 88.8284 55.8487 88.7365 55.7318C88.6447 55.6232 88.5612 55.5021 88.486 55.3685C88.4192 55.2349 88.3441 55.1055 88.2606 54.9803C88.1854 54.855 88.0685 54.7673 87.9099 54.7172C87.4339 54.926 87.0122 55.1264 86.6448 55.3184C86.2858 55.5105 85.9267 55.6775 85.5677 55.8194C85.217 55.9697 84.837 56.0866 84.4279 56.1701C84.0271 56.262 83.5469 56.3079 82.9875 56.3079C82.7453 56.3079 82.57 56.2954 82.4614 56.2703C82.3612 56.2453 82.2819 56.2035 82.2235 56.1451C82.1734 56.095 82.1232 56.024 82.0731 55.9322C82.0314 55.8403 81.9479 55.7276 81.8227 55.594C81.7559 55.5272 81.689 55.4896 81.6222 55.4813C81.5638 55.4646 81.5053 55.4562 81.4469 55.4562H81.3843C81.3091 55.4562 81.2381 55.4437 81.1713 55.4186C81.1129 55.3852 81.067 55.3017 81.0336 55.1681C81.0085 55.0679 80.9584 54.9552 80.8833 54.83C80.8081 54.6964 80.7204 54.5627 80.6202 54.4291C80.5284 54.2955 80.4324 54.1745 80.3322 54.0659C80.232 53.9574 80.1401 53.8739 80.0566 53.8154L80.0441 52.5754C80.0357 51.7404 80.0608 50.9138 80.1192 50.0954C80.1777 49.2771 80.2069 48.4505 80.2069 47.6155C80.2069 47.4902 80.2027 47.319 80.1944 47.1019C80.186 46.8765 80.1652 46.651 80.1318 46.4256C80.1067 46.2001 80.0566 45.9997 79.9814 45.8244C79.9146 45.6407 79.8186 45.5321 79.6934 45.4987C79.5013 45.457 79.3051 45.4403 79.1047 45.4486C78.9126 45.4486 78.7206 45.4444 78.5285 45.4361C78.3365 45.4277 78.1486 45.3985 77.9649 45.3484C77.7895 45.2983 77.6225 45.1898 77.4639 45.0228C77.372 44.9309 77.2844 44.8182 77.2009 44.6846C77.1257 44.551 77.0881 44.4132 77.0881 44.2713C77.0881 44.0625 77.1758 43.8871 77.3512 43.7452C77.5349 43.5949 77.752 43.4738 78.0025 43.382C78.253 43.2901 78.5077 43.2233 78.7665 43.1816C79.0254 43.1398 79.2341 43.1189 79.3928 43.1189C79.852 43.1189 80.2862 43.1899 80.6954 43.3319C81.1129 43.4655 81.4928 43.6867 81.8352 43.9957C81.8519 44.0124 81.8602 44.0291 81.8602 44.0458C81.8602 44.0541 81.856 44.0625 81.8477 44.0708C81.8644 44.313 81.8978 44.5552 81.9479 44.7973C81.998 45.0311 82.0231 45.2691 82.0231 45.5112C82.0231 45.6448 82.0022 45.7701 81.9604 45.887C81.927 46.0039 81.9103 46.1333 81.9103 46.2753C81.9103 46.4172 81.927 46.5592 81.9604 46.7011C81.9938 46.8431 82.0105 46.985 82.0105 47.127C82.0105 47.2188 82.0022 47.3107 81.9855 47.4025C81.9688 47.4944 81.9604 47.5862 81.9604 47.6781C81.9604 47.9369 81.9896 48.1916 82.0481 48.4421C82.1066 48.6843 82.1358 48.9348 82.1358 49.1936C82.1358 49.4191 82.1107 49.6404 82.0606 49.8575C82.0105 50.0662 81.9521 50.2791 81.8853 50.4963C81.8268 50.7134 81.7725 50.9305 81.7224 51.1476C81.6723 51.3563 81.6473 51.5734 81.6473 51.7989C81.6473 52.1078 81.7099 52.3959 81.8352 52.6631C81.9604 52.9303 82.1274 53.1641 82.3362 53.3645C82.5449 53.5566 82.7829 53.711 83.0501 53.8279C83.3257 53.9365 83.6137 53.9908 83.9144 53.9908C84.1732 53.9908 84.382 53.9657 84.5406 53.9156C84.7076 53.8572 84.8412 53.7945 84.9414 53.7277C85.0416 53.6609 85.1209 53.6025 85.1794 53.5524C85.2462 53.4939 85.313 53.4647 85.3798 53.4647C85.4466 53.4647 85.505 53.4731 85.5551 53.4898C85.6136 53.4981 85.672 53.5023 85.7305 53.5023C85.8474 53.5023 85.9434 53.4772 86.0186 53.4271C86.0937 53.377 86.1605 53.3186 86.219 53.2518C86.2858 53.185 86.3484 53.1224 86.4069 53.0639C86.4737 52.9971 86.5572 52.9512 86.6574 52.9261C86.8494 52.8844 87.0164 52.8301 87.1584 52.7633C87.3003 52.6882 87.3713 52.5379 87.3713 52.3124C87.3713 52.2706 87.3755 52.2331 87.3838 52.1997C87.4005 52.1663 87.4423 52.1496 87.5091 52.1496C87.5508 52.1496 87.58 52.1621 87.5967 52.1871C87.6218 52.2038 87.6552 52.2205 87.6969 52.2372C87.7387 52.2038 87.7679 52.1579 87.7846 52.0995C87.8013 52.041 87.818 51.9909 87.8347 51.9492C87.8765 51.7989 87.9516 51.6653 88.0602 51.5484C88.1771 51.4315 88.2439 51.2979 88.2606 51.1476C88.2773 50.9806 88.319 50.8261 88.3858 50.6841C88.4526 50.5422 88.486 50.3919 88.486 50.2332C88.486 50.0913 88.4485 49.966 88.3733 49.8575C88.2982 49.7489 88.2606 49.6195 88.2606 49.4692C88.2606 49.3022 88.2898 49.1352 88.3483 48.9682C88.4151 48.8012 88.4485 48.6342 88.4485 48.4672C88.3984 48.4004 88.3483 48.3252 88.2982 48.2417C88.2564 48.1582 88.2355 48.0747 88.2355 47.9912C88.2355 47.8493 88.2606 47.7574 88.3107 47.7157C88.3608 47.6656 88.3858 47.6155 88.3858 47.5654C88.3858 47.4902 88.365 47.4151 88.3232 47.3399C88.2898 47.2564 88.2481 47.1771 88.198 47.1019C88.1479 47.0268 88.1019 46.9516 88.0602 46.8765C88.0268 46.8013 88.0101 46.722 88.0101 46.6385C88.0101 46.555 88.0226 46.4757 88.0477 46.4005C88.0811 46.317 88.0977 46.2294 88.0977 46.1375C88.0977 46.0039 88.0644 45.887 87.9976 45.7868C87.9391 45.6782 87.8598 45.5906 87.7596 45.5238C87.6677 45.4486 87.5592 45.3943 87.4339 45.3609C87.317 45.3192 87.2001 45.29 87.0832 45.2733C86.8745 45.2482 86.6949 45.2357 86.5446 45.2357C86.3943 45.2357 86.2607 45.219 86.1438 45.1856C86.0353 45.1438 85.9309 45.0729 85.8307 44.9727C85.7388 44.8725 85.6428 44.7096 85.5426 44.4842C85.4842 44.3506 85.4549 44.2379 85.4549 44.146C85.4549 43.9456 85.5426 43.7869 85.718 43.67C85.9017 43.5448 86.1146 43.4529 86.3568 43.3945C86.5989 43.3277 86.8411 43.2859 87.0832 43.2692C87.3337 43.2442 87.5299 43.2317 87.6719 43.2317C87.8055 43.2317 87.9349 43.2442 88.0602 43.2692C88.1938 43.2859 88.3274 43.2943 88.461 43.2943C88.6029 43.2943 88.7407 43.2692 88.8743 43.2191C89.0163 43.1607 89.1582 43.1315 89.3002 43.1315C89.5006 43.1315 89.6634 43.1899 89.7886 43.3068C89.9139 43.4154 90.0099 43.5615 90.0767 43.7452C90.1519 43.9205 90.202 44.1251 90.227 44.3589C90.2521 44.5844 90.2646 44.814 90.2646 45.0478C90.2646 45.3568 90.2521 45.649 90.227 45.9246C90.2103 46.2001 90.202 46.4214 90.202 46.5884C90.202 46.9475 90.2354 47.2856 90.3022 47.6029C90.3773 47.9119 90.4149 48.2 90.4149 48.4672C90.4149 48.5507 90.394 48.6342 90.3523 48.7177C90.3189 48.8012 90.2813 48.8847 90.2395 48.9682C90.1978 49.0517 90.156 49.1352 90.1143 49.2187C90.0809 49.3022 90.0642 49.3857 90.0642 49.4692C90.0642 49.536 90.0767 49.5944 90.1018 49.6445L90.1895 50.371C90.1477 50.4044 90.1226 50.4462 90.1143 50.4963C90.1059 50.5464 90.1018 50.5923 90.1018 50.634C90.1018 50.7676 90.1143 50.9012 90.1394 51.0348C90.1728 51.1601 90.1895 51.2937 90.1895 51.4356C90.1895 51.5943 90.1728 51.7529 90.1394 51.9116C90.106 52.0619 90.0892 52.2164 90.0892 52.375C90.0892 52.7591 90.2187 53.0556 90.4775 53.2643C90.7447 53.4647 91.0579 53.5649 91.4169 53.5649C91.6173 53.5649 91.8177 53.5315 92.0181 53.4647C92.0766 53.59 92.1559 53.7027 92.2561 53.8029C92.3647 53.8947 92.469 53.9866 92.5692 54.0784C92.6694 54.1703 92.7529 54.2747 92.8197 54.3916C92.8949 54.5085 92.9325 54.6504 92.9325 54.8174Z" fill="#2B2B2B"/>
<path d="M105.833 51.1601C105.833 51.4273 105.804 51.682 105.746 51.9241C105.687 52.1579 105.62 52.3917 105.545 52.6255C105.47 52.851 105.391 53.0848 105.307 53.3269C105.232 53.5607 105.174 53.8029 105.132 54.0534C105.057 54.4709 104.906 54.8174 104.681 55.093C104.456 55.3685 104.184 55.5856 103.867 55.7443C103.55 55.9113 103.195 56.0324 102.802 56.1075C102.418 56.191 102.022 56.2536 101.612 56.2954C101.203 56.3371 100.798 56.3664 100.397 56.3831C100.005 56.3998 99.6418 56.429 99.3078 56.4707C99.1825 56.3789 99.0781 56.2787 98.9946 56.1701C98.9111 56.0616 98.8318 55.9572 98.7566 55.857C98.6815 55.7652 98.598 55.6858 98.5061 55.619C98.4143 55.5606 98.2932 55.5314 98.1429 55.5314C98.0928 55.5314 98.0511 55.4646 98.0177 55.331C97.9926 55.189 97.9676 55.0345 97.9425 54.8675C97.9175 54.6922 97.8882 54.5377 97.8548 54.4041C97.8298 54.2621 97.7922 54.1912 97.7421 54.1912C97.5501 54.1912 97.3956 54.1494 97.2787 54.0659C97.1701 53.9824 97.0824 53.878 97.0156 53.7528C96.9572 53.6192 96.9154 53.4731 96.8904 53.3144C96.8737 53.1558 96.8653 53.0013 96.8653 52.851C96.8653 52.7341 96.8403 52.6255 96.7902 52.5253C96.7401 52.4251 96.6858 52.3291 96.6274 52.2372C96.5689 52.137 96.5146 52.0368 96.4645 51.9366C96.4144 51.8364 96.3894 51.7321 96.3894 51.6235C96.3894 51.4983 96.3936 51.3438 96.4019 51.1601C96.4186 50.968 96.4311 50.7718 96.4395 50.5714C96.4562 50.371 96.4687 50.1748 96.4771 49.9827C96.4938 49.7907 96.5021 49.632 96.5021 49.5068C96.5021 49.3565 96.5188 49.2312 96.5522 49.131C96.594 49.0308 96.6399 48.9431 96.69 48.868C96.7401 48.7928 96.7818 48.726 96.8152 48.6676C96.857 48.6091 96.8779 48.5423 96.8779 48.4672C96.8779 48.367 96.8528 48.2835 96.8027 48.2167C96.761 48.1499 96.7401 48.0831 96.7401 48.0163C96.7401 47.9244 96.7693 47.8367 96.8278 47.7532C96.8862 47.6614 96.928 47.5695 96.953 47.4777C97.0449 47.1103 97.0908 46.7471 97.0908 46.388C97.0908 46.3129 97.0866 46.2419 97.0783 46.1751C97.0783 46.0999 97.0741 46.0289 97.0658 45.9621C96.8737 45.8035 96.6608 45.7033 96.427 45.6615C96.1932 45.6114 95.9594 45.578 95.7256 45.5613C95.4918 45.5363 95.2663 45.5071 95.0492 45.4737C94.8321 45.4403 94.6484 45.3526 94.4981 45.2106C94.3728 45.0937 94.2601 44.9643 94.1599 44.8224C94.0597 44.6721 93.9261 44.5719 93.7591 44.5218C93.6422 44.48 93.542 44.4257 93.4585 44.3589C93.3834 44.2838 93.3458 44.1794 93.3458 44.0458C93.3458 43.8454 93.4042 43.6951 93.5211 43.5949C93.6464 43.4863 93.7925 43.4028 93.9595 43.3444C94.1265 43.2776 94.2977 43.2233 94.473 43.1816C94.6567 43.1315 94.8112 43.0605 94.9365 42.9686C95.0617 42.8768 95.212 42.8309 95.3874 42.8309C95.4625 42.8309 95.5335 42.835 95.6003 42.8434C95.6755 42.8434 95.7506 42.8434 95.8258 42.8434C96.0345 42.8434 96.2057 42.81 96.3393 42.7432C96.4812 42.668 96.5898 42.572 96.6649 42.4551C96.7484 42.3299 96.8027 42.1879 96.8278 42.0293C96.8612 41.8706 96.8779 41.6994 96.8779 41.5157C96.8779 41.2485 96.8612 40.9897 96.8278 40.7392C96.7944 40.4887 96.7777 40.2298 96.7777 39.9626C96.7777 39.6536 96.8194 39.3697 96.9029 39.1109C96.9864 38.852 97.1451 38.6141 97.3789 38.397C97.429 38.3552 97.4833 38.3009 97.5417 38.2341C97.6002 38.1673 97.6628 38.1047 97.7296 38.0463C97.7964 37.9795 97.8632 37.9252 97.93 37.8834C98.0051 37.8417 98.0803 37.8208 98.1554 37.8208C98.2055 37.8208 98.2473 37.8333 98.2807 37.8584C98.3224 37.8751 98.3642 37.9001 98.4059 37.9335C98.5896 38.1172 98.7065 38.255 98.7566 38.3469C98.8151 38.4304 98.8443 38.5306 98.8443 38.6475C98.8443 38.7143 98.8401 38.7894 98.8318 38.8729C98.8318 38.9481 98.8318 39.0483 98.8318 39.1735C98.8318 39.4407 98.8652 39.7037 98.932 39.9626C98.9988 40.2215 99.0322 40.4427 99.0322 40.6264C99.0322 40.7851 98.9988 40.9396 98.932 41.0899C98.8735 41.2318 98.8443 41.3821 98.8443 41.5408C98.8443 41.6577 98.8694 41.7662 98.9195 41.8664C98.9779 41.9583 99.0406 42.0501 99.1074 42.142C99.1825 42.2338 99.2493 42.3299 99.3078 42.4301C99.3662 42.5219 99.3954 42.6305 99.3954 42.7557C99.4789 42.8142 99.6668 42.8684 99.9591 42.9185C100.251 42.9603 100.577 42.9979 100.936 43.0313C101.295 43.0563 101.658 43.0772 102.026 43.0939C102.393 43.1106 102.698 43.1189 102.94 43.1189C103.157 43.1189 103.324 43.1356 103.441 43.169C103.558 43.2024 103.654 43.24 103.729 43.2818C103.813 43.3152 103.888 43.3527 103.955 43.3945C104.021 43.4362 104.109 43.4613 104.218 43.4696C104.351 43.4863 104.464 43.5239 104.556 43.5824C104.656 43.6325 104.706 43.7368 104.706 43.8955C104.706 44.0959 104.652 44.2546 104.543 44.3715C104.443 44.4884 104.314 44.576 104.155 44.6345C104.005 44.6929 103.842 44.7305 103.667 44.7472C103.491 44.7556 103.328 44.7597 103.178 44.7597C102.936 44.7597 102.694 44.7514 102.452 44.7347C102.209 44.718 101.967 44.7096 101.725 44.7096C101.324 44.7096 100.961 44.7472 100.635 44.8224C100.31 44.8975 100.026 45.0228 99.7837 45.1981C99.5499 45.3735 99.3662 45.6073 99.2326 45.8995C99.1074 46.1834 99.0447 46.5425 99.0447 46.9767C99.0447 47.4025 99.0698 47.82 99.1199 48.2292C99.1783 48.6384 99.2076 49.0559 99.2076 49.4817C99.2076 49.8825 99.2117 50.204 99.2201 50.4462C99.2368 50.6883 99.2869 50.8929 99.3704 51.0599C99.4789 51.302 99.5666 51.5776 99.6334 51.8865C99.7002 52.1955 99.7837 52.4878 99.8839 52.7633C99.9925 53.0389 100.139 53.2727 100.322 53.4647C100.514 53.6484 100.794 53.7403 101.161 53.7403C101.287 53.7403 101.454 53.7236 101.662 53.6902C101.871 53.6568 102.08 53.6067 102.289 53.5399C102.497 53.4647 102.677 53.3729 102.827 53.2643C102.978 53.1474 103.053 53.0055 103.053 52.8385C103.053 52.6965 103.011 52.5546 102.928 52.4126C102.844 52.2623 102.802 52.1036 102.802 51.9366C102.802 51.8197 102.827 51.7195 102.877 51.636C102.936 51.5442 103.007 51.4649 103.09 51.3981C103.182 51.3229 103.274 51.2603 103.366 51.2102C103.466 51.1517 103.562 51.1016 103.654 51.0599C103.804 50.8678 103.984 50.7092 104.193 50.5839C104.41 50.4503 104.639 50.3835 104.881 50.3835C105.048 50.3835 105.207 50.4128 105.357 50.4712C105.516 50.5297 105.662 50.6048 105.796 50.6967C105.821 50.847 105.833 51.0014 105.833 51.1601Z" fill="#2B2B2B"/>
<path d="M3.86761 76.2877C3.28398 76.2877 2.77054 76.1621 2.32729 75.9109C1.88403 75.6524 1.54051 75.283 1.29671 74.8028C1.06031 74.3226 0.942108 73.7537 0.942108 73.0962C0.942108 72.4387 1.0677 71.8736 1.31888 71.4008C1.57744 70.9206 1.92836 70.5512 2.37161 70.2926C2.82226 70.0341 3.34308 69.9048 3.93409 69.9048C4.60637 69.9048 5.15305 70.0341 5.57415 70.2926C5.99524 70.5438 6.31291 70.9317 6.52715 71.4562L6.02848 71.7221C5.87334 71.2715 5.61847 70.9354 5.26387 70.7137C4.91665 70.4921 4.47708 70.3813 3.94518 70.3813C3.47237 70.3813 3.05127 70.4921 2.68189 70.7137C2.31251 70.928 2.0207 71.2383 1.80646 71.6446C1.59961 72.0509 1.49618 72.5348 1.49618 73.0962C1.49618 73.6577 1.59222 74.1416 1.7843 74.5479C1.98376 74.9542 2.26449 75.2682 2.62649 75.4898C2.98848 75.7041 3.41696 75.8112 3.91193 75.8112C4.2887 75.8112 4.61006 75.7558 4.87602 75.645C5.14197 75.5268 5.3599 75.3679 5.52982 75.1685C5.70712 74.969 5.83641 74.7474 5.91767 74.5036C5.99893 74.2598 6.03957 74.0049 6.03957 73.739V73.606H3.86761V73.1406H6.56039V76.199H6.11714L6.09497 74.8693C5.94722 75.3125 5.68496 75.6597 5.30819 75.9109C4.93881 76.1621 4.45862 76.2877 3.86761 76.2877Z" fill="#6F767D"/>
<path d="M7.47963 76.199L10.0505 69.9934H10.7043L13.2863 76.199H12.699L11.9011 74.2709H8.86481L8.06695 76.199H7.47963ZM9.0532 73.7944H11.7127L10.383 70.4921L9.0532 73.7944Z" fill="#6F767D"/>
<path d="M14.5111 76.199V69.9934H16.9822C17.6397 69.9934 18.1605 70.1523 18.5447 70.4699C18.9289 70.7802 19.1209 71.2124 19.1209 71.7665C19.1209 72.3205 18.9289 72.7564 18.5447 73.0741C18.1605 73.3844 17.6397 73.5395 16.9822 73.5395H15.0651V76.199H14.5111ZM18.8107 76.199L16.9157 73.3954L17.3811 73.1627L19.4645 76.199H18.8107ZM15.0651 73.063H16.9711C17.4883 73.063 17.8835 72.9522 18.1568 72.7305C18.4302 72.5089 18.5669 72.1876 18.5669 71.7665C18.5669 71.3528 18.4302 71.0351 18.1568 70.8135C17.8835 70.5844 17.4883 70.4699 16.9711 70.4699H15.0651V73.063Z" fill="#6F767D"/>
<path d="M20.885 76.199V69.9934H22.9905C24.0322 69.9934 24.83 70.2557 25.3841 70.7802C25.9382 71.3047 26.2152 72.062 26.2152 73.0519C26.2152 74.0788 25.9382 74.8619 25.3841 75.4012C24.83 75.9331 24.0322 76.199 22.9905 76.199H20.885ZM21.4391 75.7225H23.0238C23.8807 75.7225 24.5345 75.4935 24.9852 75.0355C25.4358 74.5775 25.6611 73.9163 25.6611 73.0519C25.6611 72.2171 25.4358 71.5781 24.9852 71.1348C24.5345 70.6916 23.8807 70.4699 23.0238 70.4699H21.4391V75.7225Z" fill="#6F767D"/>
<path d="M27.8542 76.199V69.9934H32.3311V70.4699H28.4083V72.8081H31.5111V73.2846H28.4083V75.7225H32.4863V76.199H27.8542Z" fill="#6F767D"/>
<path d="M38.9894 69.9934V76.199H38.247L34.8671 71.2678L34.446 70.5808H34.4349L34.4682 71.2567V76.199H33.9252V69.9934H34.6677L38.0032 74.8693L38.4686 75.6117H38.4797L38.4464 74.9358V69.9934H38.9894Z" fill="#6F767D"/>
<path d="M41.5783 69.9934V76.199H41.0242V69.9934H41.5783Z" fill="#6F767D"/>
<path d="M48.6857 69.9934V76.199H47.9432L44.5634 71.2678L44.1423 70.5808H44.1312L44.1644 71.2567V76.199H43.6215V69.9934H44.3639L47.6994 74.8693L48.1648 75.6117H48.1759L48.1427 74.9358V69.9934H48.6857Z" fill="#6F767D"/>
<path d="M53.2471 76.2877C52.6634 76.2877 52.15 76.1621 51.7067 75.9109C51.2635 75.6524 50.92 75.283 50.6762 74.8028C50.4398 74.3226 50.3216 73.7537 50.3216 73.0962C50.3216 72.4387 50.4472 71.8736 50.6983 71.4008C50.9569 70.9206 51.3078 70.5512 51.7511 70.2926C52.2017 70.0341 52.7225 69.9048 53.3135 69.9048C53.9858 69.9048 54.5325 70.0341 54.9536 70.2926C55.3747 70.5438 55.6924 70.9317 55.9066 71.4562L55.4079 71.7221C55.2528 71.2715 54.9979 70.9354 54.6433 70.7137C54.2961 70.4921 53.8565 70.3813 53.3246 70.3813C52.8518 70.3813 52.4307 70.4921 52.0613 70.7137C51.692 70.928 51.4002 71.2383 51.1859 71.6446C50.9791 72.0509 50.8756 72.5348 50.8756 73.0962C50.8756 73.6577 50.9717 74.1416 51.1638 74.5479C51.3632 74.9542 51.6439 75.2682 52.0059 75.4898C52.3679 75.7041 52.7964 75.8112 53.2914 75.8112C53.6682 75.8112 53.9895 75.7558 54.2555 75.645C54.5214 75.5268 54.7394 75.3679 54.9093 75.1685C55.0866 74.969 55.2159 74.7474 55.2971 74.5036C55.3784 74.2598 55.419 74.0049 55.419 73.739V73.606H53.2471V73.1406H55.9398V76.199H55.4966L55.4744 74.8693C55.3267 75.3125 55.0644 75.6597 54.6876 75.9109C54.3183 76.1621 53.8381 76.2877 53.2471 76.2877Z" fill="#6F767D"/>
<path d="M61.1418 76.199V69.9934H61.9729L63.89 74.703L64.2114 75.5896H64.2335L64.5438 74.703L66.4609 69.9934H67.292V76.199H66.749V71.7554L66.7933 70.5475H66.7822L64.4884 76.199H63.9454L61.6515 70.5475H61.6294L61.6737 71.7554V76.199H61.1418Z" fill="#6F767D"/>
<path d="M68.4167 76.199L70.9876 69.9934H71.6414L74.2233 76.199H73.636L72.8382 74.2709H69.8018L69.004 76.199H68.4167ZM69.9902 73.7944H72.6498L71.32 70.4921L69.9902 73.7944Z" fill="#6F767D"/>
<path d="M75.4481 76.199V69.9934H77.5536C78.5952 69.9934 79.3931 70.2557 79.9472 70.7802C80.5012 71.3047 80.7783 72.062 80.7783 73.0519C80.7783 74.0788 80.5012 74.8619 79.9472 75.4012C79.3931 75.9331 78.5952 76.199 77.5536 76.199H75.4481ZM76.0022 75.7225H77.5868C78.4438 75.7225 79.0976 75.4935 79.5482 75.0355C79.9989 74.5775 80.2242 73.9163 80.2242 73.0519C80.2242 72.2171 79.9989 71.5781 79.5482 71.1348C79.0976 70.6916 78.4438 70.4699 77.5868 70.4699H76.0022V75.7225Z" fill="#6F767D"/>
<path d="M82.4173 76.199V69.9934H86.8942V70.4699H82.9713V72.8081H86.0741V73.2846H82.9713V75.7225H87.0493V76.199H82.4173Z" fill="#6F767D"/>
<path d="M91.962 76.199V69.9934H96.4389V70.4699H92.5161V72.8081H95.6189V73.2846H92.5161V75.7225H96.5941V76.199H91.962Z" fill="#6F767D"/>
<path d="M97.2241 76.199L99.7949 69.9934H100.449L103.031 76.199H102.443L101.646 74.2709H98.6092L97.8114 76.199H97.2241ZM98.7976 73.7944H101.457L100.127 70.4921L98.7976 73.7944Z" fill="#6F767D"/>
<path d="M106.319 76.2877C105.624 76.2877 105.044 76.1621 104.579 75.9109C104.113 75.6524 103.792 75.2904 103.615 74.8249L104.036 74.4593C104.176 74.9025 104.45 75.2386 104.856 75.4677C105.262 75.6967 105.757 75.8112 106.341 75.8112C106.71 75.8112 107.035 75.7669 107.316 75.6782C107.597 75.5896 107.815 75.4566 107.97 75.2793C108.132 75.102 108.214 74.884 108.214 74.6255C108.214 74.3965 108.155 74.2118 108.036 74.0714C107.926 73.931 107.763 73.8165 107.549 73.7279C107.342 73.6392 107.094 73.569 106.806 73.5173L105.698 73.2846C105.373 73.2181 105.066 73.1295 104.778 73.0187C104.498 72.9005 104.269 72.7379 104.091 72.5311C103.914 72.3168 103.825 72.0324 103.825 71.6778C103.825 71.3601 103.918 71.0683 104.102 70.8024C104.294 70.529 104.572 70.3111 104.934 70.1486C105.296 69.986 105.724 69.9048 106.219 69.9048C106.625 69.9048 106.987 69.9528 107.305 70.0488C107.623 70.1449 107.896 70.2926 108.125 70.4921C108.361 70.6916 108.55 70.9464 108.69 71.2567L108.258 71.6224C108.147 71.3269 107.999 71.0905 107.815 70.9132C107.63 70.7285 107.405 70.5955 107.139 70.5143C106.88 70.4256 106.574 70.3813 106.219 70.3813C105.643 70.3813 105.192 70.5069 104.867 70.7581C104.542 71.0018 104.379 71.301 104.379 71.6557C104.379 71.8994 104.442 72.0915 104.568 72.2319C104.701 72.3723 104.874 72.4831 105.089 72.5643C105.31 72.6456 105.554 72.7121 105.82 72.7638L106.973 73.0076C107.327 73.0741 107.637 73.1664 107.903 73.2846C108.177 73.4028 108.387 73.5654 108.535 73.7722C108.69 73.9717 108.768 74.2376 108.768 74.5701C108.768 74.9173 108.664 75.2202 108.457 75.4787C108.251 75.7373 107.962 75.9368 107.593 76.0771C107.231 76.2175 106.806 76.2877 106.319 76.2877Z" fill="#6F767D"/>
<path d="M110.87 69.9934V76.199H110.316V69.9934H110.87Z" fill="#6F767D"/>
<path d="M112.913 76.199V69.9934H117.39V70.4699H113.467V72.8081H116.57V73.2846H113.467V75.7225H117.545V76.199H112.913Z" fill="#6F767D"/>
<path d="M118.984 76.199V69.9934H121.455C122.112 69.9934 122.633 70.1523 123.017 70.4699C123.402 70.7802 123.594 71.2124 123.594 71.7665C123.594 72.3205 123.402 72.7564 123.017 73.0741C122.633 73.3844 122.112 73.5395 121.455 73.5395H119.538V76.199H118.984ZM123.283 76.199L121.389 73.3954L121.854 73.1627L123.937 76.199H123.283ZM119.538 73.063H121.444C121.961 73.063 122.356 72.9522 122.63 72.7305C122.903 72.5089 123.04 72.1876 123.04 71.7665C123.04 71.3528 122.903 71.0351 122.63 70.8135C122.356 70.5844 121.961 70.4699 121.444 70.4699H119.538V73.063Z" fill="#6F767D"/>
<path d="M125.557 75.2904C125.705 75.2904 125.823 75.3384 125.912 75.4344C126.008 75.5231 126.056 75.6413 126.056 75.789C126.056 75.9368 126.008 76.0587 125.912 76.1547C125.823 76.2434 125.705 76.2877 125.557 76.2877C125.41 76.2877 125.288 76.2434 125.192 76.1547C125.103 76.0587 125.059 75.9368 125.059 75.789C125.059 75.6413 125.103 75.5231 125.192 75.4344C125.288 75.3384 125.41 75.2904 125.557 75.2904Z" fill="#6F767D"/>
</svg>
