<svg width="545" height="323" viewBox="0 0 545 323" fill="none" xmlns="http://www.w3.org/2000/svg">
<path fill-rule="evenodd" clip-rule="evenodd" d="M230.256 56.3841C232.252 54.9255 234.601 54.0741 237.041 53.9301L237.148 55.7438C235.062 55.8669 233.046 56.5949 231.328 57.851C229.61 59.106 228.256 60.8397 227.421 62.8616C224.987 69.0203 228.103 76.445 233.044 81.1542C235.509 83.5042 238.342 85.3657 241.327 87.1048C242.523 87.8014 243.765 88.4898 245.018 89.184C246.839 90.1932 248.682 91.2145 250.435 92.29C258.505 97.2417 265.816 104.15 269.899 113.072C273.98 121.988 274.447 133.091 269.589 141.718C265.096 149.697 256.952 154.43 249.444 158.674L248.55 157.092C256.127 152.809 263.8 148.296 268.006 140.827C272.52 132.81 272.14 122.333 268.247 113.828C264.357 105.327 257.349 98.6637 249.485 93.8386C247.743 92.7697 245.986 91.7972 244.21 90.8139C242.955 90.1189 241.69 89.4184 240.413 88.6747C237.381 86.9085 234.407 84.9635 231.79 82.4693C226.568 77.4917 222.913 69.3133 225.734 62.187L225.739 62.1751C226.698 59.8489 228.26 57.8423 230.256 56.3841Z" fill="#2B2B2B"/>
<path fill-rule="evenodd" clip-rule="evenodd" d="M251.489 15.8826C253.485 14.424 255.834 13.5726 258.274 13.4286L258.381 15.2423C256.295 15.3654 254.28 16.0935 252.561 17.3495C250.844 18.6045 249.489 20.3382 248.654 22.3602C246.22 28.5188 249.337 35.9435 254.277 40.6527C256.743 43.0027 259.575 44.8642 262.56 46.6033C263.756 47.2999 264.999 47.9883 266.251 48.6825C268.072 49.6917 269.915 50.713 271.668 51.7885C279.739 56.7402 287.049 63.6484 291.132 72.57C295.213 81.4862 295.68 92.59 290.822 101.217C286.33 109.195 278.185 113.928 270.677 118.172L269.783 116.591C277.361 112.307 285.033 107.795 289.239 100.325C293.754 92.3083 293.373 81.8316 289.48 73.3261C285.59 64.826 278.582 58.1623 270.718 53.3371C268.976 52.2682 267.219 51.2957 265.443 50.3124C264.188 49.6174 262.923 48.9169 261.646 48.1732C258.614 46.407 255.64 44.462 253.024 41.9678C247.801 36.9902 244.147 28.8118 246.967 21.6855L246.972 21.6736C247.931 19.3474 249.493 17.3408 251.489 15.8826Z" fill="#2B2B2B"/>
<path fill-rule="evenodd" clip-rule="evenodd" d="M314.864 22.2147C316.998 20.9817 319.421 20.3925 321.861 20.5166C324.302 20.6407 326.658 21.473 328.665 22.9153L327.604 24.3907C325.877 23.1488 323.856 22.4372 321.769 22.3311C319.685 22.2251 317.611 22.7271 315.779 23.7843C310.281 27.0772 308.379 34.9256 309.533 41.8406C310.107 45.2836 311.258 48.5733 312.601 51.8609C313.14 53.1802 313.72 54.5205 314.304 55.871C315.152 57.8324 316.01 59.8153 316.765 61.7868C320.242 70.855 321.976 80.984 319.98 90.644C317.986 100.298 311.85 109.397 302.926 113.122C294.68 116.565 285.452 115.092 277.036 113.645L277.344 111.854C285.851 113.317 294.545 114.653 302.226 111.446C310.462 108.007 316.295 99.5 318.201 90.2764C320.105 81.0594 318.465 71.2952 315.069 62.4372C314.317 60.477 313.497 58.5805 312.667 56.6645C312.082 55.3119 311.492 53.9495 310.92 52.548C309.557 49.2135 308.348 45.7788 307.741 42.1396C306.532 34.8927 308.415 26.0715 314.853 22.2215L314.864 22.2147Z" fill="#2B2B2B"/>
<path d="M266.618 107.377C273.654 107.377 279.358 104.481 279.358 100.909C279.358 97.3377 273.654 94.4422 266.618 94.4422C259.582 94.4422 253.878 97.3377 253.878 100.909C253.878 104.481 259.582 107.377 266.618 107.377Z" fill="#45A582"/>
<path fill-rule="evenodd" clip-rule="evenodd" d="M256.424 96.0356C254.22 97.1544 253.19 98.535 253.19 99.7987C253.19 101.062 254.22 102.443 256.424 103.562C258.578 104.655 261.616 105.358 265.021 105.358C268.427 105.358 271.465 104.655 273.618 103.562C275.822 102.443 276.853 101.062 276.853 99.7987C276.853 98.535 275.822 97.1544 273.618 96.0356C271.465 94.9425 268.427 94.2398 265.021 94.2398C261.616 94.2398 258.578 94.9425 256.424 96.0356ZM255.602 94.4156C258.059 93.168 261.391 92.4229 265.021 92.4229C268.652 92.4229 271.983 93.168 274.441 94.4156C276.848 95.6375 278.669 97.4906 278.669 99.7987C278.669 102.107 276.848 103.96 274.441 105.182C271.983 106.429 268.652 107.174 265.021 107.174C261.391 107.174 258.059 106.429 255.602 105.182C253.195 103.96 251.373 102.107 251.373 99.7987C251.373 97.4906 253.195 95.6375 255.602 94.4156Z" fill="#2B2B2B"/>
<path d="M294.218 101.83C301.254 101.83 306.958 98.9342 306.958 95.3624C306.958 91.7905 301.254 88.895 294.218 88.895C287.183 88.895 281.479 91.7905 281.479 95.3624C281.479 98.9342 287.183 101.83 294.218 101.83Z" fill="#45A582"/>
<path fill-rule="evenodd" clip-rule="evenodd" d="M284.028 90.4895C281.824 91.6082 280.794 92.9888 280.794 94.2525C280.794 95.5162 281.824 96.8968 284.028 98.0156C286.181 99.1087 289.219 99.8114 292.625 99.8114C296.031 99.8114 299.069 99.1087 301.222 98.0156C303.426 96.8968 304.456 95.5162 304.456 94.2525C304.456 92.9888 303.426 91.6082 301.222 90.4895C299.069 89.3963 296.031 88.6936 292.625 88.6936C289.219 88.6936 286.181 89.3963 284.028 90.4895ZM283.205 88.8694C285.663 87.6218 288.995 86.8768 292.625 86.8768C296.255 86.8768 299.587 87.6218 302.044 88.8694C304.452 90.0914 306.273 91.9444 306.273 94.2525C306.273 96.5606 304.452 98.4137 302.044 99.6356C299.587 100.883 296.255 101.628 292.625 101.628C288.995 101.628 285.663 100.883 283.205 99.6356C280.798 98.4137 278.977 96.5606 278.977 94.2525C278.977 91.9444 280.798 90.0914 283.205 88.8694Z" fill="#2B2B2B"/>
<path d="M298.468 126.238C305.503 126.238 311.207 123.342 311.207 119.771C311.207 116.199 305.503 113.303 298.468 113.303C291.432 113.303 285.728 116.199 285.728 119.771C285.728 123.342 291.432 126.238 298.468 126.238Z" fill="#45A582"/>
<path fill-rule="evenodd" clip-rule="evenodd" d="M288.273 114.899C286.069 116.017 285.039 117.398 285.039 118.662C285.039 119.925 286.069 121.306 288.273 122.425C290.426 123.518 293.465 124.221 296.87 124.221C300.276 124.221 303.314 123.518 305.467 122.425C307.671 121.306 308.701 119.925 308.701 118.662C308.701 117.398 307.671 116.017 305.467 114.899C303.314 113.805 300.276 113.103 296.87 113.103C293.465 113.103 290.426 113.805 288.273 114.899ZM287.451 113.279C289.908 112.031 293.24 111.286 296.87 111.286C300.5 111.286 303.832 112.031 306.29 113.279C308.697 114.501 310.518 116.354 310.518 118.662C310.518 120.97 308.697 122.823 306.29 124.045C303.832 125.292 300.5 126.037 296.87 126.037C293.24 126.037 289.908 125.292 287.451 124.045C285.044 122.823 283.222 120.97 283.222 118.662C283.222 116.354 285.044 114.501 287.451 113.279Z" fill="#2B2B2B"/>
<path d="M295.808 65.2116C302.844 65.2116 308.548 62.3161 308.548 58.7442C308.548 55.1724 302.844 52.2769 295.808 52.2769C288.772 52.2769 283.068 55.1724 283.068 58.7442C283.068 62.3161 288.772 65.2116 295.808 65.2116Z" fill="#45A582"/>
<path fill-rule="evenodd" clip-rule="evenodd" d="M285.621 53.8723C283.418 54.9911 282.387 56.3717 282.387 57.6354C282.387 58.8991 283.418 60.2797 285.621 61.3985C287.775 62.4916 290.813 63.1943 294.218 63.1943C297.624 63.1943 300.662 62.4916 302.816 61.3985C305.019 60.2797 306.05 58.8991 306.05 57.6354C306.05 56.3717 305.019 54.9911 302.816 53.8723C300.662 52.7792 297.624 52.0765 294.218 52.0765C290.813 52.0765 287.775 52.7792 285.621 53.8723ZM284.799 52.2523C287.256 51.0047 290.588 50.2597 294.218 50.2597C297.849 50.2597 301.18 51.0047 303.638 52.2523C306.045 53.4742 307.867 55.3273 307.867 57.6354C307.867 59.9435 306.045 61.7966 303.638 63.0185C301.18 64.2661 297.849 65.0112 294.218 65.0112C290.588 65.0112 287.256 64.2661 284.799 63.0185C282.392 61.7966 280.57 59.9435 280.57 57.6354C280.57 55.3273 282.392 53.4742 284.799 52.2523Z" fill="#2B2B2B"/>
<path d="M263.959 61.3301C270.995 61.3301 276.699 58.4346 276.699 54.8628C276.699 51.291 270.995 48.3955 263.959 48.3955C256.923 48.3955 251.219 51.291 251.219 54.8628C251.219 58.4346 256.923 61.3301 263.959 61.3301Z" fill="#45A582"/>
<path fill-rule="evenodd" clip-rule="evenodd" d="M253.773 49.988C251.569 51.1067 250.539 52.4873 250.539 53.751C250.539 55.0147 251.569 56.3953 253.773 57.5141C255.926 58.6072 258.965 59.3099 262.37 59.3099C265.776 59.3099 268.814 58.6072 270.967 57.5141C273.171 56.3953 274.201 55.0147 274.201 53.751C274.201 52.4873 273.171 51.1067 270.967 49.988C268.814 48.8948 265.776 48.1921 262.37 48.1921C258.965 48.1921 255.926 48.8948 253.773 49.988ZM252.951 48.3679C255.408 47.1204 258.74 46.3753 262.37 46.3753C266.001 46.3753 269.332 47.1204 271.79 48.3679C274.197 49.5899 276.018 51.4429 276.018 53.751C276.018 56.0591 274.197 57.9122 271.79 59.1342C269.332 60.3817 266.001 61.1268 262.37 61.1268C258.74 61.1268 255.408 60.3817 252.951 59.1342C250.544 57.9122 248.722 56.0591 248.722 53.751C248.722 51.4429 250.544 49.5899 252.951 48.3679Z" fill="#2B2B2B"/>
<path d="M278.294 47.4594C285.33 47.4594 291.034 44.5639 291.034 40.992C291.034 37.4202 285.33 34.5247 278.294 34.5247C271.258 34.5247 265.555 37.4202 265.555 40.992C265.555 44.5639 271.258 47.4594 278.294 47.4594Z" fill="#45A582"/>
<path fill-rule="evenodd" clip-rule="evenodd" d="M268.103 36.1182C265.899 37.237 264.869 38.6176 264.869 39.8813C264.869 41.145 265.899 42.5256 268.103 43.6443C270.256 44.7375 273.294 45.4402 276.7 45.4402C280.105 45.4402 283.144 44.7375 285.297 43.6443C287.501 42.5256 288.531 41.145 288.531 39.8813C288.531 38.6176 287.501 37.237 285.297 36.1182C283.144 35.0251 280.105 34.3224 276.7 34.3224C273.294 34.3224 270.256 35.0251 268.103 36.1182ZM267.28 34.4981C269.738 33.2506 273.069 32.5055 276.7 32.5055C280.33 32.5055 283.662 33.2506 286.119 34.4981C288.526 35.7201 290.348 37.5731 290.348 39.8813C290.348 42.1894 288.526 44.0424 286.119 45.2644C283.662 46.5119 280.33 47.257 276.7 47.257C273.069 47.257 269.738 46.5119 267.28 45.2644C264.873 44.0424 263.052 42.1894 263.052 39.8813C263.052 37.5731 264.873 35.7201 267.28 34.4981Z" fill="#2B2B2B"/>
<path d="M309.609 50.231C316.645 50.231 322.349 47.3355 322.349 43.7637C322.349 40.1919 316.645 37.2963 309.609 37.2963C302.573 37.2963 296.869 40.1919 296.869 43.7637C296.869 47.3355 302.573 50.231 309.609 50.231Z" fill="#45A582"/>
<path fill-rule="evenodd" clip-rule="evenodd" d="M299.423 38.8947C297.22 40.0135 296.189 41.3941 296.189 42.6577C296.189 43.9214 297.22 45.302 299.423 46.4208C301.577 47.514 304.615 48.2166 308.02 48.2166C311.426 48.2166 314.464 47.514 316.618 46.4208C318.821 45.302 319.852 43.9214 319.852 42.6577C319.852 41.3941 318.821 40.0135 316.618 38.8947C314.464 37.8015 311.426 37.0988 308.02 37.0988C304.615 37.0988 301.577 37.8015 299.423 38.8947ZM298.601 37.2746C301.058 36.0271 304.39 35.282 308.02 35.282C311.651 35.282 314.982 36.0271 317.44 37.2746C319.847 38.4966 321.669 40.3496 321.669 42.6577C321.669 44.9659 319.847 46.8189 317.44 48.0409C314.982 49.2884 311.651 50.0335 308.02 50.0335C304.39 50.0335 301.058 49.2884 298.601 48.0409C296.194 46.8189 294.372 44.9659 294.372 42.6577C294.372 40.3496 296.194 38.4966 298.601 37.2746Z" fill="#2B2B2B"/>
<path d="M332.965 68.5391C340 68.5391 345.704 65.6435 345.704 62.0717C345.704 58.4999 340 55.6044 332.965 55.6044C325.929 55.6044 320.225 58.4999 320.225 62.0717C320.225 65.6435 325.929 68.5391 332.965 68.5391Z" fill="#45A582"/>
<path fill-rule="evenodd" clip-rule="evenodd" d="M322.779 57.1989C320.575 58.3176 319.545 59.6982 319.545 60.9619C319.545 62.2256 320.575 63.6062 322.779 64.725C324.932 65.8181 327.97 66.5208 331.376 66.5208C334.781 66.5208 337.82 65.8181 339.973 64.725C342.177 63.6062 343.207 62.2256 343.207 60.9619C343.207 59.6982 342.177 58.3176 339.973 57.1989C337.82 56.1057 334.781 55.403 331.376 55.403C327.97 55.403 324.932 56.1057 322.779 57.1989ZM321.956 55.5788C324.414 54.3312 327.746 53.5862 331.376 53.5862C335.006 53.5862 338.338 54.3312 340.795 55.5788C343.202 56.8008 345.024 58.6538 345.024 60.9619C345.024 63.27 343.202 65.1231 340.795 66.345C338.338 67.5926 335.006 68.3377 331.376 68.3377C327.746 68.3377 324.414 67.5926 321.956 66.345C319.549 65.1231 317.728 63.27 317.728 60.9619C317.728 58.6538 319.549 56.8008 321.956 55.5788Z" fill="#2B2B2B"/>
<path d="M250.694 36.3632C257.73 36.3632 263.433 33.4676 263.433 29.8958C263.433 26.324 257.73 23.4285 250.694 23.4285C243.658 23.4285 237.954 26.324 237.954 29.8958C237.954 33.4676 243.658 36.3632 250.694 36.3632Z" fill="#45A582"/>
<path fill-rule="evenodd" clip-rule="evenodd" d="M240.5 25.021C238.296 26.1398 237.266 27.5204 237.266 28.7841C237.266 30.0478 238.296 31.4284 240.5 32.5471C242.653 33.6403 245.691 34.343 249.097 34.343C252.502 34.343 255.541 33.6403 257.694 32.5471C259.898 31.4284 260.928 30.0478 260.928 28.7841C260.928 27.5204 259.898 26.1398 257.694 25.021C255.541 23.9279 252.502 23.2252 249.097 23.2252C245.691 23.2252 242.653 23.9279 240.5 25.021ZM239.677 23.4009C242.135 22.1534 245.466 21.4083 249.097 21.4083C252.727 21.4083 256.059 22.1534 258.516 23.4009C260.923 24.6229 262.745 26.476 262.745 28.7841C262.745 31.0922 260.923 32.9452 258.516 34.1672C256.059 35.4147 252.727 36.1598 249.097 36.1598C245.466 36.1598 242.135 35.4147 239.677 34.1672C237.27 32.9452 235.449 31.0922 235.449 28.7841C235.449 26.4759 237.27 24.6229 239.677 23.4009Z" fill="#2B2B2B"/>
<path d="M258.651 15.2786C265.687 15.2786 271.391 12.3831 271.391 8.81125C271.391 5.23945 265.687 2.34393 258.651 2.34393C251.615 2.34393 245.911 5.23945 245.911 8.81125C245.911 12.3831 251.615 15.2786 258.651 15.2786Z" fill="#45A582"/>
<path fill-rule="evenodd" clip-rule="evenodd" d="M248.464 3.9413C246.261 5.06007 245.23 6.44067 245.23 7.70436C245.23 8.96806 246.261 10.3487 248.464 11.4674C250.618 12.5606 253.656 13.2633 257.062 13.2633C260.467 13.2633 263.505 12.5606 265.659 11.4674C267.862 10.3487 268.893 8.96806 268.893 7.70436C268.893 6.44067 267.862 5.06007 265.659 3.9413C263.505 2.84816 260.467 2.14546 257.062 2.14546C253.656 2.14546 250.618 2.84816 248.464 3.9413ZM247.642 2.32125C250.1 1.07368 253.431 0.328613 257.062 0.328613C260.692 0.328613 264.024 1.07368 266.481 2.32125C268.888 3.54319 270.71 5.39625 270.71 7.70436C270.71 10.0125 268.888 11.8655 266.481 13.0875C264.024 14.3351 260.692 15.0801 257.062 15.0801C253.431 15.0801 250.1 14.3351 247.642 13.0875C245.235 11.8655 243.413 10.0125 243.413 7.70436C243.413 5.39626 245.235 3.54319 247.642 2.32125Z" fill="#2B2B2B"/>
<path d="M332.438 30.8121C339.474 30.8121 345.178 27.9166 345.178 24.3448C345.178 20.773 339.474 17.8775 332.438 17.8775C325.402 17.8775 319.698 20.773 319.698 24.3448C319.698 27.9166 325.402 30.8121 332.438 30.8121Z" fill="#45A582"/>
<path fill-rule="evenodd" clip-rule="evenodd" d="M322.244 19.4729C320.041 20.5917 319.01 21.9723 319.01 23.236C319.01 24.4996 320.041 25.8802 322.244 26.999C324.398 28.0922 327.436 28.7949 330.841 28.7949C334.247 28.7949 337.285 28.0922 339.439 26.999C341.642 25.8802 342.673 24.4996 342.673 23.236C342.673 21.9723 341.642 20.5917 339.439 19.4729C337.285 18.3797 334.247 17.677 330.841 17.677C327.436 17.677 324.398 18.3797 322.244 19.4729ZM321.422 17.8528C323.879 16.6053 327.211 15.8602 330.841 15.8602C334.472 15.8602 337.803 16.6053 340.261 17.8528C342.668 19.0748 344.49 20.9278 344.49 23.236C344.49 25.5441 342.668 27.3971 340.261 28.6191C337.803 29.8666 334.472 30.6117 330.841 30.6117C327.211 30.6117 323.879 29.8666 321.422 28.6191C319.015 27.3971 317.193 25.5441 317.193 23.236C317.193 20.9278 319.015 19.0748 321.422 17.8528Z" fill="#2B2B2B"/>
<path d="M215.126 81.8539C222.162 81.8539 227.866 78.9584 227.866 75.3866C227.866 71.8148 222.162 68.9193 215.126 68.9193C208.09 68.9193 202.386 71.8148 202.386 75.3866C202.386 78.9584 208.09 81.8539 215.126 81.8539Z" fill="#45A582"/>
<path fill-rule="evenodd" clip-rule="evenodd" d="M204.939 70.5167C202.735 71.6354 201.705 73.016 201.705 74.2797C201.705 75.5434 202.735 76.924 204.939 78.0428C207.093 79.1359 210.131 79.8386 213.536 79.8386C216.942 79.8386 219.98 79.1359 222.133 78.0428C224.337 76.924 225.368 75.5434 225.368 74.2797C225.368 73.016 224.337 71.6354 222.133 70.5167C219.98 69.4235 216.942 68.7208 213.536 68.7208C210.131 68.7208 207.093 69.4235 204.939 70.5167ZM204.117 68.8966C206.574 67.649 209.906 66.904 213.536 66.904C217.167 66.904 220.498 67.649 222.956 68.8966C225.363 70.1186 227.184 71.9716 227.184 74.2797C227.184 76.5878 225.363 78.4409 222.956 79.6628C220.498 80.9104 217.167 81.6555 213.536 81.6555C209.906 81.6555 206.574 80.9104 204.117 79.6628C201.71 78.4409 199.888 76.5878 199.888 74.2797C199.888 71.9716 201.71 70.1186 204.117 68.8966Z" fill="#2B2B2B"/>
<path d="M259.188 78.5264C266.223 78.5264 271.927 75.6309 271.927 72.0591C271.927 68.4873 266.223 65.5918 259.188 65.5918C252.152 65.5918 246.448 68.4873 246.448 72.0591C246.448 75.6309 252.152 78.5264 259.188 78.5264Z" fill="#45A582"/>
<path fill-rule="evenodd" clip-rule="evenodd" d="M248.994 67.1872C246.79 68.306 245.76 69.6866 245.76 70.9503C245.76 72.214 246.79 73.5946 248.994 74.7133C251.147 75.8065 254.186 76.5092 257.591 76.5092C260.997 76.5092 264.035 75.8065 266.188 74.7133C268.392 73.5946 269.422 72.214 269.422 70.9503C269.422 69.6866 268.392 68.306 266.188 67.1872C264.035 66.0941 260.997 65.3914 257.591 65.3914C254.186 65.3914 251.147 66.0941 248.994 67.1872ZM248.172 65.5672C250.629 64.3196 253.961 63.5745 257.591 63.5745C261.221 63.5745 264.553 64.3196 267.011 65.5672C269.418 66.7891 271.239 68.6422 271.239 70.9503C271.239 73.2584 269.418 75.1114 267.011 76.3334C264.553 77.581 261.221 78.326 257.591 78.326C253.961 78.326 250.629 77.581 248.172 76.3334C245.765 75.1114 243.943 73.2584 243.943 70.9503C243.943 68.6422 245.765 66.7891 248.172 65.5672Z" fill="#2B2B2B"/>
<path d="M317.04 83.5196C324.076 83.5196 329.78 80.6241 329.78 77.0523C329.78 73.4805 324.076 70.585 317.04 70.585C310.004 70.585 304.3 73.4805 304.3 77.0523C304.3 80.6241 310.004 83.5196 317.04 83.5196Z" fill="#45A582"/>
<path fill-rule="evenodd" clip-rule="evenodd" d="M306.855 72.1814C304.651 73.3002 303.621 74.6808 303.621 75.9445C303.621 77.2082 304.651 78.5888 306.855 79.7075C309.008 80.8007 312.046 81.5034 315.452 81.5034C318.857 81.5034 321.896 80.8007 324.049 79.7075C326.253 78.5887 327.283 77.2082 327.283 75.9445C327.283 74.6808 326.253 73.3002 324.049 72.1814C321.896 71.0882 318.857 70.3856 315.452 70.3856C312.046 70.3856 309.008 71.0882 306.855 72.1814ZM306.032 70.5613C308.49 69.3138 311.821 68.5687 315.452 68.5687C319.082 68.5687 322.414 69.3138 324.871 70.5613C327.278 71.7833 329.1 73.6363 329.1 75.9445C329.1 78.2526 327.278 80.1056 324.871 81.3276C322.414 82.5751 319.082 83.3202 315.452 83.3202C311.821 83.3202 308.49 82.5751 306.032 81.3276C303.625 80.1056 301.804 78.2526 301.804 75.9445C301.804 73.6363 303.625 71.7833 306.032 70.5613Z" fill="#2B2B2B"/>
<path d="M286.254 85.7373C293.29 85.7373 298.994 82.8418 298.994 79.27C298.994 75.6982 293.29 72.8027 286.254 72.8027C279.218 72.8027 273.515 75.6982 273.515 79.27C273.515 82.8418 279.218 85.7373 286.254 85.7373Z" fill="#45A582"/>
<path fill-rule="evenodd" clip-rule="evenodd" d="M276.068 74.3981C273.864 75.5169 272.834 76.8975 272.834 78.1612C272.834 79.4249 273.864 80.8055 276.068 81.9242C278.221 83.0174 281.26 83.7201 284.665 83.7201C288.071 83.7201 291.109 83.0174 293.262 81.9242C295.466 80.8055 296.496 79.4249 296.496 78.1612C296.496 76.8975 295.466 75.5169 293.262 74.3981C291.109 73.305 288.071 72.6023 284.665 72.6023C281.26 72.6023 278.221 73.305 276.068 74.3981ZM275.246 72.778C277.703 71.5305 281.035 70.7854 284.665 70.7854C288.295 70.7854 291.627 71.5305 294.085 72.778C296.492 74 298.313 75.8531 298.313 78.1612C298.313 80.4693 296.492 82.3223 294.085 83.5443C291.627 84.7919 288.295 85.5369 284.665 85.5369C281.035 85.5369 277.703 84.7919 275.246 83.5443C272.839 82.3223 271.017 80.4693 271.017 78.1612C271.017 75.8531 272.839 74 275.246 72.778Z" fill="#2B2B2B"/>
<path d="M288.377 30.2582C295.413 30.2582 301.117 27.3627 301.117 23.7909C301.117 20.2191 295.413 17.3235 288.377 17.3235C281.341 17.3235 275.638 20.2191 275.638 23.7909C275.638 27.3627 281.341 30.2582 288.377 30.2582Z" fill="#45A582"/>
<path fill-rule="evenodd" clip-rule="evenodd" d="M278.191 18.919C275.987 20.0377 274.957 21.4183 274.957 22.682C274.957 23.9457 275.987 25.3263 278.191 26.4451C280.344 27.5382 283.383 28.2409 286.788 28.2409C290.194 28.2409 293.232 27.5382 295.385 26.4451C297.589 25.3263 298.619 23.9457 298.619 22.682C298.619 21.4183 297.589 20.0377 295.385 18.919C293.232 17.8258 290.194 17.1231 286.788 17.1231C283.383 17.1231 280.344 17.8258 278.191 18.919ZM277.369 17.2989C279.826 16.0513 283.158 15.3063 286.788 15.3063C290.418 15.3063 293.75 16.0513 296.208 17.2989C298.615 18.5208 300.436 20.3739 300.436 22.682C300.436 24.9901 298.615 26.8432 296.208 28.0651C293.75 29.3127 290.418 30.0578 286.788 30.0578C283.158 30.0578 279.826 29.3127 277.369 28.0651C274.962 26.8432 273.14 24.9901 273.14 22.682C273.14 20.3739 274.962 18.5208 277.369 17.2989Z" fill="#2B2B2B"/>
<path d="M233.707 64.6576C240.743 64.6576 246.447 61.7621 246.447 58.1903C246.447 54.6185 240.743 51.723 233.707 51.723C226.671 51.723 220.967 54.6185 220.967 58.1903C220.967 61.7621 226.671 64.6576 233.707 64.6576Z" fill="#45A582"/>
<path fill-rule="evenodd" clip-rule="evenodd" d="M223.513 53.3194C221.309 54.4381 220.279 55.8187 220.279 57.0824C220.279 58.3461 221.309 59.7267 223.513 60.8455C225.666 61.9386 228.705 62.6413 232.11 62.6413C235.516 62.6413 238.554 61.9386 240.707 60.8455C242.911 59.7267 243.941 58.3461 243.941 57.0824C243.941 55.8187 242.911 54.4381 240.707 53.3194C238.554 52.2262 235.516 51.5235 232.11 51.5235C228.705 51.5235 225.666 52.2262 223.513 53.3194ZM222.691 51.6993C225.148 50.4518 228.48 49.7067 232.11 49.7067C235.741 49.7067 239.072 50.4518 241.53 51.6993C243.937 52.9213 245.758 54.7743 245.758 57.0824C245.758 59.3906 243.937 61.2436 241.53 62.4656C239.072 63.7131 235.741 64.4582 232.11 64.4582C228.48 64.4582 225.148 63.7131 222.691 62.4656C220.284 61.2436 218.462 59.3906 218.462 57.0824C218.462 54.7743 220.284 52.9213 222.691 51.6993Z" fill="#2B2B2B"/>
<path d="M241.138 89.6227C248.174 89.6227 253.878 86.7271 253.878 83.1553C253.878 79.5835 248.174 76.688 241.138 76.688C234.102 76.688 228.399 79.5835 228.399 83.1553C228.399 86.7271 234.102 89.6227 241.138 89.6227Z" fill="#45A582"/>
<path fill-rule="evenodd" clip-rule="evenodd" d="M230.946 78.2815C228.743 79.4002 227.712 80.7809 227.712 82.0445C227.712 83.3082 228.743 84.6888 230.946 85.8076C233.1 86.9007 236.138 87.6034 239.543 87.6034C242.949 87.6034 245.987 86.9007 248.141 85.8076C250.344 84.6888 251.375 83.3082 251.375 82.0445C251.375 80.7809 250.344 79.4002 248.141 78.2815C245.987 77.1883 242.949 76.4856 239.543 76.4856C236.138 76.4856 233.1 77.1883 230.946 78.2815ZM230.124 76.6614C232.581 75.4139 235.913 74.6688 239.543 74.6688C243.174 74.6688 246.505 75.4139 248.963 76.6614C251.37 77.8834 253.191 79.7364 253.191 82.0445C253.191 84.3527 251.37 86.2057 248.963 87.4277C246.505 88.6752 243.174 89.4203 239.543 89.4203C235.913 89.4203 232.581 88.6752 230.124 87.4277C227.717 86.2057 225.895 84.3527 225.895 82.0445C225.895 79.7364 227.717 77.8834 230.124 76.6614Z" fill="#2B2B2B"/>
<path d="M241.43 127.316C243.229 123.953 243.557 120.567 242.163 119.753C240.77 118.939 238.183 121.005 236.384 124.368C234.586 127.731 234.258 131.117 235.651 131.931C237.045 132.745 239.632 130.679 241.43 127.316Z" fill="#45A582"/>
<path fill-rule="evenodd" clip-rule="evenodd" d="M234.944 131.144C235.037 131.471 235.162 131.591 235.241 131.637C235.321 131.684 235.484 131.732 235.799 131.643C236.12 131.553 236.528 131.336 236.995 130.963C237.927 130.219 238.952 128.966 239.808 127.365C240.664 125.764 241.148 124.195 241.266 122.976C241.326 122.365 241.288 121.888 241.194 121.555C241.101 121.227 240.976 121.108 240.897 121.061C240.817 121.015 240.655 120.966 240.339 121.055C240.018 121.146 239.61 121.363 239.143 121.736C238.212 122.479 237.187 123.733 236.331 125.334C235.475 126.934 234.99 128.504 234.872 129.723C234.813 130.334 234.85 130.811 234.944 131.144ZM233.093 129.503C233.241 127.985 233.819 126.179 234.762 124.417C235.704 122.655 236.872 121.194 238.032 120.267C238.611 119.805 239.223 119.448 239.836 119.274C240.453 119.1 241.136 119.099 241.754 119.459C242.371 119.82 242.728 120.429 242.909 121.07C243.089 121.706 243.118 122.438 243.045 123.196C242.898 124.714 242.319 126.519 241.377 128.281C240.434 130.043 239.267 131.505 238.106 132.431C237.528 132.893 236.915 133.251 236.303 133.424C235.685 133.599 235.002 133.6 234.385 133.24C233.767 132.879 233.411 132.27 233.229 131.629C233.049 130.993 233.02 130.26 233.093 129.503Z" fill="#2B2B2B"/>
<path d="M307.837 143.436C308.902 142.193 307.538 139.102 304.791 136.533C302.045 133.964 298.955 132.889 297.89 134.132C296.826 135.375 298.19 138.466 300.936 141.035C303.683 143.604 306.773 144.679 307.837 143.436Z" fill="#45A582"/>
<path fill-rule="evenodd" clip-rule="evenodd" d="M298.499 135.733C298.988 136.841 299.931 138.156 301.236 139.377C302.54 140.597 303.895 141.431 305.003 141.816C305.558 142.01 306.01 142.076 306.34 142.052C306.665 142.029 306.813 141.928 306.882 141.847C306.952 141.766 307.032 141.602 307.017 141.262C307.003 140.916 306.89 140.454 306.645 139.898C306.156 138.79 305.213 137.475 303.909 136.255C302.605 135.034 301.249 134.2 300.142 133.815C299.586 133.621 299.135 133.556 298.804 133.579C298.479 133.602 298.332 133.703 298.262 133.784C298.193 133.865 298.113 134.029 298.127 134.369C298.141 134.716 298.254 135.177 298.499 135.733ZM296.352 134.441C296.324 133.772 296.473 133.083 296.935 132.543C297.398 132.003 298.037 131.772 298.676 131.727C299.31 131.682 300.002 131.813 300.696 132.054C302.085 132.538 303.648 133.525 305.091 134.874C306.533 136.224 307.645 137.738 308.258 139.128C308.564 139.822 308.765 140.527 308.793 141.19C308.82 141.859 308.672 142.548 308.209 143.088C307.746 143.629 307.108 143.859 306.468 143.904C305.835 143.949 305.142 143.818 304.449 143.577C303.059 143.093 301.496 142.106 300.054 140.757C298.611 139.407 297.499 137.893 296.886 136.503C296.58 135.809 296.38 135.104 296.352 134.441Z" fill="#2B2B2B"/>
<path d="M248.387 108.484C249.452 107.241 248.088 104.15 245.342 101.581C242.595 99.0115 239.505 97.9365 238.441 99.1797C237.376 100.423 238.74 103.514 241.487 106.083C244.233 108.652 247.323 109.727 248.387 108.484Z" fill="#45A582"/>
<path fill-rule="evenodd" clip-rule="evenodd" d="M239.048 100.778C239.537 101.886 240.48 103.201 241.784 104.421C243.089 105.642 244.444 106.476 245.552 106.861C246.107 107.054 246.559 107.12 246.889 107.097C247.214 107.074 247.361 106.973 247.431 106.892C247.5 106.811 247.58 106.647 247.566 106.307C247.552 105.96 247.439 105.499 247.194 104.943C246.705 103.835 245.762 102.52 244.458 101.299C243.153 100.079 241.798 99.2449 240.69 98.8595C240.135 98.6663 239.684 98.6004 239.353 98.6237C239.028 98.6465 238.881 98.7478 238.811 98.829C238.742 98.9102 238.662 99.0742 238.676 99.4143C238.69 99.7604 238.803 100.222 239.048 100.778ZM236.901 99.4861C236.873 98.8168 237.022 98.1282 237.484 97.5878C237.947 97.0474 238.585 96.8168 239.225 96.7718C239.859 96.7273 240.551 96.8576 241.244 97.0989C242.634 97.5825 244.197 98.5702 245.64 99.9194C247.082 101.268 248.194 102.783 248.807 104.173C249.113 104.867 249.314 105.571 249.341 106.235C249.369 106.904 249.221 107.593 248.758 108.133C248.295 108.673 247.657 108.904 247.017 108.949C246.383 108.994 245.691 108.863 244.998 108.622C243.608 108.138 242.045 107.151 240.603 105.801C239.16 104.452 238.048 102.938 237.435 101.548C237.129 100.854 236.928 100.149 236.901 99.4861Z" fill="#2B2B2B"/>
<path d="M141.201 207.006C141.201 208.816 141.077 210.59 140.828 212.329C140.616 214.067 140.456 215.842 140.349 217.651C140.101 217.403 139.817 217.208 139.498 217.066C139.214 216.888 138.912 216.8 138.593 216.8C138.203 216.8 137.83 216.924 137.475 217.172C137.12 217.421 136.943 217.74 136.943 218.13C136.943 218.556 137.138 218.84 137.528 218.982C137.954 219.124 138.38 219.195 138.806 219.195C139.161 219.195 139.409 219.177 139.551 219.142C139.551 219.568 139.427 220.011 139.178 220.472C138.966 220.898 138.682 221.324 138.327 221.75C138.007 222.176 137.653 222.584 137.262 222.974C136.907 223.329 136.588 223.648 136.304 223.932C136.091 224.145 135.861 224.447 135.612 224.837C135.364 225.227 135.08 225.618 134.76 226.008C134.477 226.363 134.175 226.682 133.856 226.966C133.536 227.215 133.217 227.339 132.898 227.339C132.543 227.339 132.259 227.25 132.046 227.073C131.833 226.86 131.585 226.753 131.301 226.753C130.91 226.753 130.662 226.966 130.555 227.392C130.485 227.782 130.449 228.173 130.449 228.563V229.202C130.449 229.379 130.076 229.61 129.331 229.894C128.586 230.178 127.681 230.497 126.617 230.852C125.588 231.171 124.505 231.508 123.37 231.863C122.27 232.183 121.347 232.502 120.602 232.821C119.147 233.425 117.674 233.921 116.184 234.312C114.694 234.702 113.15 234.897 111.553 234.897C110.382 234.897 109.247 234.738 108.146 234.418C107.082 234.134 106 233.815 104.9 233.46C103.835 233.07 102.753 232.733 101.653 232.449C100.588 232.129 99.4703 231.97 98.2993 231.97C97.838 231.97 97.2347 232.041 96.4895 232.183C95.7443 232.325 95.1766 232.537 94.7862 232.821C94.6088 232.963 94.4314 233.212 94.254 233.567C94.0765 233.957 93.8636 234.152 93.6152 234.152C93.4378 234.152 93.1894 234.081 92.87 233.939C92.5507 233.797 92.32 233.691 92.1781 233.62C91.3619 233.194 90.6699 232.644 90.1022 231.97C89.5344 231.26 89.0554 230.497 88.665 229.681C88.2747 228.865 87.9908 228.013 87.8134 227.126C87.6359 226.203 87.5472 225.316 87.5472 224.465C87.5472 223.861 87.6005 223.276 87.7069 222.708C87.8489 222.105 87.9198 221.502 87.9198 220.898C87.9198 220.047 87.8134 219.213 87.6005 218.397C87.423 217.58 87.3343 216.747 87.3343 215.895C87.3343 215.292 87.423 214.688 87.6005 214.085C87.8134 213.482 87.9198 212.879 87.9198 212.275C87.9198 211.814 87.8134 211.388 87.6005 210.998C87.3875 210.572 87.2811 210.128 87.2811 209.667C87.2811 209.348 87.3875 209.082 87.6005 208.869C87.8489 208.656 87.9731 208.407 87.9731 208.124C87.9731 207.698 87.9553 207.272 87.9198 206.846C87.8843 206.42 87.8666 205.994 87.8666 205.569C87.8666 205.356 87.8666 205.054 87.8666 204.664C87.9021 204.238 87.9553 203.83 88.0263 203.439C88.0973 203.049 88.2215 202.712 88.3989 202.428C88.5763 202.144 88.8247 202.002 89.1441 202.002C89.7828 202.002 90.4215 202.41 91.0603 203.227C91.7345 204.007 92.3378 204.93 92.87 205.994C93.4378 207.059 93.8991 208.124 94.254 209.188C94.6088 210.253 94.7862 211.051 94.7862 211.583C94.7862 211.761 94.7153 211.938 94.5733 212.116C94.4314 212.258 94.254 212.329 94.041 212.329C94.183 212.577 94.3427 212.95 94.5201 213.446C94.6975 213.943 94.7862 214.333 94.7862 214.617C94.7862 215.043 94.7153 215.451 94.5733 215.842C94.4669 216.232 94.4136 216.64 94.4136 217.066C94.4136 217.421 94.4846 217.758 94.6266 218.077C94.804 218.397 94.9814 218.698 95.1588 218.982C95.4427 219.408 95.6911 219.727 95.904 219.94C96.1169 220.153 96.3476 220.313 96.596 220.419C96.8444 220.49 97.1105 220.543 97.3944 220.579C97.7138 220.614 98.1219 220.65 98.6187 220.685C99.3284 221.714 100.127 222.673 101.014 223.56C101.901 224.447 102.859 225.245 103.888 225.955C105.485 226.31 107.064 226.594 108.626 226.807C110.187 227.02 111.766 227.126 113.363 227.126C114.676 227.126 115.811 226.984 116.769 226.7C117.763 226.416 118.668 226.044 119.484 225.582C120.336 225.121 121.152 224.607 121.933 224.039C122.713 223.435 123.529 222.814 124.381 222.176C124.984 221.75 125.623 221.342 126.297 220.952C126.971 220.561 127.628 220.153 128.267 219.727C128.905 219.301 129.509 218.84 130.076 218.343C130.644 217.811 131.123 217.208 131.514 216.534C131.762 216.108 132.117 215.682 132.578 215.256C133.075 214.795 133.323 214.298 133.323 213.766C133.323 213.553 133.306 213.393 133.27 213.287C133.128 212.151 133.022 211.051 132.951 209.987C132.915 208.886 132.862 207.769 132.791 206.633C132.72 205.569 132.489 204.77 132.099 204.238C131.709 203.67 131.212 203.209 130.609 202.854C130.041 202.464 129.42 202.091 128.746 201.736C128.071 201.381 127.415 200.885 126.776 200.246C126.102 199.572 125.339 199.146 124.487 198.968C123.671 198.791 122.82 198.684 121.933 198.649C121.045 198.613 120.158 198.56 119.271 198.489C118.419 198.383 117.621 198.046 116.876 197.478C116.663 197.336 116.486 197.265 116.344 197.265C116.024 197.265 115.705 197.371 115.385 197.584C115.102 197.762 114.782 197.851 114.427 197.851C113.895 197.851 113.345 197.78 112.777 197.638C112.245 197.496 111.713 197.336 111.18 197.159C110.648 196.981 110.116 196.804 109.584 196.626C109.051 196.449 108.519 196.325 107.987 196.254C107.277 196.147 106.692 196.076 106.23 196.041C105.804 196.005 105.396 195.952 105.006 195.881C104.651 195.775 104.261 195.633 103.835 195.455C103.409 195.242 102.877 194.923 102.238 194.497C100.393 193.291 98.4235 192.404 96.3298 191.836C95.9395 190.842 95.425 189.831 94.7862 188.802C94.3959 188.553 94.0056 188.323 93.6152 188.11C93.2604 187.861 92.9055 187.595 92.5507 187.311C92.3377 186.957 92.0539 186.336 91.699 185.448C91.3796 184.561 91.0603 183.621 90.7409 182.627C90.4215 181.598 90.1377 180.64 89.8893 179.753C89.6764 178.866 89.5699 178.227 89.5699 177.837C89.5699 177.021 89.6586 176.24 89.836 175.495C90.0135 174.75 90.4215 174.075 91.0603 173.472C91.1667 173.401 91.2909 173.312 91.4329 173.206C91.6103 173.064 91.699 172.904 91.699 172.727C91.699 172.549 91.5571 172.425 91.2732 172.354C91.0248 172.248 90.9006 172.053 90.9006 171.769C90.9006 171.733 90.9183 171.68 90.9538 171.609C90.9893 171.503 91.007 171.414 91.007 171.343C91.2554 170.562 91.628 169.817 92.1248 169.107C92.6216 168.398 93.1894 167.723 93.8281 167.085C94.4669 166.446 95.1234 165.86 95.7976 165.328C96.5073 164.76 97.1815 164.246 97.8202 163.785C98.2815 163.465 98.6719 163.057 98.9913 162.56C99.3461 162.064 99.7187 161.709 100.109 161.496C100.357 161.496 100.606 161.496 100.854 161.496C101.103 161.46 101.351 161.443 101.599 161.443C101.883 161.443 102.132 161.46 102.345 161.496C102.593 161.496 102.859 161.496 103.143 161.496C103.533 161.354 103.8 161.194 103.941 161.017C104.083 160.804 104.225 160.609 104.367 160.431C104.509 160.254 104.687 160.112 104.9 160.005C105.148 159.899 105.574 159.846 106.177 159.846C106.567 159.846 106.958 159.863 107.348 159.899C107.738 159.899 108.129 159.899 108.519 159.899C109.868 159.899 111.198 159.881 112.511 159.846C113.86 159.81 115.208 159.793 116.557 159.793C117.515 159.793 118.455 159.81 119.378 159.846C120.336 159.846 121.294 159.917 122.252 160.059C122.891 160.13 123.512 160.272 124.115 160.484C124.718 160.662 125.357 160.751 126.031 160.751C126.67 160.751 127.113 160.626 127.362 160.378C127.646 160.13 127.859 159.863 128.001 159.58C128.178 159.296 128.373 159.03 128.586 158.781C128.799 158.533 129.172 158.409 129.704 158.409C130.449 158.409 131.212 158.604 131.993 158.994C132.809 159.384 133.572 159.704 134.281 159.952L134.228 160.165C134.122 160.484 134.069 160.839 134.069 161.23C134.069 161.833 134.157 162.436 134.335 163.039C134.548 163.607 134.76 164.175 134.973 164.743C135.186 165.31 135.381 165.878 135.559 166.446C135.772 167.014 135.878 167.617 135.878 168.256C135.878 168.646 135.843 169.019 135.772 169.374C135.701 169.693 135.665 170.048 135.665 170.438C135.665 171.148 135.807 171.662 136.091 171.982C136.375 172.266 136.517 172.532 136.517 172.78C136.517 173.064 136.393 173.312 136.144 173.525C135.896 173.703 135.772 173.987 135.772 174.377C135.772 175.3 135.825 176.222 135.932 177.145C136.038 178.032 136.091 178.937 136.091 179.859C136.091 180.179 136.073 180.658 136.038 181.297C136.038 181.935 135.967 182.574 135.825 183.213C135.719 183.816 135.523 184.348 135.24 184.81C134.991 185.271 134.619 185.502 134.122 185.502C133.589 185.502 133.075 185.306 132.578 184.916C132.081 184.49 131.673 184.082 131.354 183.692C130.893 183.195 130.555 182.663 130.343 182.095C130.13 181.492 129.952 180.871 129.81 180.232C129.668 179.593 129.509 178.972 129.331 178.369C129.154 177.73 128.888 177.145 128.533 176.613C127.965 175.796 127.415 174.98 126.883 174.164C126.386 173.312 125.889 172.461 125.392 171.609C125.002 170.97 124.665 170.527 124.381 170.278C124.097 170.03 123.796 169.87 123.476 169.799C123.157 169.693 122.784 169.64 122.358 169.64C121.968 169.64 121.471 169.586 120.868 169.48C120.229 169.374 119.591 169.214 118.952 169.001C118.349 168.788 117.728 168.593 117.089 168.415C116.486 168.203 115.865 168.025 115.226 167.883C114.587 167.706 113.948 167.617 113.31 167.617C112.281 167.617 111.234 167.777 110.169 168.096C109.105 168.415 108.04 168.824 106.975 169.32C105.911 169.782 104.864 170.278 103.835 170.811C102.806 171.308 101.812 171.733 100.854 172.088C99.9671 173.969 99.5235 175.992 99.5235 178.156C99.5235 179.718 99.701 180.995 100.056 181.989C100.411 182.982 100.89 183.834 101.493 184.544C102.132 185.218 102.841 185.821 103.622 186.353C104.438 186.886 105.29 187.453 106.177 188.057C107.1 188.66 108.005 189.068 108.892 189.281C109.814 189.458 110.808 189.547 111.872 189.547C112.476 189.547 113.061 189.529 113.629 189.494C114.232 189.458 114.835 189.441 115.439 189.441C116.113 189.441 116.752 189.529 117.355 189.707C117.958 189.884 118.544 190.097 119.111 190.345C119.715 190.558 120.318 190.753 120.921 190.931C121.524 191.108 122.145 191.197 122.784 191.197C123.387 191.197 123.955 191.162 124.487 191.091C125.055 191.02 125.623 190.984 126.191 190.984C126.688 190.984 127.131 191.108 127.521 191.357C127.912 191.57 128.302 191.836 128.692 192.155C129.083 192.439 129.473 192.705 129.864 192.954C130.289 193.202 130.751 193.344 131.247 193.379C131.957 193.734 132.543 194.054 133.004 194.337C133.465 194.621 133.873 194.923 134.228 195.242C134.619 195.562 134.973 195.952 135.293 196.413C135.648 196.875 136.038 197.442 136.464 198.117C136.854 198.791 137.369 199.376 138.007 199.873C138.646 200.37 139.161 200.973 139.551 201.683C139.693 201.931 139.782 202.233 139.817 202.588C139.853 202.907 139.906 203.227 139.977 203.546C140.048 203.83 140.154 204.096 140.296 204.344C140.474 204.557 140.74 204.681 141.095 204.717C141.13 205.107 141.148 205.498 141.148 205.888C141.183 206.243 141.201 206.615 141.201 207.006Z" fill="#2B2B2B"/>
<path d="M205.394 207.645C205.394 209.17 205.234 210.661 204.915 212.116C204.596 213.571 204.33 215.043 204.117 216.534C204.046 217.03 203.992 217.492 203.957 217.918C203.957 218.308 203.921 218.698 203.85 219.089C203.779 219.443 203.655 219.816 203.478 220.206C203.3 220.561 203.034 220.934 202.679 221.324C202.218 221.821 201.899 222.353 201.721 222.921C201.544 223.453 201.366 224.021 201.189 224.624C200.976 225.228 200.728 225.689 200.444 226.008C200.195 226.292 199.912 226.54 199.592 226.753C199.308 226.966 198.989 227.179 198.634 227.392C198.315 227.57 197.978 227.853 197.623 228.244C197.41 228.492 197.268 228.741 197.197 228.989C197.161 229.237 197.126 229.486 197.091 229.734C197.055 229.947 196.966 230.16 196.824 230.373C196.718 230.586 196.487 230.763 196.132 230.905C195.565 231.154 195.157 231.437 194.908 231.757C194.66 232.041 194.34 232.378 193.95 232.768C193.56 233.158 193.045 233.531 192.406 233.886C191.803 234.276 191.147 234.613 190.437 234.897C189.763 235.181 189.071 235.412 188.361 235.589C187.651 235.767 187.03 235.855 186.498 235.855C185.824 235.855 185.15 235.784 184.475 235.642C183.837 235.5 183.18 235.43 182.506 235.43C182.116 235.43 181.814 235.483 181.601 235.589C181.424 235.731 181.264 235.873 181.122 236.015C180.98 236.157 180.82 236.281 180.643 236.388C180.501 236.53 180.27 236.601 179.951 236.601C179.348 236.601 178.461 236.352 177.29 235.855C176.119 235.394 174.877 234.862 173.564 234.259C172.286 233.691 171.044 233.176 169.838 232.715C168.631 232.218 167.709 231.97 167.07 231.97C166.502 231.97 166.041 232.183 165.686 232.608C165.367 232.999 165.1 233.496 164.888 234.099C164.675 234.738 164.515 235.412 164.409 236.122C164.338 236.867 164.284 237.559 164.249 238.197C164.249 238.836 164.249 239.368 164.249 239.794C164.284 240.22 164.302 240.433 164.302 240.433C164.302 240.788 164.231 241.018 164.089 241.125C163.983 241.231 163.823 241.285 163.61 241.285C163.468 241.285 163.326 241.267 163.184 241.231C163.042 241.231 162.883 241.214 162.705 241.178C162.705 241.604 162.776 242.065 162.918 242.562C163.096 243.059 163.291 243.573 163.504 244.106C163.752 244.673 163.983 245.223 164.196 245.756C164.408 246.288 164.568 246.785 164.675 247.246C164.923 248.382 165.171 249.198 165.42 249.695C165.704 250.191 166.059 250.529 166.484 250.706C166.91 250.883 167.443 250.954 168.081 250.919C168.72 250.919 169.536 250.972 170.53 251.079C170.991 251.15 171.488 251.238 172.02 251.345C172.552 251.487 173.031 251.682 173.457 251.93C173.883 252.214 174.238 252.551 174.522 252.942C174.806 253.332 174.948 253.811 174.948 254.379C174.948 255.55 174.593 256.384 173.883 256.88C173.209 257.377 172.339 257.626 171.275 257.626C169.82 257.626 168.365 257.519 166.91 257.306C165.491 257.093 164.036 256.987 162.546 256.987C160.984 256.987 159.423 257.076 157.861 257.253C156.336 257.43 154.81 257.519 153.284 257.519C152.894 257.519 152.343 257.448 151.634 257.306C150.96 257.164 150.268 256.951 149.558 256.668C148.884 256.419 148.28 256.1 147.748 255.709C147.251 255.355 147.003 254.946 147.003 254.485C147.003 254.166 147.18 253.846 147.535 253.527C147.926 253.243 148.351 252.995 148.813 252.782C149.309 252.569 149.806 252.392 150.303 252.25C150.8 252.143 151.19 252.09 151.474 252.09C152.113 252.09 152.698 251.983 153.231 251.771C153.798 251.593 154.348 251.398 154.881 251.185C155.413 250.972 155.945 250.759 156.478 250.546C157.01 250.369 157.578 250.28 158.181 250.28C158.5 248.932 158.695 247.583 158.766 246.235C158.873 244.886 158.926 243.538 158.926 242.189C158.926 241.231 158.908 240.273 158.873 239.315C158.873 238.357 158.873 237.399 158.873 236.441C158.873 234.56 158.997 232.697 159.245 230.852C159.529 229.007 159.671 227.126 159.671 225.21C159.671 224.039 159.618 222.868 159.512 221.697C159.441 220.526 159.37 219.355 159.299 218.184C159.192 218.042 159.068 217.58 158.926 216.8C158.784 215.984 158.642 215.096 158.5 214.138C158.394 213.18 158.305 212.275 158.234 211.424C158.163 210.537 158.128 209.951 158.128 209.667C158.128 209.277 158.181 208.94 158.287 208.656C158.429 208.336 158.571 208.07 158.713 207.857C158.855 207.609 158.979 207.396 159.086 207.219C159.228 207.041 159.299 206.882 159.299 206.74C159.299 206.704 159.245 206.58 159.139 206.367C159.032 206.154 158.908 205.888 158.766 205.569C158.66 205.249 158.553 204.894 158.447 204.504C158.341 204.114 158.287 203.723 158.287 203.333C158.287 202.198 158.411 201.062 158.66 199.926C158.944 198.791 159.086 197.655 159.086 196.52C159.086 194.994 158.536 193.663 157.436 192.528C156.903 191.995 156.478 191.587 156.158 191.303C155.839 191.02 155.519 190.824 155.2 190.718C154.881 190.576 154.508 190.487 154.082 190.452C153.656 190.381 153.071 190.292 152.326 190.186C151.935 190.15 151.385 190.044 150.676 189.866C150.001 189.653 149.327 189.405 148.653 189.121C147.979 188.837 147.376 188.5 146.843 188.11C146.346 187.719 146.098 187.294 146.098 186.832C146.098 186.229 146.382 185.715 146.95 185.289C147.517 184.827 148.174 184.473 148.919 184.224C149.7 183.94 150.48 183.745 151.261 183.639C152.042 183.497 152.663 183.426 153.124 183.426C153.621 183.426 154.118 183.479 154.615 183.585C155.111 183.656 155.537 183.869 155.892 184.224C156.282 183.834 156.761 183.585 157.329 183.479C157.897 183.337 158.447 183.266 158.979 183.266C160.505 183.266 161.676 183.497 162.492 183.958C163.308 184.419 163.947 184.934 164.409 185.502C164.905 186.034 165.296 186.531 165.58 186.992C165.899 187.453 166.289 187.684 166.751 187.684C167.034 187.684 167.301 187.631 167.549 187.524C167.833 187.418 168.117 187.294 168.401 187.152C169.146 186.797 170.264 186.371 171.754 185.874C173.244 185.342 174.823 184.845 176.491 184.384C178.159 183.887 179.756 183.479 181.282 183.16C182.808 182.84 183.961 182.681 184.742 182.681C185.132 182.681 185.682 182.787 186.392 183C187.137 183.177 187.953 183.426 188.84 183.745C189.727 184.029 190.65 184.384 191.608 184.81C192.566 185.2 193.453 185.608 194.269 186.034C195.086 186.46 195.795 186.886 196.399 187.311C197.002 187.702 197.41 188.057 197.623 188.376C198.013 189.015 198.421 189.565 198.847 190.026C199.308 190.487 199.912 190.842 200.657 191.091C200.87 191.374 200.994 191.676 201.029 191.995C201.1 192.315 201.136 192.652 201.136 193.007V194.018C201.136 194.728 201.26 195.278 201.508 195.668C201.757 196.059 202.023 196.396 202.307 196.68C202.591 196.928 202.857 197.176 203.105 197.425C203.354 197.638 203.478 197.957 203.478 198.383C203.478 198.631 203.407 198.862 203.265 199.075C203.123 199.252 203.052 199.447 203.052 199.66C203.052 200.193 203.176 200.743 203.425 201.31C203.673 201.843 203.939 202.446 204.223 203.12C204.507 203.759 204.773 204.451 205.021 205.196C205.27 205.941 205.394 206.757 205.394 207.645ZM181.016 184.969C181.016 184.792 180.927 184.615 180.75 184.437C180.572 184.26 180.395 184.171 180.217 184.171C179.862 184.171 179.632 184.366 179.525 184.756C179.454 185.111 179.419 185.431 179.419 185.715C179.419 185.644 179.437 185.608 179.472 185.608C179.543 185.608 179.596 185.626 179.632 185.661L179.419 185.768C179.667 185.768 179.987 185.732 180.377 185.661C180.803 185.555 181.016 185.324 181.016 184.969ZM199.113 209.295C199.113 208.23 198.971 207.201 198.687 206.207C198.403 205.178 198.049 204.202 197.623 203.28C197.197 202.322 196.718 201.399 196.186 200.512C195.653 199.625 195.121 198.755 194.589 197.904C194.447 197.691 194.358 197.46 194.323 197.212C194.287 196.928 194.269 196.662 194.269 196.413C194.269 196.13 194.234 195.863 194.163 195.615C194.127 195.331 194.021 195.083 193.844 194.87C193.56 194.55 193.294 194.373 193.045 194.337C192.797 194.267 192.548 194.213 192.3 194.178C192.087 194.142 191.839 194.054 191.555 193.912C191.306 193.77 191.058 193.45 190.81 192.954C190.632 192.634 190.242 192.279 189.639 191.889C189.071 191.499 188.432 191.126 187.722 190.771C187.048 190.416 186.374 190.132 185.7 189.92C185.061 189.671 184.564 189.547 184.209 189.547C183.5 189.547 182.79 189.707 182.08 190.026C181.406 190.31 180.714 190.452 180.004 190.452C179.508 190.452 179.046 190.363 178.62 190.186C178.23 190.008 177.84 189.831 177.449 189.653C177.095 189.441 176.722 189.245 176.332 189.068C175.941 188.89 175.533 188.802 175.107 188.802H174.841C174.912 189.157 174.948 189.441 174.948 189.653C174.948 189.973 174.877 190.239 174.735 190.452C174.593 190.629 174.398 190.789 174.149 190.931C173.936 191.073 173.688 191.215 173.404 191.357C173.156 191.463 172.925 191.587 172.712 191.729C172.393 192.12 172.215 192.51 172.18 192.9C172.18 193.291 172.002 193.486 171.648 193.486C171.399 193.486 171.204 193.45 171.062 193.379C171.062 193.628 170.991 193.805 170.849 193.912C170.707 194.018 170.547 194.107 170.37 194.178C170.193 194.249 170.015 194.337 169.838 194.444C169.66 194.515 169.554 194.657 169.518 194.87C169.057 194.905 168.631 195.189 168.241 195.721C167.851 196.218 167.513 196.857 167.23 197.638C166.946 198.418 166.697 199.288 166.484 200.246C166.271 201.204 166.094 202.144 165.952 203.067C165.81 203.954 165.704 204.788 165.633 205.569C165.562 206.314 165.526 206.882 165.526 207.272C165.526 208.549 165.597 209.827 165.739 211.104C165.917 212.346 166.005 213.606 166.005 214.884C166.005 215.842 165.97 216.8 165.899 217.758C165.863 218.716 165.81 219.692 165.739 220.685C166.626 221.643 167.478 222.602 168.294 223.56C169.11 224.518 169.962 225.387 170.849 226.168C171.772 226.913 172.783 227.552 173.883 228.084C174.983 228.581 176.261 228.847 177.716 228.882C178.283 228.882 178.851 228.953 179.419 229.095C179.987 229.237 180.554 229.379 181.122 229.521C181.69 229.663 182.24 229.805 182.772 229.947C183.34 230.054 183.908 230.107 184.475 230.107C185.008 230.107 185.576 230 186.179 229.787C186.782 229.539 187.368 229.237 187.935 228.882C188.539 228.528 189.106 228.155 189.639 227.765C190.171 227.339 190.614 226.931 190.969 226.54C191.253 226.221 191.59 225.99 191.981 225.848C192.406 225.707 192.761 225.494 193.045 225.21C193.258 224.997 193.4 224.766 193.471 224.518C193.542 224.269 193.595 224.021 193.631 223.773C193.702 223.524 193.79 223.294 193.897 223.081C194.003 222.832 194.216 222.619 194.536 222.442C195.21 222.087 195.636 221.839 195.813 221.697C195.99 221.519 196.079 221.218 196.079 220.792V219.78C196.079 219.426 196.168 219.177 196.345 219.035C196.523 218.858 196.718 218.698 196.931 218.556C197.144 218.379 197.339 218.166 197.516 217.918C197.694 217.634 197.782 217.172 197.782 216.534C197.782 216.072 197.747 215.629 197.676 215.203C197.605 214.742 197.57 214.28 197.57 213.819C197.57 213.358 197.641 212.932 197.782 212.541C197.96 212.151 198.137 211.779 198.315 211.424C198.528 211.069 198.705 210.732 198.847 210.412C199.024 210.058 199.113 209.685 199.113 209.295Z" fill="#2B2B2B"/>
<path d="M271.557 194.71C271.557 195.42 271.415 196.023 271.131 196.52C270.847 197.017 270.527 197.496 270.173 197.957C269.853 198.383 269.516 198.826 269.161 199.288C268.842 199.749 268.629 200.299 268.523 200.938C268.203 200.796 267.866 200.707 267.511 200.672C267.192 200.636 266.855 200.618 266.5 200.618C265.648 200.618 264.797 200.689 263.945 200.831C263.129 200.938 262.313 200.991 261.496 200.991C260.538 200.991 259.74 200.707 259.101 200.139C258.498 199.536 258.001 198.809 257.611 197.957C257.256 197.105 257.008 196.2 256.866 195.242C256.724 194.249 256.653 193.362 256.653 192.581C256.653 191.587 256.812 190.576 257.132 189.547C256.848 189.441 256.599 189.387 256.387 189.387C255.925 189.387 255.588 189.529 255.375 189.813C255.198 190.097 254.932 190.239 254.577 190.239C254.257 190.239 253.974 190.132 253.725 189.92C253.477 189.671 253.175 189.547 252.82 189.547C252.288 189.547 251.614 189.724 250.798 190.079C250.017 190.399 249.254 190.824 248.509 191.357C247.764 191.889 247.107 192.475 246.539 193.113C246.007 193.717 245.741 194.302 245.741 194.87C244.996 194.941 244.286 195.154 243.612 195.509C242.973 195.828 242.352 196.183 241.749 196.573C241.288 196.857 240.897 197.301 240.578 197.904C240.258 198.507 239.957 199.164 239.673 199.873C239.425 200.547 239.158 201.239 238.875 201.949C238.626 202.659 238.324 203.244 237.97 203.706C237.366 204.486 236.834 205.285 236.373 206.101C235.947 206.882 235.734 207.769 235.734 208.762C235.734 210.004 235.929 211.264 236.32 212.541C236.71 213.819 236.905 215.114 236.905 216.427C236.905 217.279 236.834 218.13 236.692 218.982C236.586 219.834 236.532 220.668 236.532 221.484C236.532 222.477 236.71 223.276 237.065 223.879C237.42 224.482 237.899 224.961 238.502 225.316C239.105 225.636 239.797 225.848 240.578 225.955C241.358 226.061 242.157 226.115 242.973 226.115C243.86 226.115 244.712 226.097 245.528 226.061C246.38 225.99 247.16 225.955 247.87 225.955C248.118 226.239 248.26 226.505 248.296 226.753C248.331 227.002 248.314 227.268 248.243 227.552C248.207 227.8 248.136 228.066 248.03 228.35C247.959 228.599 247.923 228.9 247.923 229.255C247.923 229.397 247.959 229.574 248.03 229.787C248.562 229.787 249.023 229.663 249.414 229.415C249.804 229.166 250.088 228.776 250.265 228.244C250.514 228.315 250.727 228.421 250.904 228.563C251.117 228.705 251.223 228.918 251.223 229.202C251.223 229.415 251.17 229.628 251.064 229.841C250.957 230.018 250.833 230.195 250.691 230.373C250.549 230.55 250.425 230.745 250.319 230.958C250.212 231.136 250.159 231.349 250.159 231.597C250.159 231.739 250.177 231.899 250.212 232.076C250.248 232.218 250.301 232.342 250.372 232.449C250.194 232.733 249.946 232.928 249.627 233.034C249.307 233.141 248.988 233.194 248.668 233.194C248.101 233.194 247.622 233.105 247.231 232.928C246.876 232.75 246.539 232.555 246.22 232.342C245.936 232.129 245.67 231.934 245.422 231.757C245.173 231.579 244.872 231.491 244.517 231.491C244.375 231.491 244.162 231.526 243.878 231.597C243.594 231.668 243.31 231.757 243.026 231.863C242.742 231.97 242.494 232.112 242.281 232.289C242.068 232.431 241.962 232.573 241.962 232.715C241.962 232.999 242.05 233.247 242.228 233.46C242.441 233.673 242.547 233.921 242.547 234.205C242.547 234.454 242.459 234.649 242.281 234.791C242.104 234.933 241.891 235.021 241.642 235.057C241.394 235.128 241.128 235.163 240.844 235.163C240.596 235.199 240.383 235.217 240.205 235.217C238.821 235.217 237.437 235.057 236.053 234.738C234.705 234.454 233.339 234.312 231.955 234.312C231.316 234.312 230.677 234.454 230.039 234.738C229.4 235.021 228.726 235.163 228.016 235.163C227.626 235.163 227.324 235.075 227.111 234.897C226.934 234.755 226.774 234.578 226.632 234.365C226.49 234.152 226.33 233.957 226.153 233.779C225.976 233.638 225.709 233.567 225.355 233.567C224.68 233.567 224.006 233.638 223.332 233.779C222.693 233.921 222.037 234.063 221.362 234.205C220.724 234.383 220.067 234.525 219.393 234.631C218.754 234.773 218.098 234.844 217.424 234.844C217.069 234.844 216.643 234.791 216.146 234.684C215.649 234.613 215.17 234.471 214.709 234.259C214.248 234.046 213.857 233.779 213.538 233.46C213.219 233.141 213.059 232.75 213.059 232.289C213.059 232.005 213.219 231.633 213.538 231.171C213.893 230.71 214.283 230.266 214.709 229.841C215.135 229.379 215.561 228.989 215.986 228.67C216.412 228.35 216.732 228.191 216.945 228.191C217.512 228.191 218.062 228.208 218.595 228.244C219.162 228.279 219.748 228.297 220.351 228.297C221.309 228.297 222.267 228.155 223.225 227.871C224.219 227.552 225.106 227.108 225.887 226.54C226.703 225.973 227.36 225.263 227.856 224.411C228.353 223.56 228.602 222.602 228.602 221.537C228.602 221.076 228.566 220.632 228.495 220.206C228.424 219.745 228.389 219.284 228.389 218.822C228.389 217.9 228.495 216.977 228.708 216.055C228.921 215.132 229.027 214.209 229.027 213.287C229.027 212.045 228.885 210.785 228.602 209.507C228.353 208.195 228.229 206.882 228.229 205.569C228.229 204.398 228.247 203.244 228.282 202.109C228.353 200.938 228.389 199.767 228.389 198.596C228.389 198.063 228.371 197.283 228.335 196.254C228.3 195.225 228.176 194.196 227.963 193.166C227.785 192.137 227.484 191.233 227.058 190.452C226.668 189.671 226.118 189.281 225.408 189.281C224.627 189.281 223.846 189.37 223.066 189.547C222.285 189.724 221.487 189.813 220.671 189.813C220.067 189.813 219.358 189.778 218.541 189.707C217.725 189.6 216.945 189.423 216.199 189.174C215.454 188.89 214.815 188.5 214.283 188.003C213.751 187.507 213.485 186.85 213.485 186.034C213.485 185.147 213.609 184.437 213.857 183.905C214.106 183.337 214.425 182.911 214.815 182.627C215.241 182.343 215.72 182.148 216.253 182.042C216.82 181.935 217.424 181.882 218.062 181.882C218.63 181.882 219.216 181.9 219.819 181.935C220.422 181.971 221.008 181.989 221.575 181.989C222.711 181.989 223.829 181.935 224.929 181.829C226.064 181.687 227.2 181.616 228.335 181.616C229.116 181.616 229.897 181.651 230.677 181.722C231.458 181.793 232.221 181.953 232.966 182.202C233.64 182.414 234.137 182.822 234.457 183.426C234.776 183.994 235.06 184.579 235.308 185.182C235.592 185.786 235.911 186.336 236.266 186.832C236.621 187.294 237.189 187.524 237.97 187.524C238.324 187.524 238.644 187.436 238.928 187.258C239.247 187.045 239.549 186.815 239.833 186.566C240.116 186.318 240.4 186.087 240.684 185.874C240.968 185.661 241.305 185.519 241.696 185.448C242.476 185.342 243.186 185.094 243.825 184.703C244.499 184.313 245.155 183.923 245.794 183.532C246.433 183.142 247.072 182.787 247.71 182.468C248.385 182.148 249.112 181.989 249.893 181.989C250.354 181.989 250.922 181.935 251.596 181.829C252.306 181.722 252.998 181.581 253.672 181.403C254.382 181.19 255.038 180.942 255.641 180.658C256.28 180.374 256.777 180.055 257.132 179.7C258.09 179.771 259.208 180.001 260.485 180.392C261.798 180.782 263.04 181.314 264.211 181.989C265.418 182.627 266.464 183.39 267.352 184.277C268.239 185.165 268.753 186.158 268.895 187.258C269.002 187.932 269.197 188.571 269.481 189.174C269.765 189.778 270.048 190.381 270.332 190.984C270.652 191.552 270.936 192.155 271.184 192.794C271.432 193.397 271.557 194.036 271.557 194.71Z" fill="#2B2B2B"/>
<path d="M332.236 210.253C332.236 210.749 332.148 211.229 331.97 211.69C331.828 212.116 331.651 212.488 331.438 212.808C331.261 213.127 331.083 213.393 330.906 213.606C330.764 213.819 330.693 213.943 330.693 213.979C330.693 214.333 330.799 214.706 331.012 215.096C331.261 215.487 331.385 215.913 331.385 216.374C331.385 216.587 331.296 216.729 331.119 216.8C330.977 216.871 330.817 216.906 330.64 216.906C330.32 216.906 330.054 216.871 329.841 216.8C329.877 217.474 329.93 218.13 330.001 218.769C330.107 219.408 330.161 220.064 330.161 220.739C330.161 221.768 330.054 222.442 329.841 222.761C329.664 223.045 329.469 223.223 329.256 223.294C329.043 223.365 328.83 223.453 328.617 223.56C328.44 223.631 328.351 223.95 328.351 224.518C328.351 224.837 328.12 225.245 327.659 225.742C327.233 226.239 326.701 226.736 326.062 227.232C325.459 227.729 324.82 228.155 324.146 228.51C323.507 228.865 322.993 229.042 322.602 229.042C322.496 229.042 322.372 229.007 322.23 228.936C322.23 229.22 322.247 229.521 322.283 229.841C322.318 230.16 322.336 230.462 322.336 230.745C322.336 231.207 322.194 231.526 321.91 231.704C321.626 231.846 321.307 231.987 320.952 232.129C320.42 232.378 319.87 232.75 319.302 233.247C318.734 233.709 318.149 234.188 317.546 234.684C316.942 235.181 316.321 235.607 315.683 235.962C315.079 236.352 314.441 236.547 313.766 236.547C313.199 236.547 312.666 236.405 312.17 236.122C311.708 235.838 311.158 235.696 310.519 235.696C309.952 235.696 309.473 235.767 309.082 235.909C308.692 236.086 308.319 236.263 307.965 236.441C307.645 236.654 307.308 236.831 306.953 236.973C306.598 237.151 306.19 237.239 305.729 237.239C304.806 237.239 303.884 236.991 302.961 236.494C302.038 236.033 301.151 235.66 300.3 235.376C299.803 235.199 299.271 235.057 298.703 234.95C298.135 234.88 297.585 234.791 297.053 234.684C296.52 234.578 296.006 234.4 295.509 234.152C295.048 233.939 294.64 233.62 294.285 233.194C293.54 232.271 292.67 231.508 291.677 230.905C290.683 230.302 289.672 229.734 288.643 229.202C287.614 228.67 286.62 228.12 285.662 227.552C284.704 226.949 283.87 226.168 283.16 225.21C282.628 224.465 282.025 223.666 281.35 222.814C280.676 221.927 280.038 221.005 279.434 220.047C278.866 219.089 278.387 218.113 277.997 217.119C277.607 216.126 277.412 215.15 277.412 214.192C277.412 213.482 277.483 212.79 277.625 212.116C277.766 211.441 277.908 210.767 278.05 210.093C278.228 209.383 278.387 208.691 278.529 208.017C278.671 207.343 278.742 206.651 278.742 205.941V205.356C278.742 205.214 278.689 205.054 278.583 204.877C278.476 204.699 278.352 204.54 278.21 204.398C278.104 204.22 277.979 204.078 277.837 203.972C277.731 203.83 277.66 203.759 277.625 203.759C277.554 203.759 277.518 203.777 277.518 203.812C277.554 203.493 277.642 203.014 277.784 202.375C277.962 201.701 278.157 201.026 278.37 200.352C278.583 199.643 278.796 199.004 279.008 198.436C279.221 197.833 279.417 197.442 279.594 197.265C279.807 197.088 280.002 196.91 280.179 196.733C280.392 196.52 280.499 196.254 280.499 195.934C280.499 195.615 280.481 195.313 280.446 195.029C280.41 194.71 280.392 194.391 280.392 194.071C280.392 193.646 280.446 193.397 280.552 193.326C280.659 193.22 280.8 193.166 280.978 193.166C281.155 193.166 281.333 193.149 281.51 193.113C281.688 193.042 281.865 192.847 282.042 192.528C282.362 191.889 282.663 191.304 282.947 190.771C283.267 190.203 283.604 189.689 283.959 189.228C284.314 188.766 284.722 188.34 285.183 187.95C285.644 187.56 286.212 187.187 286.886 186.832C287.454 186.513 288.004 186.123 288.536 185.661C289.104 185.2 289.672 184.739 290.24 184.277C290.807 183.816 291.375 183.426 291.943 183.106C292.546 182.787 293.185 182.627 293.859 182.627C294.817 182.627 295.74 182.468 296.627 182.148C297.55 181.793 298.472 181.527 299.395 181.35C300.85 181.137 302.287 180.942 303.706 180.764C305.161 180.551 306.634 180.445 308.124 180.445C308.94 180.445 309.934 180.587 311.105 180.871C312.276 181.119 313.465 181.456 314.671 181.882C315.913 182.308 317.066 182.787 318.131 183.319C319.231 183.852 320.1 184.384 320.739 184.916V185.076C320.739 185.573 320.651 186.087 320.473 186.619C320.296 187.116 320.207 187.613 320.207 188.11C320.207 188.181 320.207 188.252 320.207 188.323C320.207 188.394 320.242 188.429 320.313 188.429C320.917 188.429 321.484 188.358 322.017 188.216C322.584 188.039 323.17 187.95 323.773 187.95C323.844 188.553 324.11 188.961 324.572 189.174C325.033 189.387 325.494 189.582 325.956 189.76C326.381 189.973 326.772 190.363 327.127 190.931C327.517 191.463 327.872 192.084 328.191 192.794C328.511 193.468 328.812 194.142 329.096 194.817C329.415 195.491 329.717 196.041 330.001 196.467C330.285 196.892 330.533 197.407 330.746 198.01C330.994 198.578 331.19 199.181 331.332 199.82C331.509 200.459 331.633 201.097 331.704 201.736C331.775 202.339 331.811 202.907 331.811 203.439C331.811 204.149 331.669 204.752 331.385 205.249C331.136 205.711 330.853 206.136 330.533 206.527C330.214 206.882 329.912 207.236 329.628 207.591C329.38 207.911 329.256 208.283 329.256 208.709C329.256 208.957 329.309 209.188 329.415 209.401C329.522 209.614 329.664 209.809 329.841 209.987C329.912 209.951 330.054 209.916 330.267 209.88C330.515 209.845 330.64 209.738 330.64 209.561V209.507C330.64 209.224 330.515 208.957 330.267 208.709C330.054 208.461 329.948 208.159 329.948 207.804C329.948 207.733 329.983 207.627 330.054 207.485C330.125 207.307 330.214 207.219 330.32 207.219C330.533 207.219 330.746 207.361 330.959 207.645C331.172 207.893 331.367 208.177 331.545 208.496C331.757 208.78 331.917 209.028 332.024 209.241C332.13 209.454 332.183 209.525 332.183 209.454L332.13 209.401C332.166 209.578 332.183 209.738 332.183 209.88C332.219 209.987 332.236 210.111 332.236 210.253ZM326.914 210.678C326.914 210.111 326.701 209.774 326.275 209.667C325.849 209.525 325.37 209.437 324.838 209.401C324.306 209.366 323.773 209.312 323.241 209.241C322.744 209.17 322.407 208.904 322.23 208.443V207.911C322.23 207.13 322.123 206.225 321.91 205.196C321.733 204.131 321.502 203.067 321.218 202.002C320.934 200.902 320.633 199.838 320.313 198.809C319.994 197.744 319.692 196.804 319.409 195.988C319.125 195.171 318.894 194.515 318.717 194.018C318.539 193.521 318.45 193.273 318.45 193.273C318.167 193.344 317.936 193.379 317.758 193.379C317.155 193.379 316.623 193.255 316.162 193.007C315.736 192.758 315.239 192.492 314.671 192.208C314.139 191.924 313.465 191.658 312.649 191.41C311.868 191.162 310.821 191.037 309.508 191.037C308.053 191.037 306.616 190.949 305.197 190.771C303.777 190.558 302.34 190.452 300.885 190.452C298.898 190.452 297.035 190.913 295.296 191.836C293.557 192.723 292.032 193.912 290.719 195.402C289.406 196.857 288.377 198.507 287.631 200.352C286.886 202.198 286.514 204.06 286.514 205.941C286.514 206.722 286.531 207.645 286.567 208.709C286.602 209.738 286.691 210.785 286.833 211.85C286.975 212.879 287.206 213.854 287.525 214.777C287.844 215.664 288.288 216.338 288.856 216.8V218.29C288.998 218.432 289.175 218.521 289.388 218.556C289.636 218.556 289.867 218.556 290.08 218.556C290.328 218.556 290.541 218.592 290.719 218.663C290.896 218.698 291.038 218.84 291.144 219.089C291.606 220.401 292.209 221.413 292.954 222.123C293.699 222.797 294.498 223.382 295.349 223.879C296.201 224.34 297.053 224.819 297.904 225.316C298.756 225.778 299.537 226.469 300.246 227.392C300.53 227.357 300.832 227.339 301.151 227.339C301.471 227.303 301.772 227.286 302.056 227.286C303.192 227.286 304.292 227.374 305.356 227.552C306.456 227.694 307.556 227.765 308.656 227.765C309.827 227.765 310.874 227.463 311.797 226.86C312.755 226.257 313.571 225.494 314.245 224.571C314.671 223.968 315.062 223.453 315.416 223.027C315.771 222.602 316.126 222.211 316.481 221.856C316.871 221.466 317.279 221.111 317.705 220.792C318.167 220.437 318.699 220.047 319.302 219.621C319.515 219.479 319.763 219.301 320.047 219.089C320.367 218.876 320.668 218.645 320.952 218.397C321.272 218.113 321.538 217.847 321.751 217.598C321.963 217.314 322.07 217.048 322.07 216.8C322.07 216.48 322.017 216.161 321.91 215.842C321.839 215.522 321.804 215.203 321.804 214.884C321.804 214.529 321.857 214.103 321.963 213.606C322.07 213.109 322.23 212.63 322.443 212.169C322.691 211.708 322.975 211.335 323.294 211.051C323.649 210.732 324.075 210.572 324.572 210.572C324.962 210.572 325.352 210.661 325.743 210.838C326.133 211.016 326.488 211.229 326.807 211.477C326.878 211.122 326.914 210.856 326.914 210.678Z" fill="#2B2B2B"/>
<path d="M404.68 230.213C404.68 230.852 404.467 231.526 404.041 232.236C403.651 232.946 403.136 233.584 402.497 234.152C401.894 234.755 401.238 235.252 400.528 235.642C399.818 236.033 399.144 236.228 398.505 236.228C397.405 236.228 396.323 236.139 395.258 235.962C394.194 235.784 393.094 235.696 391.958 235.696C391.426 235.696 390.805 235.66 390.095 235.589C389.421 235.518 388.942 235.341 388.658 235.057C387.842 234.915 387.239 234.596 386.848 234.099C386.458 233.638 386.103 233.123 385.784 232.555C385.5 231.987 385.181 231.437 384.826 230.905C384.506 230.373 384.01 230 383.335 229.787C381.313 230.675 379.521 231.526 377.959 232.342C376.433 233.158 374.908 233.868 373.382 234.471C371.891 235.11 370.277 235.607 368.538 235.962C366.835 236.352 364.794 236.547 362.417 236.547C361.388 236.547 360.643 236.494 360.181 236.388C359.755 236.281 359.418 236.104 359.17 235.855C358.957 235.642 358.744 235.341 358.531 234.95C358.354 234.56 357.999 234.081 357.467 233.513C357.183 233.229 356.899 233.07 356.615 233.034C356.367 232.963 356.118 232.928 355.87 232.928H355.604C355.284 232.928 354.983 232.875 354.699 232.768C354.45 232.626 354.255 232.271 354.113 231.704C354.007 231.278 353.794 230.799 353.474 230.266C353.155 229.699 352.783 229.131 352.357 228.563C351.966 227.995 351.558 227.481 351.132 227.02C350.707 226.558 350.316 226.203 349.961 225.955L349.908 220.685C349.873 217.137 349.979 213.624 350.228 210.146C350.476 206.669 350.6 203.156 350.6 199.607C350.6 199.075 350.582 198.347 350.547 197.425C350.511 196.467 350.423 195.509 350.281 194.55C350.174 193.592 349.961 192.741 349.642 191.995C349.358 191.215 348.95 190.753 348.418 190.612C347.602 190.434 346.768 190.363 345.916 190.399C345.1 190.399 344.284 190.381 343.468 190.345C342.651 190.31 341.853 190.186 341.072 189.973C340.327 189.76 339.617 189.299 338.943 188.589C338.553 188.199 338.18 187.719 337.825 187.152C337.506 186.584 337.346 185.998 337.346 185.395C337.346 184.508 337.719 183.763 338.464 183.16C339.245 182.521 340.167 182.006 341.232 181.616C342.297 181.226 343.379 180.942 344.479 180.764C345.579 180.587 346.466 180.498 347.14 180.498C349.092 180.498 350.937 180.8 352.676 181.403C354.45 181.971 356.065 182.911 357.52 184.224C357.591 184.295 357.626 184.366 357.626 184.437C357.626 184.473 357.609 184.508 357.573 184.544C357.644 185.573 357.786 186.602 357.999 187.631C358.212 188.624 358.318 189.636 358.318 190.665C358.318 191.233 358.23 191.765 358.052 192.262C357.91 192.758 357.839 193.308 357.839 193.912C357.839 194.515 357.91 195.118 358.052 195.721C358.194 196.325 358.265 196.928 358.265 197.531C358.265 197.922 358.23 198.312 358.159 198.702C358.088 199.093 358.052 199.483 358.052 199.873C358.052 200.973 358.176 202.056 358.425 203.12C358.673 204.149 358.797 205.214 358.797 206.314C358.797 207.272 358.691 208.212 358.478 209.135C358.265 210.022 358.017 210.927 357.733 211.85C357.484 212.772 357.254 213.695 357.041 214.617C356.828 215.505 356.721 216.427 356.721 217.385C356.721 218.698 356.988 219.922 357.52 221.058C358.052 222.193 358.762 223.187 359.649 224.039C360.536 224.855 361.547 225.511 362.683 226.008C363.854 226.469 365.078 226.7 366.356 226.7C367.456 226.7 368.343 226.594 369.017 226.381C369.727 226.132 370.295 225.866 370.72 225.582C371.146 225.298 371.483 225.05 371.732 224.837C372.016 224.589 372.299 224.465 372.583 224.465C372.867 224.465 373.116 224.5 373.329 224.571C373.577 224.606 373.825 224.624 374.074 224.624C374.571 224.624 374.979 224.518 375.298 224.305C375.617 224.092 375.901 223.844 376.15 223.56C376.433 223.276 376.7 223.01 376.948 222.761C377.232 222.477 377.587 222.282 378.013 222.176C378.829 221.998 379.538 221.768 380.142 221.484C380.745 221.164 381.047 220.526 381.047 219.568C381.047 219.39 381.064 219.23 381.1 219.089C381.171 218.947 381.348 218.876 381.632 218.876C381.81 218.876 381.934 218.929 382.005 219.035C382.111 219.106 382.253 219.177 382.431 219.248C382.608 219.106 382.732 218.911 382.803 218.663C382.874 218.414 382.945 218.201 383.016 218.024C383.193 217.385 383.513 216.817 383.974 216.321C384.471 215.824 384.755 215.256 384.826 214.617C384.897 213.908 385.074 213.251 385.358 212.648C385.642 212.045 385.784 211.406 385.784 210.732C385.784 210.128 385.624 209.596 385.305 209.135C384.985 208.674 384.826 208.124 384.826 207.485C384.826 206.775 384.95 206.065 385.198 205.356C385.482 204.646 385.624 203.936 385.624 203.227C385.411 202.943 385.198 202.623 384.985 202.268C384.808 201.914 384.719 201.559 384.719 201.204C384.719 200.601 384.826 200.21 385.039 200.033C385.252 199.82 385.358 199.607 385.358 199.394C385.358 199.075 385.269 198.755 385.092 198.436C384.95 198.081 384.773 197.744 384.56 197.425C384.347 197.105 384.152 196.786 383.974 196.467C383.832 196.147 383.761 195.81 383.761 195.455C383.761 195.1 383.814 194.763 383.921 194.444C384.063 194.089 384.134 193.716 384.134 193.326C384.134 192.758 383.992 192.262 383.708 191.836C383.46 191.374 383.122 191.002 382.697 190.718C382.306 190.399 381.845 190.168 381.313 190.026C380.816 189.849 380.319 189.724 379.822 189.653C378.935 189.547 378.172 189.494 377.534 189.494C376.895 189.494 376.327 189.423 375.83 189.281C375.369 189.103 374.925 188.802 374.5 188.376C374.109 187.95 373.701 187.258 373.275 186.3C373.027 185.732 372.903 185.253 372.903 184.863C372.903 184.011 373.275 183.337 374.02 182.84C374.801 182.308 375.706 181.918 376.735 181.669C377.764 181.385 378.793 181.208 379.822 181.137C380.887 181.03 381.721 180.977 382.324 180.977C382.892 180.977 383.442 181.03 383.974 181.137C384.542 181.208 385.11 181.243 385.677 181.243C386.281 181.243 386.866 181.137 387.434 180.924C388.037 180.676 388.64 180.551 389.244 180.551C390.095 180.551 390.787 180.8 391.32 181.297C391.852 181.758 392.26 182.379 392.544 183.16C392.863 183.905 393.076 184.774 393.183 185.768C393.289 186.726 393.342 187.702 393.342 188.695C393.342 190.008 393.289 191.25 393.183 192.421C393.112 193.592 393.076 194.533 393.076 195.242C393.076 196.768 393.218 198.205 393.502 199.554C393.821 200.867 393.981 202.091 393.981 203.227C393.981 203.581 393.892 203.936 393.715 204.291C393.573 204.646 393.413 205.001 393.236 205.356C393.058 205.711 392.881 206.065 392.704 206.42C392.562 206.775 392.491 207.13 392.491 207.485C392.491 207.769 392.544 208.017 392.65 208.23L393.023 211.317C392.845 211.459 392.739 211.637 392.704 211.85C392.668 212.062 392.65 212.258 392.65 212.435C392.65 213.003 392.704 213.571 392.81 214.138C392.952 214.671 393.023 215.238 393.023 215.842C393.023 216.516 392.952 217.19 392.81 217.864C392.668 218.503 392.597 219.16 392.597 219.834C392.597 221.466 393.147 222.726 394.247 223.613C395.383 224.465 396.713 224.89 398.239 224.89C399.091 224.89 399.943 224.748 400.794 224.465C401.043 224.997 401.38 225.476 401.806 225.902C402.267 226.292 402.71 226.682 403.136 227.073C403.562 227.463 403.917 227.907 404.201 228.403C404.52 228.9 404.68 229.503 404.68 230.213Z" fill="#2B2B2B"/>
<path d="M459.505 214.671C459.505 215.806 459.381 216.888 459.132 217.918C458.884 218.911 458.6 219.905 458.28 220.898C457.961 221.856 457.624 222.85 457.269 223.879C456.95 224.873 456.701 225.902 456.524 226.966C456.205 228.741 455.566 230.213 454.608 231.384C453.65 232.555 452.496 233.478 451.148 234.152C449.799 234.862 448.291 235.376 446.624 235.696C444.991 236.051 443.306 236.317 441.567 236.494C439.828 236.672 438.107 236.796 436.404 236.867C434.736 236.938 433.192 237.062 431.773 237.239C431.241 236.849 430.797 236.423 430.442 235.962C430.087 235.501 429.75 235.057 429.431 234.631C429.111 234.241 428.757 233.904 428.366 233.62C427.976 233.371 427.461 233.247 426.823 233.247C426.61 233.247 426.432 232.963 426.29 232.396C426.184 231.792 426.077 231.136 425.971 230.426C425.865 229.681 425.74 229.024 425.598 228.457C425.492 227.853 425.332 227.552 425.119 227.552C424.303 227.552 423.647 227.374 423.15 227.02C422.689 226.665 422.316 226.221 422.032 225.689C421.784 225.121 421.606 224.5 421.5 223.826C421.429 223.152 421.393 222.495 421.393 221.856C421.393 221.36 421.287 220.898 421.074 220.472C420.861 220.047 420.63 219.639 420.382 219.248C420.134 218.822 419.903 218.397 419.69 217.971C419.477 217.545 419.371 217.101 419.371 216.64C419.371 216.108 419.388 215.451 419.424 214.671C419.495 213.854 419.548 213.021 419.584 212.169C419.655 211.317 419.708 210.483 419.743 209.667C419.814 208.851 419.85 208.177 419.85 207.645C419.85 207.006 419.921 206.473 420.063 206.048C420.24 205.622 420.435 205.249 420.648 204.93C420.861 204.611 421.039 204.327 421.181 204.078C421.358 203.83 421.447 203.546 421.447 203.227C421.447 202.801 421.34 202.446 421.127 202.162C420.95 201.878 420.861 201.594 420.861 201.31C420.861 200.92 420.985 200.547 421.234 200.193C421.482 199.802 421.66 199.412 421.766 199.022C422.156 197.46 422.352 195.917 422.352 194.391C422.352 194.071 422.334 193.77 422.298 193.486C422.298 193.166 422.281 192.865 422.245 192.581C421.429 191.907 420.524 191.481 419.53 191.303C418.537 191.091 417.543 190.949 416.55 190.878C415.556 190.771 414.598 190.647 413.675 190.505C412.753 190.363 411.972 189.991 411.333 189.387C410.801 188.89 410.322 188.34 409.896 187.737C409.47 187.098 408.903 186.673 408.193 186.46C407.696 186.282 407.27 186.052 406.915 185.768C406.596 185.448 406.436 185.005 406.436 184.437C406.436 183.585 406.685 182.947 407.182 182.521C407.714 182.06 408.335 181.705 409.045 181.456C409.754 181.172 410.482 180.942 411.227 180.764C412.008 180.551 412.664 180.25 413.196 179.859C413.729 179.469 414.367 179.274 415.113 179.274C415.432 179.274 415.734 179.292 416.017 179.327C416.337 179.327 416.656 179.327 416.975 179.327C417.863 179.327 418.59 179.185 419.158 178.901C419.761 178.582 420.222 178.174 420.542 177.677C420.897 177.145 421.127 176.542 421.234 175.867C421.376 175.193 421.447 174.466 421.447 173.685C421.447 172.549 421.376 171.449 421.234 170.385C421.092 169.32 421.021 168.22 421.021 167.085C421.021 165.772 421.198 164.565 421.553 163.465C421.908 162.365 422.582 161.354 423.576 160.431C423.789 160.254 424.019 160.023 424.268 159.739C424.516 159.455 424.782 159.189 425.066 158.941C425.35 158.657 425.634 158.426 425.918 158.249C426.237 158.071 426.557 157.983 426.876 157.983C427.089 157.983 427.266 158.036 427.408 158.142C427.586 158.213 427.763 158.32 427.94 158.462C428.721 159.242 429.218 159.828 429.431 160.218C429.679 160.573 429.803 160.999 429.803 161.496C429.803 161.78 429.786 162.099 429.75 162.454C429.75 162.773 429.75 163.199 429.75 163.731C429.75 164.867 429.892 165.985 430.176 167.085C430.46 168.185 430.602 169.125 430.602 169.906C430.602 170.58 430.46 171.237 430.176 171.875C429.928 172.479 429.803 173.117 429.803 173.791C429.803 174.288 429.91 174.75 430.123 175.175C430.371 175.566 430.637 175.956 430.921 176.346C431.241 176.737 431.524 177.145 431.773 177.571C432.021 177.961 432.145 178.422 432.145 178.955C432.5 179.203 433.299 179.434 434.541 179.647C435.783 179.824 437.167 179.984 438.693 180.126C440.218 180.232 441.762 180.321 443.323 180.392C444.885 180.463 446.18 180.498 447.209 180.498C448.132 180.498 448.841 180.569 449.338 180.711C449.835 180.853 450.243 181.013 450.562 181.19C450.917 181.332 451.237 181.492 451.52 181.669C451.804 181.847 452.177 181.953 452.638 181.989C453.206 182.06 453.685 182.219 454.075 182.468C454.501 182.681 454.714 183.124 454.714 183.798C454.714 184.65 454.484 185.324 454.022 185.821C453.596 186.318 453.046 186.69 452.372 186.939C451.733 187.187 451.041 187.347 450.296 187.418C449.551 187.453 448.859 187.471 448.22 187.471C447.191 187.471 446.162 187.436 445.133 187.365C444.104 187.294 443.075 187.258 442.046 187.258C440.343 187.258 438.799 187.418 437.415 187.737C436.031 188.057 434.825 188.589 433.796 189.334C432.802 190.079 432.021 191.073 431.454 192.315C430.921 193.521 430.655 195.047 430.655 196.892C430.655 198.702 430.762 200.476 430.974 202.215C431.223 203.954 431.347 205.728 431.347 207.538C431.347 209.241 431.365 210.608 431.4 211.637C431.471 212.666 431.684 213.535 432.039 214.245C432.5 215.274 432.873 216.445 433.157 217.758C433.441 219.071 433.796 220.313 434.221 221.484C434.683 222.655 435.304 223.648 436.084 224.465C436.901 225.245 438.089 225.636 439.651 225.636C440.183 225.636 440.893 225.565 441.78 225.423C442.667 225.281 443.554 225.068 444.441 224.784C445.328 224.465 446.091 224.074 446.73 223.613C447.369 223.116 447.688 222.513 447.688 221.803C447.688 221.2 447.511 220.597 447.156 219.993C446.801 219.355 446.624 218.68 446.624 217.971C446.624 217.474 446.73 217.048 446.943 216.693C447.191 216.303 447.493 215.966 447.848 215.682C448.238 215.363 448.628 215.096 449.019 214.884C449.445 214.635 449.853 214.422 450.243 214.245C450.882 213.429 451.645 212.754 452.532 212.222C453.454 211.654 454.43 211.37 455.459 211.37C456.169 211.37 456.843 211.495 457.482 211.743C458.156 211.991 458.777 212.311 459.345 212.701C459.451 213.34 459.505 213.996 459.505 214.671Z" fill="#2B2B2B"/>
<path d="M25.326 322.453C22.8458 322.453 20.6638 321.919 18.7801 320.852C16.8964 319.753 15.4366 318.183 14.4005 316.142C13.3959 314.102 12.8936 311.684 12.8936 308.89C12.8936 306.096 13.4273 303.694 14.4947 301.685C15.5935 299.644 17.0848 298.074 18.9685 296.975C20.8836 295.877 23.097 295.327 25.6086 295.327C28.4655 295.327 30.7888 295.877 32.5783 296.975C34.3678 298.043 35.7178 299.691 36.6283 301.92L34.5091 303.05C33.8498 301.135 32.7667 299.707 31.2597 298.765C29.7841 297.823 27.9161 297.352 25.6557 297.352C23.6464 297.352 21.8569 297.823 20.2871 298.765C18.7173 299.675 17.4772 300.994 16.5668 302.721C15.6877 304.448 15.2482 306.504 15.2482 308.89C15.2482 311.276 15.6563 313.332 16.4726 315.059C17.3203 316.786 18.5133 318.12 20.0516 319.062C21.59 319.972 23.4109 320.428 25.5144 320.428C27.1155 320.428 28.4812 320.192 29.6115 319.721C30.7417 319.219 31.6678 318.544 32.3899 317.696C33.1434 316.849 33.6928 315.907 34.0382 314.871C34.3835 313.835 34.5562 312.752 34.5562 311.621V311.056H25.326V309.078H36.7695V322.076H34.8858L34.7916 316.425C34.1637 318.308 33.0492 319.784 31.4481 320.852C29.8783 321.919 27.8376 322.453 25.326 322.453Z" fill="#6F767D"/>
<path d="M40.676 322.076L51.6015 295.704H54.38L65.3526 322.076H62.8567L59.466 313.882H46.5626L43.1719 322.076H40.676ZM47.3632 311.857H58.6654L53.0143 297.823L47.3632 311.857Z" fill="#6F767D"/>
<path d="M70.5574 322.076V295.704H81.0591C83.8532 295.704 86.0666 296.379 87.6992 297.729C89.3317 299.048 90.148 300.884 90.148 303.239C90.148 305.593 89.3317 307.446 87.6992 308.796C86.0666 310.114 83.8532 310.774 81.0591 310.774H72.9121V322.076H70.5574ZM88.8294 322.076L80.7765 310.161L82.7544 309.173L91.6078 322.076H88.8294ZM72.9121 308.749H81.012C83.2096 308.749 84.8893 308.278 86.0509 307.336C87.2125 306.394 87.7933 305.028 87.7933 303.239C87.7933 301.481 87.2125 300.131 86.0509 299.189C84.8893 298.216 83.2096 297.729 81.012 297.729H72.9121V308.749Z" fill="#6F767D"/>
<path d="M97.6449 322.076V295.704H106.592C111.019 295.704 114.41 296.819 116.765 299.048C119.119 301.277 120.296 304.495 120.296 308.702C120.296 313.065 119.119 316.393 116.765 318.685C114.41 320.946 111.019 322.076 106.592 322.076H97.6449ZM99.9995 320.051H106.734C110.376 320.051 113.154 319.078 115.069 317.131C116.984 315.185 117.942 312.375 117.942 308.702C117.942 305.154 116.984 302.438 115.069 300.555C113.154 298.671 110.376 297.729 106.734 297.729H99.9995V320.051Z" fill="#6F767D"/>
<path d="M127.262 322.076V295.704H146.287V297.729H129.616V307.666H142.802V309.691H129.616V320.051H146.947V322.076H127.262Z" fill="#6F767D"/>
<path d="M174.583 295.704V322.076H171.428L157.064 301.12L155.275 298.2H155.228L155.369 301.073V322.076H153.062V295.704H156.217L170.392 316.425L172.37 319.58H172.417L172.275 316.707V295.704H174.583Z" fill="#6F767D"/>
<path d="M185.585 295.704V322.076H183.23V295.704H185.585Z" fill="#6F767D"/>
<path d="M215.789 295.704V322.076H212.634L198.271 301.12L196.481 298.2H196.434L196.575 301.073V322.076H194.268V295.704H197.423L211.598 316.425L213.576 319.58H213.623L213.481 316.707V295.704H215.789Z" fill="#6F767D"/>
<path d="M235.174 322.453C232.693 322.453 230.511 321.919 228.628 320.852C226.744 319.753 225.284 318.183 224.248 316.142C223.243 314.102 222.741 311.684 222.741 308.89C222.741 306.096 223.275 303.694 224.342 301.685C225.441 299.644 226.932 298.074 228.816 296.975C230.731 295.877 232.944 295.327 235.456 295.327C238.313 295.327 240.636 295.877 242.426 296.975C244.215 298.043 245.565 299.691 246.476 301.92L244.357 303.05C243.697 301.135 242.614 299.707 241.107 298.765C239.632 297.823 237.764 297.352 235.503 297.352C233.494 297.352 231.704 297.823 230.135 298.765C228.565 299.675 227.325 300.994 226.414 302.721C225.535 304.448 225.096 306.504 225.096 308.89C225.096 311.276 225.504 313.332 226.32 315.059C227.168 316.786 228.361 318.12 229.899 319.062C231.437 319.972 233.258 320.428 235.362 320.428C236.963 320.428 238.329 320.192 239.459 319.721C240.589 319.219 241.515 318.544 242.237 317.696C242.991 316.849 243.54 315.907 243.886 314.871C244.231 313.835 244.404 312.752 244.404 311.621V311.056H235.174V309.078H246.617V322.076H244.733L244.639 316.425C244.011 318.308 242.897 319.784 241.296 320.852C239.726 321.919 237.685 322.453 235.174 322.453Z" fill="#6F767D"/>
<path d="M268.724 322.076V295.704H272.256L280.403 315.718L281.768 319.486H281.863L283.181 315.718L291.328 295.704H294.86V322.076H292.553V303.192L292.741 298.059H292.694L282.946 322.076H280.638L270.89 298.059H270.796L270.984 303.192V322.076H268.724Z" fill="#6F767D"/>
<path d="M299.64 322.076L310.565 295.704H313.344L324.316 322.076H321.82L318.43 313.882H305.526L302.136 322.076H299.64ZM306.327 311.857H317.629L311.978 297.823L306.327 311.857Z" fill="#6F767D"/>
<path d="M329.521 322.076V295.704H338.469C342.895 295.704 346.286 296.819 348.641 299.048C350.995 301.277 352.173 304.495 352.173 308.702C352.173 313.065 350.995 316.393 348.641 318.685C346.286 320.946 342.895 322.076 338.469 322.076H329.521ZM331.876 320.051H338.61C342.252 320.051 345.03 319.078 346.945 317.131C348.86 315.185 349.818 312.375 349.818 308.702C349.818 305.154 348.86 302.438 346.945 300.555C345.03 298.671 342.252 297.729 338.61 297.729H331.876V320.051Z" fill="#6F767D"/>
<path d="M359.138 322.076V295.704H378.163V297.729H361.493V307.666H374.679V309.691H361.493V320.051H378.823V322.076H359.138Z" fill="#6F767D"/>
<path d="M399.7 322.076V295.704H418.726V297.729H402.055V307.666H415.241V309.691H402.055V320.051H419.385V322.076H399.7Z" fill="#6F767D"/>
<path d="M422.062 322.076L432.988 295.704H435.766L446.739 322.076H444.243L440.852 313.882H427.949L424.558 322.076H422.062ZM428.749 311.857H440.052L434.4 297.823L428.749 311.857Z" fill="#6F767D"/>
<path d="M460.712 322.453C457.761 322.453 455.296 321.919 453.318 320.852C451.34 319.753 449.975 318.214 449.221 316.236L451.011 314.682C451.607 316.566 452.769 317.995 454.495 318.968C456.222 319.941 458.326 320.428 460.806 320.428C462.376 320.428 463.757 320.239 464.95 319.863C466.143 319.486 467.069 318.921 467.729 318.167C468.419 317.414 468.765 316.488 468.765 315.389C468.765 314.415 468.513 313.631 468.011 313.034C467.54 312.438 466.849 311.951 465.939 311.574C465.06 311.198 464.008 310.899 462.784 310.679L458.074 309.691C456.693 309.408 455.39 309.031 454.166 308.56C452.973 308.058 452 307.367 451.246 306.488C450.493 305.578 450.116 304.369 450.116 302.862C450.116 301.512 450.508 300.272 451.293 299.142C452.109 297.98 453.287 297.054 454.825 296.363C456.363 295.673 458.184 295.327 460.288 295.327C462.015 295.327 463.553 295.531 464.903 295.939C466.253 296.348 467.415 296.976 468.388 297.823C469.392 298.671 470.193 299.754 470.79 301.073L468.953 302.627C468.482 301.371 467.854 300.366 467.069 299.613C466.284 298.828 465.327 298.263 464.197 297.917C463.098 297.541 461.795 297.352 460.288 297.352C457.839 297.352 455.924 297.886 454.543 298.953C453.161 299.989 452.47 301.261 452.47 302.768C452.47 303.804 452.737 304.62 453.271 305.217C453.836 305.813 454.574 306.284 455.484 306.63C456.426 306.975 457.462 307.257 458.593 307.477L463.49 308.513C464.997 308.796 466.316 309.188 467.446 309.691C468.608 310.193 469.502 310.884 470.13 311.763C470.79 312.61 471.119 313.741 471.119 315.153C471.119 316.629 470.68 317.916 469.801 319.015C468.922 320.114 467.697 320.961 466.127 321.558C464.589 322.154 462.784 322.453 460.712 322.453Z" fill="#6F767D"/>
<path d="M480.052 295.704V322.076H477.697V295.704H480.052Z" fill="#6F767D"/>
<path d="M488.735 322.076V295.704H507.76V297.729H491.089V307.666H504.275V309.691H491.089V320.051H508.42V322.076H488.735Z" fill="#6F767D"/>
<path d="M514.535 322.076V295.704H525.036C527.83 295.704 530.044 296.379 531.676 297.729C533.309 299.048 534.125 300.884 534.125 303.239C534.125 305.593 533.309 307.446 531.676 308.796C530.044 310.114 527.83 310.774 525.036 310.774H516.889V322.076H514.535ZM532.806 322.076L524.754 310.161L526.732 309.173L535.585 322.076H532.806ZM516.889 308.749H524.989C527.187 308.749 528.866 308.278 530.028 307.336C531.19 306.394 531.77 305.028 531.77 303.239C531.77 301.481 531.19 300.131 530.028 299.189C528.866 298.216 527.187 297.729 524.989 297.729H516.889V308.749Z" fill="#6F767D"/>
<path d="M542.47 318.214C543.098 318.214 543.6 318.418 543.977 318.827C544.385 319.203 544.589 319.706 544.589 320.333C544.589 320.961 544.385 321.479 543.977 321.888C543.6 322.264 543.098 322.453 542.47 322.453C541.842 322.453 541.324 322.264 540.916 321.888C540.539 321.479 540.351 320.961 540.351 320.333C540.351 319.706 540.539 319.203 540.916 318.827C541.324 318.418 541.842 318.214 542.47 318.214Z" fill="#6F767D"/>
</svg>
