<svg width="125" height="69" viewBox="0 0 125 69" fill="none" xmlns="http://www.w3.org/2000/svg">
<path d="M68.4974 2.18136C65.8574 2.18136 64.5374 2.85602 64.5374 4.20536V29.7694C64.5374 31.1187 65.8574 31.7934 68.4974 31.7934V33.3334H56.0894V31.7934C58.7 31.7934 60.0054 31.1187 60.0054 29.7694V4.64536L48.8734 33.3334H44.6494L33.5174 4.64536V29.7694C33.5174 31.1187 34.8227 31.7934 37.4334 31.7934V33.3334H26.9614V31.7934C29.572 31.7934 30.8774 31.1187 30.8774 29.7694V4.20536C30.8774 2.85602 29.572 2.18136 26.9614 2.18136V0.641357H37.1694L47.9494 29.1974L58.7294 0.641357H68.4974V2.18136Z" fill="#0D0E10"/>
<path d="M7.87988 61.56H7.89988L12.6399 49.84H14.8399V64H13.3999V51.7H13.3599L8.23988 64H7.47988L2.35988 51.7H2.31988V64H0.879883V49.84H3.07988L7.87988 61.56Z" fill="#0D0E10"/>
<path d="M25.0547 58.6C25.0147 57.72 24.7281 56.9933 24.1947 56.42C23.6747 55.8333 22.9281 55.54 21.9547 55.54C21.5014 55.54 21.0814 55.6266 20.6947 55.8C20.3081 55.96 19.9681 56.1866 19.6747 56.48C19.3814 56.76 19.1481 57.0867 18.9747 57.46C18.8014 57.82 18.7014 58.2 18.6747 58.6H25.0547ZM26.4347 59.04C26.4347 59.1333 26.4347 59.2333 26.4347 59.34C26.4347 59.4466 26.4281 59.56 26.4147 59.68H18.6547C18.6681 60.1467 18.7614 60.5867 18.9347 61C19.1081 61.4133 19.3481 61.7733 19.6547 62.08C19.9614 62.3866 20.3214 62.6333 20.7347 62.82C21.1481 62.9933 21.5947 63.08 22.0747 63.08C22.7814 63.08 23.3881 62.92 23.8947 62.6C24.4147 62.2666 24.8081 61.8867 25.0747 61.46L26.0947 62.26C25.5347 62.9666 24.9147 63.4733 24.2347 63.78C23.5681 64.0867 22.8481 64.24 22.0747 64.24C21.3814 64.24 20.7347 64.12 20.1347 63.88C19.5481 63.6266 19.0414 63.28 18.6147 62.84C18.1881 62.4 17.8481 61.88 17.5947 61.28C17.3547 60.68 17.2347 60.0267 17.2347 59.32C17.2347 58.6133 17.3547 57.96 17.5947 57.36C17.8347 56.76 18.1681 56.24 18.5947 55.8C19.0214 55.36 19.5214 55.02 20.0947 54.78C20.6681 54.5267 21.2881 54.4 21.9547 54.4C22.6881 54.4 23.3347 54.5267 23.8947 54.78C24.4547 55.02 24.9214 55.3533 25.2947 55.78C25.6681 56.1933 25.9481 56.68 26.1347 57.24C26.3347 57.8 26.4347 58.4 26.4347 59.04Z" fill="#0D0E10"/>
<path d="M30.16 64H28.8V48.88H30.16V64Z" fill="#0D0E10"/>
<path d="M36.4191 62.54H36.4591L39.3591 54.64H40.8391L36.1791 66.42C35.8991 67.14 35.5391 67.7133 35.0991 68.14C34.6724 68.58 34.0524 68.8 33.2391 68.8C32.8258 68.8 32.4191 68.76 32.0191 68.68L32.1591 67.44C32.4791 67.5467 32.8124 67.6 33.1591 67.6C33.6258 67.6 33.9924 67.4533 34.2591 67.16C34.5258 66.88 34.7591 66.4733 34.9591 65.94L35.7191 63.98L31.7191 54.64H33.2391L36.4191 62.54Z" fill="#0D0E10"/>
<path d="M47.3447 56.86C47.1447 56.4733 46.8381 56.16 46.4247 55.92C46.0247 55.6666 45.5647 55.54 45.0447 55.54C44.8047 55.54 44.5647 55.5666 44.3247 55.62C44.0847 55.6733 43.8714 55.76 43.6847 55.88C43.4981 56 43.3447 56.1533 43.2247 56.34C43.1181 56.5266 43.0647 56.7467 43.0647 57C43.0647 57.44 43.2447 57.78 43.6047 58.02C43.9647 58.2466 44.5314 58.44 45.3047 58.6C46.4114 58.8266 47.2247 59.16 47.7447 59.6C48.2781 60.0266 48.5447 60.6066 48.5447 61.34C48.5447 61.8733 48.4381 62.3266 48.2247 62.7C48.0247 63.06 47.7581 63.36 47.4247 63.6C47.0914 63.8266 46.7114 63.9866 46.2847 64.08C45.8714 64.1866 45.4514 64.24 45.0247 64.24C44.3181 64.24 43.6314 64.0933 42.9647 63.8C42.2981 63.5066 41.7514 63.0466 41.3247 62.42L42.4047 61.62C42.6447 62.0333 42.9981 62.38 43.4647 62.66C43.9314 62.94 44.4447 63.08 45.0047 63.08C45.2981 63.08 45.5781 63.0533 45.8447 63C46.1114 62.9467 46.3447 62.8533 46.5447 62.72C46.7447 62.5866 46.9047 62.42 47.0247 62.22C47.1447 62.0066 47.2047 61.7467 47.2047 61.44C47.2047 60.9467 46.9647 60.58 46.4847 60.34C46.0181 60.0866 45.3381 59.8533 44.4447 59.64C44.1647 59.5733 43.8647 59.4933 43.5447 59.4C43.2381 59.2933 42.9514 59.1467 42.6847 58.96C42.4181 58.76 42.1981 58.5133 42.0247 58.22C41.8514 57.9266 41.7647 57.56 41.7647 57.12C41.7647 56.64 41.8581 56.2333 42.0447 55.9C42.2314 55.5533 42.4781 55.2733 42.7847 55.06C43.1047 54.8333 43.4647 54.6666 43.8647 54.56C44.2647 54.4533 44.6781 54.4 45.1047 54.4C45.7581 54.4 46.3914 54.5466 47.0047 54.84C47.6181 55.1333 48.0781 55.5466 48.3847 56.08L47.3447 56.86Z" fill="#0D0E10"/>
<path d="M55.6314 56.86C55.4314 56.4733 55.1248 56.16 54.7114 55.92C54.3114 55.6666 53.8514 55.54 53.3314 55.54C53.0914 55.54 52.8514 55.5666 52.6114 55.62C52.3714 55.6733 52.1581 55.76 51.9714 55.88C51.7848 56 51.6314 56.1533 51.5114 56.34C51.4048 56.5266 51.3514 56.7467 51.3514 57C51.3514 57.44 51.5314 57.78 51.8914 58.02C52.2514 58.2466 52.8181 58.44 53.5914 58.6C54.6981 58.8266 55.5114 59.16 56.0314 59.6C56.5648 60.0266 56.8314 60.6066 56.8314 61.34C56.8314 61.8733 56.7248 62.3266 56.5114 62.7C56.3114 63.06 56.0448 63.36 55.7114 63.6C55.3781 63.8266 54.9981 63.9866 54.5714 64.08C54.1581 64.1866 53.7381 64.24 53.3114 64.24C52.6048 64.24 51.9181 64.0933 51.2514 63.8C50.5848 63.5066 50.0381 63.0466 49.6114 62.42L50.6914 61.62C50.9314 62.0333 51.2848 62.38 51.7514 62.66C52.2181 62.94 52.7314 63.08 53.2914 63.08C53.5848 63.08 53.8648 63.0533 54.1314 63C54.3981 62.9467 54.6314 62.8533 54.8314 62.72C55.0314 62.5866 55.1914 62.42 55.3114 62.22C55.4314 62.0066 55.4914 61.7467 55.4914 61.44C55.4914 60.9467 55.2514 60.58 54.7714 60.34C54.3048 60.0866 53.6248 59.8533 52.7314 59.64C52.4514 59.5733 52.1514 59.4933 51.8314 59.4C51.5248 59.2933 51.2381 59.1467 50.9714 58.96C50.7048 58.76 50.4848 58.5133 50.3114 58.22C50.1381 57.9266 50.0514 57.56 50.0514 57.12C50.0514 56.64 50.1448 56.2333 50.3314 55.9C50.5181 55.5533 50.7648 55.2733 51.0714 55.06C51.3914 54.8333 51.7514 54.6666 52.1514 54.56C52.5514 54.4533 52.9648 54.4 53.3914 54.4C54.0448 54.4 54.6781 54.5466 55.2914 54.84C55.9048 55.1333 56.3648 55.5466 56.6714 56.08L55.6314 56.86Z" fill="#0D0E10"/>
<path d="M64.8382 57.96C64.8382 57.1467 64.6248 56.54 64.1982 56.14C63.7715 55.74 63.1515 55.54 62.3382 55.54C61.7782 55.54 61.2582 55.64 60.7782 55.84C60.2982 56.04 59.8915 56.3067 59.5582 56.64L58.7982 55.74C59.1848 55.3533 59.6915 55.0333 60.3182 54.78C60.9582 54.5267 61.6782 54.4 62.4782 54.4C62.9848 54.4 63.4582 54.4733 63.8982 54.62C64.3382 54.7533 64.7248 54.96 65.0582 55.24C65.3915 55.52 65.6515 55.8733 65.8382 56.3C66.0248 56.7266 66.1182 57.2267 66.1182 57.8V61.9C66.1182 62.26 66.1315 62.6333 66.1582 63.02C66.1848 63.4066 66.2248 63.7333 66.2782 64H65.0582C65.0182 63.7733 64.9848 63.5266 64.9582 63.26C64.9315 62.9933 64.9182 62.7333 64.9182 62.48H64.8782C64.4515 63.1066 63.9648 63.56 63.4182 63.84C62.8848 64.1066 62.2382 64.24 61.4782 64.24C61.1182 64.24 60.7448 64.1866 60.3582 64.08C59.9848 63.9866 59.6382 63.8266 59.3182 63.6C59.0115 63.3733 58.7515 63.08 58.5382 62.72C58.3382 62.36 58.2382 61.92 58.2382 61.4C58.2382 60.68 58.4182 60.1133 58.7782 59.7C59.1515 59.2733 59.6448 58.96 60.2582 58.76C60.8715 58.5466 61.5715 58.4133 62.3582 58.36C63.1582 58.2933 63.9848 58.26 64.8382 58.26V57.96ZM64.4382 59.32C63.8782 59.32 63.3115 59.3466 62.7382 59.4C62.1782 59.44 61.6648 59.5333 61.1982 59.68C60.7448 59.8133 60.3715 60.0133 60.0782 60.28C59.7848 60.5467 59.6382 60.9 59.6382 61.34C59.6382 61.6733 59.6982 61.9533 59.8182 62.18C59.9515 62.4067 60.1248 62.5933 60.3382 62.74C60.5515 62.8733 60.7848 62.9733 61.0382 63.04C61.3048 63.0933 61.5715 63.12 61.8382 63.12C62.3182 63.12 62.7448 63.04 63.1182 62.88C63.4915 62.7066 63.8048 62.48 64.0582 62.2C64.3115 61.9066 64.5048 61.5733 64.6382 61.2C64.7715 60.8266 64.8382 60.4333 64.8382 60.02V59.32H64.4382Z" fill="#0D0E10"/>
<path d="M87.5018 56.92C87.5018 58 87.3151 58.9933 86.9418 59.9C86.5684 60.8066 86.0484 61.5933 85.3818 62.26C84.7284 62.9133 83.9484 63.4266 83.0418 63.8C82.1484 64.1733 81.1751 64.36 80.1218 64.36C79.0684 64.36 78.0884 64.1733 77.1818 63.8C76.2884 63.4266 75.5084 62.9133 74.8418 62.26C74.1884 61.5933 73.6751 60.8066 73.3018 59.9C72.9284 58.9933 72.7418 58 72.7418 56.92C72.7418 55.84 72.9284 54.8466 73.3018 53.94C73.6751 53.0333 74.1884 52.2533 74.8418 51.6C75.5084 50.9333 76.2884 50.4133 77.1818 50.04C78.0884 49.6666 79.0684 49.48 80.1218 49.48C81.1751 49.48 82.1484 49.6666 83.0418 50.04C83.9484 50.4133 84.7284 50.9333 85.3818 51.6C86.0484 52.2533 86.5684 53.0333 86.9418 53.94C87.3151 54.8466 87.5018 55.84 87.5018 56.92ZM85.9818 56.92C85.9818 56.0933 85.8484 55.3066 85.5818 54.56C85.3151 53.8133 84.9284 53.16 84.4218 52.6C83.9151 52.0267 83.2951 51.5733 82.5618 51.24C81.8418 50.9066 81.0284 50.74 80.1218 50.74C79.2151 50.74 78.3951 50.9066 77.6618 51.24C76.9418 51.5733 76.3284 52.0267 75.8218 52.6C75.3151 53.16 74.9284 53.8133 74.6618 54.56C74.3951 55.3066 74.2618 56.0933 74.2618 56.92C74.2618 57.7466 74.3951 58.5333 74.6618 59.28C74.9284 60.0267 75.3151 60.68 75.8218 61.24C76.3284 61.8 76.9418 62.2466 77.6618 62.58C78.3951 62.9133 79.2151 63.08 80.1218 63.08C81.0284 63.08 81.8418 62.9133 82.5618 62.58C83.2951 62.2466 83.9151 61.8 84.4218 61.24C84.9284 60.68 85.3151 60.0267 85.5818 59.28C85.8484 58.5333 85.9818 57.7466 85.9818 56.92Z" fill="#0D0E10"/>
<path d="M87.674 67.52C87.8073 67.56 87.9473 67.5866 88.0939 67.6C88.2539 67.6266 88.4006 67.64 88.5339 67.64C88.8139 67.64 89.0406 67.5866 89.2139 67.48C89.3873 67.3866 89.5206 67.2533 89.6139 67.08C89.7073 66.9067 89.7673 66.6933 89.7939 66.44C89.8339 66.2 89.854 65.9333 89.854 65.64V54.64H91.2139V65.86C91.2139 66.2333 91.1739 66.5933 91.0939 66.94C91.0139 67.3 90.874 67.6133 90.674 67.88C90.474 68.16 90.2006 68.38 89.854 68.54C89.5206 68.7133 89.0873 68.8 88.5539 68.8C88.4073 68.8 88.2339 68.7866 88.0339 68.76C87.8339 68.7466 87.6473 68.7133 87.4739 68.66L87.674 67.52ZM91.4939 51.04C91.4939 51.32 91.3939 51.5533 91.1939 51.74C90.9939 51.9133 90.7739 52 90.5339 52C90.2939 52 90.0739 51.9133 89.8739 51.74C89.6739 51.5533 89.5739 51.32 89.5739 51.04C89.5739 50.76 89.6739 50.5333 89.8739 50.36C90.0739 50.1733 90.2939 50.08 90.5339 50.08C90.7739 50.08 90.9939 50.1733 91.1939 50.36C91.3939 50.5333 91.4939 50.76 91.4939 51.04Z" fill="#0D0E10"/>
<path d="M101.373 58.6C101.333 57.72 101.047 56.9933 100.513 56.42C99.9935 55.8333 99.2468 55.54 98.2735 55.54C97.8201 55.54 97.4001 55.6266 97.0135 55.8C96.6268 55.96 96.2868 56.1866 95.9935 56.48C95.7001 56.76 95.4668 57.0867 95.2935 57.46C95.1201 57.82 95.0201 58.2 94.9935 58.6H101.373ZM102.753 59.04C102.753 59.1333 102.753 59.2333 102.753 59.34C102.753 59.4466 102.747 59.56 102.733 59.68H94.9735C94.9868 60.1467 95.0801 60.5867 95.2535 61C95.4268 61.4133 95.6668 61.7733 95.9735 62.08C96.2801 62.3866 96.6401 62.6333 97.0535 62.82C97.4668 62.9933 97.9135 63.08 98.3935 63.08C99.1001 63.08 99.7068 62.92 100.213 62.6C100.733 62.2666 101.127 61.8867 101.393 61.46L102.413 62.26C101.853 62.9666 101.233 63.4733 100.553 63.78C99.8868 64.0867 99.1668 64.24 98.3935 64.24C97.7001 64.24 97.0535 64.12 96.4535 63.88C95.8668 63.6266 95.3601 63.28 94.9335 62.84C94.5068 62.4 94.1668 61.88 93.9135 61.28C93.6735 60.68 93.5535 60.0267 93.5535 59.32C93.5535 58.6133 93.6735 57.96 93.9135 57.36C94.1535 56.76 94.4868 56.24 94.9135 55.8C95.3401 55.36 95.8401 55.02 96.4135 54.78C96.9868 54.5267 97.6068 54.4 98.2735 54.4C99.0068 54.4 99.6535 54.5267 100.213 54.78C100.773 55.02 101.24 55.3533 101.613 55.78C101.987 56.1933 102.267 56.68 102.453 57.24C102.653 57.8 102.753 58.4 102.753 59.04Z" fill="#0D0E10"/>
<path d="M112.779 62.42C112.379 63.02 111.859 63.4733 111.219 63.78C110.579 64.0867 109.919 64.24 109.239 64.24C108.505 64.24 107.839 64.1133 107.239 63.86C106.652 63.6067 106.145 63.26 105.719 62.82C105.305 62.38 104.979 61.86 104.739 61.26C104.512 60.66 104.399 60.0133 104.399 59.32C104.399 58.6267 104.512 57.98 104.739 57.38C104.979 56.78 105.305 56.26 105.719 55.82C106.145 55.38 106.652 55.0333 107.239 54.78C107.839 54.5267 108.505 54.4 109.239 54.4C109.919 54.4 110.579 54.56 111.219 54.88C111.859 55.1866 112.379 55.6466 112.779 56.26H112.819V48.88H114.179V64H112.819V62.42H112.779ZM105.839 59.32C105.839 59.84 105.919 60.3333 106.079 60.8C106.239 61.2533 106.465 61.6533 106.759 62C107.065 62.3333 107.439 62.6 107.879 62.8C108.319 62.9866 108.819 63.08 109.379 63.08C109.899 63.08 110.379 62.9866 110.819 62.8C111.259 62.6 111.639 62.3333 111.959 62C112.279 61.6667 112.525 61.2733 112.699 60.82C112.885 60.3533 112.979 59.8533 112.979 59.32C112.979 58.7867 112.885 58.2933 112.699 57.84C112.525 57.3733 112.279 56.9733 111.959 56.64C111.639 56.2933 111.259 56.0266 110.819 55.84C110.379 55.64 109.899 55.54 109.379 55.54C108.819 55.54 108.319 55.64 107.879 55.84C107.439 56.04 107.065 56.3133 106.759 56.66C106.465 56.9933 106.239 57.3933 106.079 57.86C105.919 58.3133 105.839 58.8 105.839 59.32Z" fill="#0D0E10"/>
<path d="M123.113 57.96C123.113 57.1467 122.9 56.54 122.473 56.14C122.047 55.74 121.427 55.54 120.613 55.54C120.053 55.54 119.533 55.64 119.053 55.84C118.573 56.04 118.167 56.3067 117.833 56.64L117.073 55.74C117.46 55.3533 117.967 55.0333 118.593 54.78C119.233 54.5267 119.953 54.4 120.753 54.4C121.26 54.4 121.733 54.4733 122.173 54.62C122.613 54.7533 123 54.96 123.333 55.24C123.667 55.52 123.927 55.8733 124.113 56.3C124.3 56.7266 124.393 57.2267 124.393 57.8V61.9C124.393 62.26 124.407 62.6333 124.433 63.02C124.46 63.4066 124.5 63.7333 124.553 64H123.333C123.293 63.7733 123.26 63.5266 123.233 63.26C123.207 62.9933 123.193 62.7333 123.193 62.48H123.153C122.727 63.1066 122.24 63.56 121.693 63.84C121.16 64.1066 120.513 64.24 119.753 64.24C119.393 64.24 119.02 64.1866 118.633 64.08C118.26 63.9866 117.913 63.8266 117.593 63.6C117.287 63.3733 117.027 63.08 116.813 62.72C116.613 62.36 116.513 61.92 116.513 61.4C116.513 60.68 116.693 60.1133 117.053 59.7C117.427 59.2733 117.92 58.96 118.533 58.76C119.147 58.5466 119.847 58.4133 120.633 58.36C121.433 58.2933 122.26 58.26 123.113 58.26V57.96ZM122.713 59.32C122.153 59.32 121.587 59.3466 121.013 59.4C120.453 59.44 119.94 59.5333 119.473 59.68C119.02 59.8133 118.647 60.0133 118.353 60.28C118.06 60.5467 117.913 60.9 117.913 61.34C117.913 61.6733 117.973 61.9533 118.093 62.18C118.227 62.4067 118.4 62.5933 118.613 62.74C118.827 62.8733 119.06 62.9733 119.313 63.04C119.58 63.0933 119.847 63.12 120.113 63.12C120.593 63.12 121.02 63.04 121.393 62.88C121.767 62.7066 122.08 62.48 122.333 62.2C122.587 61.9066 122.78 61.5733 122.913 61.2C123.047 60.8266 123.113 60.4333 123.113 60.02V59.32H122.713Z" fill="#0D0E10"/>
<path d="M80.8694 1.04536C82.5761 1.04536 84.1547 1.25869 85.6054 1.68536C87.0774 2.11202 88.3361 2.81602 89.3814 3.79736C90.4481 4.75736 91.2801 6.02669 91.8774 7.60536C92.4747 9.18402 92.7734 11.1254 92.7734 13.4294C92.7734 15.328 92.5174 17.0454 92.0054 18.5814C91.4934 20.096 90.7254 21.3974 89.7014 22.4854C88.6774 23.552 87.3867 24.384 85.8294 24.9814C84.2721 25.5574 82.4587 25.8454 80.3894 25.8454C78.7041 25.8454 77.1361 25.6427 75.6854 25.2374C74.2347 24.832 72.9761 24.16 71.9094 23.2214C70.8641 22.2827 70.0321 21.056 69.4134 19.5414C68.8161 18.0267 68.5174 16.16 68.5174 13.9414C68.5174 11.9574 68.7521 10.176 69.2214 8.59736C69.6907 6.99736 70.4267 5.64269 71.4294 4.53336C72.4321 3.40269 73.7121 2.53869 75.2694 1.94136C76.8267 1.34402 78.6934 1.04536 80.8694 1.04536ZM81.0294 3.70136C79.7067 3.70136 78.5654 3.90402 77.6054 4.30936C76.6454 4.69336 75.8561 5.25869 75.2374 6.00536C74.6401 6.75202 74.1921 7.66936 73.8934 8.75736C73.6161 9.84536 73.4774 11.0827 73.4774 12.4694C73.4774 14.624 73.6374 16.3947 73.9574 17.7814C74.2774 19.1467 74.7361 20.2347 75.3334 21.0454C75.9307 21.8347 76.6561 22.3894 77.5094 22.7094C78.3627 23.008 79.3227 23.1574 80.3894 23.1574C81.7974 23.1574 82.9814 22.9547 83.9414 22.5494C84.9014 22.1227 85.6694 21.5147 86.2454 20.7254C86.8214 19.9147 87.2374 18.9227 87.4934 17.7494C87.7494 16.5547 87.8774 15.1894 87.8774 13.6534C87.8774 11.6694 87.7067 10.0374 87.3654 8.75736C87.0454 7.47736 86.5867 6.46402 85.9894 5.71736C85.3921 4.97069 84.6667 4.44802 83.8134 4.14936C82.9814 3.85069 82.0534 3.70136 81.0294 3.70136Z" fill="#0D0E10"/>
</svg>
